<?xml version="1.0" encoding="UTF-8"?><svg id="Layer_1" xmlns="http://www.w3.org/2000/svg" viewBox="0 0 250.62 79.27"><defs><style>.cls-1{fill:#fff;}.cls-2{fill:#ffcf01;}</style></defs><rect class="cls-2" x="0" y="0" width="250.62" height="79.27" rx="20.21" ry="20.21"/><path class="cls-1" d="m38.49,47.38c-3.03,0-8.2-.34-11.27-1.22-1.51-.44-2.54-1.02-2.54-1.76V14.14c0-.73.93-1.27,2.39-1.71,3.07-.93,8.34-1.22,11.42-1.22,9.56.05,19.08,3.12,19.08,18.05s-9.52,18.06-19.08,18.1Zm-3.81-8.88c1.37.24,2.68.44,3.95.44,4.59-.05,8.44-1.71,8.44-9.66s-3.85-9.61-8.44-9.66c-1.27,0-2.59.2-3.95.44v18.45Z"/><path class="cls-1" d="m62.36,45.03c0-.68.2-1.61.54-2.78,2.98-10.49,8.25-22.89,10.15-26.4,2.44-4.59,2.68-4.64,6.25-4.64s3.85.05,6.29,4.64c1.9,3.51,7.17,15.91,10.15,26.4.34,1.12.54,2.05.54,2.73,0,1.85-1.32,2.34-4.93,2.34-2.44,0-4.49-.63-5.08-2.88l-.73-2.73h-12.54l-.68,2.73c-.58,2.24-2.63,2.88-5.03,2.88-3.61,0-4.93-.49-4.93-2.29Zm16.93-22.11c-1.07,2.73-2.29,5.95-3.66,10.05h7.32c-1.37-4.1-2.59-7.32-3.66-10.05Z"/><path class="cls-1" d="m112.93,40.4c0,4.88-.49,6.93-4.25,6.93-1.56,0-5.71-.24-5.71-2.15V15.22c0-1.76.93-2.93,3.46-3.37,2.49-.44,6.05-.63,8.83-.63,9.61,0,16.35,3.22,16.35,12.39,0,4.93-1.81,8.39-5.81,10.3l5.37,9.03c.39.73.54,1.37.54,1.9,0,2.1-2.68,2.49-4.98,2.49s-3.85-.34-5.17-2.2l-5.32-9.42h-.59c-1.17,0-2.2-.1-2.73-.24v4.93Zm8.49-17.03c0-3.03-1.56-4.29-5.56-4.29-.88,0-2.1.1-2.93.34v8c.63.2,2,.39,2.93.39,4.29,0,5.56-1.66,5.56-4.44Z"/><path class="cls-1" d="m149.92,40.4c0,4.88-.49,6.93-4.25,6.93-1.56,0-5.71-.24-5.71-2.15V15.22c0-1.76.93-2.93,3.46-3.37,2.49-.44,6.05-.63,8.83-.63,9.61,0,16.35,3.22,16.35,12.39,0,4.93-1.81,8.39-5.81,10.3l5.37,9.03c.39.73.54,1.37.54,1.9,0,2.1-2.68,2.49-4.98,2.49s-3.85-.34-5.17-2.2l-5.32-9.42h-.59c-1.17,0-2.2-.1-2.73-.24v4.93Zm8.49-17.03c0-3.03-1.56-4.29-5.56-4.29-.88,0-2.1.1-2.93.34v8c.63.2,2,.39,2.93.39,4.29,0,5.56-1.66,5.56-4.44Z"/><path class="cls-1" d="m186.9,18.15v22.25c0,4.88-.49,6.93-4.25,6.93-1.56,0-5.71-.24-5.71-2.15V13.36c0-1.8,4.15-2.15,5.71-2.15,3.76,0,4.25,2.05,4.25,6.93Z"/><path class="cls-1" d="m225.94,18.15v26.5c0,1.85-1.46,2.68-3.37,2.68-2.25,0-4-.15-5.86-2.88l-10.05-12.83c-.49-.63-.59-1.71-.78-2.54v11.32c0,4.88-.49,6.93-4.25,6.93-1.56,0-5.71-.24-5.71-2.15V13.46c0-2.05,1.56-2.24,3.51-2.24,1.71,0,3.56.58,5.12,2.78l10.69,13.47c.49.63.68,1.56.73,2.25V13.36c0-1.8,4.15-2.15,5.71-2.15,3.76,0,4.25,2.05,4.25,6.93Z"/><path class="cls-1" d="m35.36,65.69c-.62,0-1.17-.17-1.67-.38-.74.24-1.14.4-1.81.4-1.55,0-3.04-1.03-3.04-3.1s1.21-4.43,4.1-4.43c2.14,0,2.96,1.22,2.96,2.5,0,1.12-.36,2.02-.36,2.52,0,.45.05.52.31.52.59,0,1.31-1.09,1.31-2.66,0-2.76-2.19-3.76-4.59-3.76-2.88,0-4.81,2.09-4.81,5.14s2.6,4.43,5.03,4.43c1.47,0,3.16-.29,4.98-.9.28-.09.62.48.76,1.17.12.55-.02.88-.52,1.02-1.5.43-3.07.79-5.03.79-4.62,0-7.95-1.85-7.95-6.5s3.57-7.19,7.55-7.19,7.31,2.21,7.31,5.66-2.36,4.78-4.55,4.78Zm-1.67-4.26c0-.67-.14-1.26-.79-1.26-.9,0-1.55,1.22-1.55,2.29,0,.59.22,1.17.81,1.17.78,0,1.54-.88,1.54-2.21Z"/><path class="cls-1" d="m48.71,55.3c4.86,0,6.22,3.16,6.22,6.38s-1.34,6.38-6.22,6.38-6.21-3.14-6.21-6.38,1.34-6.38,6.21-6.38Zm-2.59,6.41c0,1.6.71,3.24,2.59,3.24s2.62-1.64,2.62-3.24-.72-3.31-2.62-3.31-2.59,1.66-2.59,3.31Z"/><path class="cls-1" d="m59.74,57.52c1,0,1.33.48,1.41,1.76.55-1.16,1.48-1.91,3.22-1.91.9,0,.9.52.9.93,0,1.69-.52,2.22-1.31,2.22-1.36,0-2.59,1.55-2.59,3.53v1.36c0,1.88,0,2.59-1.45,2.59-.55,0-2-.07-2-.74v-9.09c0-.62,1.14-.66,1.81-.66Z"/><path class="cls-1" d="m73.65,67.38c-.59.47-1.81.67-2.76.67-2.69,0-3.41-1.6-3.41-3.26,0-2.48,1.6-3.57,4.17-3.57.97,0,1.78.16,1.81.16v-.1c0-.55-.45-.83-1.79-.83s-2.03.21-2.66.34c-.12.04-.21.05-.29.05-.71,0-.79-1.67-.79-2.26,0-.38.02-.62.6-.83.43-.14,1.48-.4,3.52-.4s4.84.34,4.84,4.05v3.81c0,.57,0,1.38.21,1.76.48.88-1.07,1.07-1.88,1.07-.67,0-1.26-.17-1.57-.67Zm-1.81-1.93c.74,0,1.6-.6,1.6-1.41v-.24c-.22-.07-.43-.12-.81-.12-1.16,0-1.66.48-1.66,1.03,0,.47.36.74.86.74Z"/><path class="cls-1" d="m82.09,68c-.55,0-2-.07-2-.74v-9.07c0-.62,1.14-.66,1.81-.66.93,0,1.28.4,1.4,1.41.57-1.05,1.78-1.59,3.1-1.59,2.12,0,3.28,1.28,3.28,3.86v4.78c-.02,1.45-.17,2-1.45,2-.55,0-2-.07-2-.74v-5.38c0-.85-.19-1.31-.81-1.31-1.28,0-1.88,1.83-1.88,3.09v2.04c0,1.67-.09,2.31-1.45,2.31Z"/><path class="cls-1" d="m99.2,66.68c-.21.19-.41.38-.64.55-.81.6-1.71.83-2.55.83-2.4,0-3.48-1.97-3.48-4.78,0-3.81,2-5.91,5.74-5.91,1.67,0,3.09.28,3.88.59.47.19.5.34.5.6v7.76c0,4.93-3.34,5.36-5.91,5.36-2.04,0-3.69-.22-4.14-.36-.34-.14-.43-.22-.43-.62,0-.86.22-2.22.6-2.22.05,0,.33.02.48.04.29.03,1.4.22,3.02.22,1.71,0,2.84-.31,2.93-2.05Zm0-5.09v-1.07c-.29-.09-.54-.14-.95-.14-1.57,0-2.28,1.24-2.28,2.9,0,1.03.38,1.78,1.26,1.78,1.28,0,1.97-1.9,1.97-3.47Z"/><path class="cls-1" d="m105.52,62.69c0-2.64.9-5.33,5.17-5.33,3.14,0,4.43,1.45,4.43,3.79,0,2.78-1.79,3.45-4.29,3.45-.41,0-.83-.02-1.19-.14-.16-.05-.29-.12-.41-.21.29.5.93.91,2.36.91,1.12,0,1.95-.22,2.45-.4.28-.09.47-.17.55-.17.48,0,.66,1.69.66,2.09,0,.33-.12.52-.43.69-.62.34-1.96.67-3.84.67-4.88,0-5.45-3.28-5.45-5.36Zm3.53-.91c.34.17.74.22,1.17.22.93,0,1.43-.36,1.43-.95,0-.66-.55-.86-1.12-.86-.95,0-1.35.59-1.48,1.59Z"/><path class="cls-1" d="m117.68,67.24c0-.24.07-.57.19-.98,1.05-3.71,2.91-8.09,3.59-9.33.86-1.62.95-1.64,2.21-1.64s1.36.02,2.22,1.64c.67,1.24,2.53,5.62,3.59,9.33.12.4.19.72.19.97,0,.66-.47.83-1.74.83-.86,0-1.59-.22-1.79-1.02l-.26-.97h-4.43l-.24.97c-.21.79-.93,1.02-1.78,1.02-1.28,0-1.74-.17-1.74-.81Zm5.98-7.81c-.38.97-.81,2.1-1.29,3.55h2.59c-.48-1.45-.91-2.59-1.29-3.55Z"/><path class="cls-1" d="m133.98,57.52c1,0,1.33.48,1.41,1.76.55-1.16,1.48-1.91,3.22-1.91.9,0,.9.52.9.93,0,1.69-.52,2.22-1.31,2.22-1.36,0-2.59,1.55-2.59,3.53v1.36c0,1.88,0,2.59-1.45,2.59-.55,0-2-.07-2-.74v-9.09c0-.62,1.14-.66,1.81-.66Z"/><path class="cls-1" d="m143.23,57.54v-.48c0-.69.5-1.21,1.57-1.78.52-.28.91-.45,1.21-.45.48,0,.67.48.67,1.71v1h1.38c.46,0,1,.07,1,.74,0,1.62-.29,2.05-1.02,2.05h-1.36v4.33c0,.52.29.66.69.66.33,0,.54-.03,1.07-.21.12-.05.24-.07.34-.07.38,0,.4,1.5.4,2.1,0,.46-.72.91-2.67.91-2.5,0-3.28-1.05-3.28-3.29v-4.43h-.36c-.83,0-1.07-.12-1.07-.74,0-.96.14-2.05,1-2.05h.43Z"/><path class="cls-1" d="m153.73,53.64c.93,0,1.72.53,1.72,1.64,0,1.21-.95,1.74-1.95,1.74-.93,0-1.69-.47-1.69-1.57,0-1.17.88-1.81,1.91-1.81Zm1.74,11.02c0,.52.22.66.52.66.14,0,.24,0,.38-.03.16-.03.26-.07.35-.07.55,0,.57,1.5.57,2.1,0,.38-.67.74-2.5.74-2.09,0-2.76-1.05-2.76-3.29v-6.57c0-.62,1.14-.66,1.81-.66,1.59,0,1.64.91,1.64,3.66v3.47Z"/><path class="cls-1" d="m165.21,60.35c-1.59,0-1.86.12-1.86.4,0,.5.97.41,2.02.74,1.24.38,2.55,1.19,2.55,3.09,0,2.64-1.79,3.48-4.79,3.48-2.26,0-3.16-.28-3.45-.67-.12-.17-.16-.36-.16-.64,0-.47.1-2,.47-2,.05,0,.16.03.64.12.79.14,1.02.21,2.1.21.55,0,1.52-.02,1.52-.45,0-.47-1.07-.59-2.19-.91-1.17-.34-2.34-.78-2.34-2.97,0-2.47,1.46-3.38,4.71-3.38,1.66,0,3.19.24,3.19,1,0,.14-.05,2.22-.57,2.22-.07,0-.14-.03-.67-.12-.86-.12-1.12-.12-1.16-.12Z"/><path class="cls-1" d="m171.64,57.54v-.48c0-.69.5-1.21,1.57-1.78.52-.28.91-.45,1.21-.45.48,0,.67.48.67,1.71v1h1.38c.46,0,1,.07,1,.74,0,1.62-.29,2.05-1.02,2.05h-1.36v4.33c0,.52.29.66.69.66.33,0,.54-.03,1.07-.21.12-.05.24-.07.34-.07.38,0,.4,1.5.4,2.1,0,.46-.72.91-2.67.91-2.5,0-3.28-1.05-3.28-3.29v-4.43h-.36c-.83,0-1.07-.12-1.07-.74,0-.96.14-2.05,1-2.05h.43Z"/><path class="cls-1" d="m182.53,64.52c.98,0,1.81.55,1.81,1.71,0,1.26-1,1.81-2.05,1.81-.98,0-1.78-.48-1.78-1.64,0-1.22.93-1.88,2.02-1.88Z"/><path class="cls-1" d="m186.88,62.66c0-4.14,2.52-5.29,5.33-5.29.78,0,1.72.09,2.24.28.24.09.41.24.41.74,0,.47-.14,2.09-.76,2.09-.03,0-.07-.02-.12-.02-.29-.03-.88-.17-1.4-.17-1.31,0-2.16.86-2.16,2.48,0,1.47.6,2.36,1.98,2.36,0,0,1.21-.14,1.48-.24.28-.1.33-.14.45-.14.64,0,.76,1.69.76,2.1,0,.33-.21.57-.59.76-.64.31-1.74.45-3.09.45-1.95,0-4.55-1.17-4.55-5.4Z"/><path class="cls-1" d="m202.49,57.36c3.88,0,5.14,2.66,5.14,5.34s-1.26,5.35-5.14,5.35-5.1-2.67-5.1-5.35,1.19-5.34,5.1-5.34Zm-1.67,5.36c0,1.19.48,2.4,1.67,2.4s1.71-1.21,1.71-2.4-.48-2.43-1.71-2.43-1.67,1.19-1.67,2.43Z"/><path class="cls-1" d="m215.7,60.52c-.21,0-1.4.16-1.69,2.4v2.72c0,1.71-.07,2.36-1.45,2.36-.55,0-2-.07-2-.74v-9.09c0-.62,1.14-.66,1.81-.66.83,0,1.19.33,1.35,1.17.71-.91,1.74-1.33,2.91-1.33s2.24.38,2.79,1.59c.81-1.03,1.98-1.59,3.38-1.59,1.69,0,2.93.71,2.93,3.55v4.5c0,1.88,0,2.59-1.45,2.59-.55,0-2-.07-2-.74v-5.5c0-.91-.19-1.24-.71-1.24-.21,0-1.57.17-1.72,2.91v1.98c0,1.88,0,2.59-1.45,2.59-.55,0-2-.07-2-.74v-5.5c0-.93-.21-1.24-.71-1.24Z"/></svg>