<?xml version="1.0" encoding="UTF-8"?><svg id="Layer_1" xmlns="http://www.w3.org/2000/svg" viewBox="0 0 97.05 38.97"><defs><style>.cls-1{fill:#fff;}</style></defs><path class="cls-1" d="m.04,32.95c.54-4.18,2.72-9.11,6.14-10.63,3.43-1.52,7.04-1.17,7.04-1.17l-1.18-3.9c-.88-2.9-.2-6.05,1.8-8.33l5.21-5.94C21.27.45,24.76-.58,28.01.32l6.83,1.91c2.97.83,5.56,2.65,7.33,5.17l5.95,8.44s4.92-2.2,7.06-1.92c2.14.28,4.35,1.98,5.87,4.71,1.52,2.74,3.04,8.23,3.04,8.23,0,0,2.28-1.25,4.31-1.54,2.03-.29,3.87-.06,5.7,1.61,2.74,2.5,3.23,6.42,3.23,6.42,0,0,7.53,3.89,19.73,4.93,0,0-57.92.68-69.32.68s-19.38-.03-23.26-.8c-2.68-.53-4.78-2.51-4.43-5.22Z"/></svg>