<?xml version="1.0" encoding="UTF-8"?><svg id="Layer_1" xmlns="http://www.w3.org/2000/svg" viewBox="0 0 353.51 35.54"><defs><style>.cls-1{fill:#d9ebff;}.cls-2{fill:none;}</style></defs><path class="cls-2" d="m92.18,16.85c-4.42,0-6.33,4.08-6.33,7.99,0,4.5,2.59,7.9,6.25,7.9s6.25-3.36,6.25-7.99c0-3.48-1.74-7.9-6.16-7.9Z"/><path class="cls-2" d="m307.61,13.74c0-3.36-2.55-4.67-6.29-4.67-1.7,0-2.68.13-3.27.25v9.22h3.36c3.91,0,6.2-2.04,6.2-4.8Z"/><path class="cls-2" d="m125.54,16.85c-4.42,0-6.33,4.08-6.33,7.99,0,4.5,2.59,7.9,6.25,7.9s6.25-3.36,6.25-7.99c0-3.48-1.74-7.9-6.16-7.9Z"/><path class="cls-2" d="m259.29,9.83c-3.19,0-5.44,2.81-5.44,6.71,0,3.44,2.08,5.86,5.31,5.86,2.51,0,4.46-1.23,5.44-2.89.21-.34.34-.77.34-1.36,0-4.72-1.74-8.33-5.65-8.33Z"/><path class="cls-2" d="m6.76,21.35h-3.06v10.92c.72.13,1.78.17,3.1.17,3.82,0,7.35-1.4,7.35-5.57,0-3.91-3.36-5.52-7.39-5.52Z"/><path class="cls-2" d="m231.37,9.15c-1.91,0-3.36.17-4.33.38v22.61c.94.17,2.29.21,3.74.21,7.9,0,12.2-4.42,12.2-12.15.04-6.76-3.78-11.05-11.6-11.05Z"/><path class="cls-2" d="m13.26,13.74c0-3.36-2.55-4.67-6.29-4.67-1.7,0-2.68.13-3.27.25v9.22h3.36c3.91,0,6.2-2.04,6.2-4.8Z"/><path class="cls-2" d="m301.11,21.35h-3.06v10.92c.72.13,1.78.17,3.1.17,3.82,0,7.35-1.4,7.35-5.57,0-3.91-3.36-5.52-7.39-5.52Z"/><rect class="cls-1" x="171.91" width="35.08" height="35.08"/><path d="m231.2,6.22c-2.93,0-5.61.25-7.86.59v28.17c1.87.21,4.08.34,6.71.34,5.57,0,9.99-1.44,12.66-4.12,2.68-2.63,4.12-6.46,4.12-11.13s-1.49-7.95-4.04-10.28c-2.51-2.34-6.29-3.57-11.6-3.57Zm-.42,26.13c-1.44,0-2.8-.04-3.74-.21V9.54c.98-.21,2.42-.38,4.33-.38,7.82,0,11.64,4.29,11.6,11.05,0,7.73-4.29,12.15-12.2,12.15Z"/><path d="m259.59,6.99c-5.65,0-9.43,4.59-9.43,9.82,0,4.72,3.19,8.46,8.16,8.46,2.76,0,4.97-1.1,6.5-2.97h.13c-.51,3.27-1.83,5.69-3.65,7.35-1.57,1.49-3.61,2.38-5.78,2.68-1.27.13-2.21.21-3.02.13v3.06c.89.04,2.08,0,3.44-.21,2.97-.34,5.91-1.61,8.03-3.7,2.72-2.63,4.76-6.88,4.76-12.96,0-7.05-3.48-11.64-9.14-11.64Zm5.01,12.54c-.98,1.66-2.93,2.89-5.44,2.89-3.23,0-5.31-2.42-5.31-5.86,0-3.91,2.25-6.71,5.44-6.71,3.91,0,5.65,3.61,5.65,8.33,0,.59-.13,1.02-.34,1.36Z"/><polygon points="277.14 21.65 288.28 21.65 288.28 18.59 277.14 18.59 277.14 9.54 288.91 9.54 288.91 6.43 273.44 6.43 273.44 35.08 289.55 35.08 289.55 31.97 277.14 31.97 277.14 21.65"/><path d="m306.51,19.74v-.08c3.02-1.1,4.84-3.53,4.84-6.29,0-2.25-.89-3.95-2.38-5.06-1.78-1.44-4.16-2.08-7.86-2.08-2.59,0-5.14.25-6.76.59v28.17c1.23.17,3.19.34,5.74.34,4.67,0,7.9-.85,9.9-2.68,1.44-1.4,2.42-3.27,2.42-5.74,0-4.25-3.19-6.5-5.91-7.18Zm-8.46-10.41c.6-.13,1.57-.25,3.27-.25,3.74,0,6.29,1.32,6.29,4.67,0,2.76-2.29,4.8-6.2,4.8h-3.36v-9.22Zm3.1,23.12c-1.32,0-2.38-.04-3.1-.17v-10.92h3.06c4.04,0,7.39,1.61,7.39,5.52,0,4.16-3.53,5.57-7.35,5.57Z"/><polygon points="317.39 35.08 321.08 35.08 321.08 22.12 331.92 22.12 331.92 19.06 321.08 19.06 321.08 9.54 332.81 9.54 332.81 6.43 317.39 6.43 317.39 35.08"/><polygon points="353.51 9.54 353.51 6.43 338.08 6.43 338.08 35.08 341.78 35.08 341.78 22.12 352.62 22.12 352.62 19.06 341.78 19.06 341.78 9.54 353.51 9.54"/><path d="m12.15,19.74v-.08c3.02-1.1,4.84-3.53,4.84-6.29,0-2.25-.89-3.95-2.38-5.06-1.78-1.44-4.16-2.08-7.86-2.08-2.59,0-5.14.25-6.76.59v28.17c1.23.17,3.19.34,5.74.34,4.67,0,7.9-.85,9.9-2.68,1.44-1.4,2.42-3.27,2.42-5.74,0-4.25-3.19-6.5-5.91-7.18ZM3.7,9.32c.6-.13,1.57-.25,3.27-.25,3.74,0,6.29,1.32,6.29,4.67,0,2.76-2.29,4.8-6.2,4.8h-3.36v-9.22Zm3.1,23.12c-1.32,0-2.38-.04-3.1-.17v-10.92h3.06c4.04,0,7.39,1.61,7.39,5.52,0,4.16-3.53,5.57-7.35,5.57Z"/><path d="m35.4,23.01h5.82v8.54c-.85.43-2.51.77-4.93.77-6.67,0-11.05-4.29-11.05-11.56s4.55-11.52,11.52-11.52c2.89,0,4.8.55,6.33,1.23l.89-3.02c-1.23-.6-3.82-1.32-7.14-1.32-9.6,0-15.47,6.25-15.51,14.79,0,4.46,1.53,8.29,3.99,10.67,2.8,2.68,6.37,3.78,10.71,3.78,3.87,0,7.14-.98,8.8-1.57v-13.77h-9.43v2.97Z"/><path d="m72.88,9.07c2.38,0,4.38.51,5.78,1.19l.89-3.02c-.98-.51-3.23-1.27-6.8-1.27-8.88,0-14.96,6.08-14.96,15.04s6.08,14.49,14.15,14.49c3.48,0,6.2-.68,7.56-1.36l-.76-2.93c-1.49.72-3.78,1.19-6.03,1.19-6.97,0-11.01-4.5-11.01-11.52,0-7.52,4.46-11.81,11.18-11.81Z"/><path d="m92.26,14.04c-5.69,0-10.2,4.04-10.2,10.92,0,6.5,4.29,10.58,9.86,10.58,4.97,0,10.24-3.31,10.24-10.92,0-6.29-3.99-10.58-9.9-10.58Zm-.17,18.7c-3.65,0-6.25-3.4-6.25-7.9,0-3.91,1.91-7.99,6.33-7.99s6.16,4.42,6.16,7.9c0,4.63-2.68,7.99-6.25,7.99Z"/><rect x="106.88" y="4.9" width="3.74" height="30.17"/><path d="m125.62,14.04c-5.69,0-10.2,4.04-10.2,10.92,0,6.5,4.29,10.58,9.86,10.58,4.97,0,10.24-3.31,10.24-10.92,0-6.29-3.99-10.58-9.9-10.58Zm-.17,18.7c-3.65,0-6.25-3.4-6.25-7.9,0-3.91,1.91-7.99,6.33-7.99s6.16,4.42,6.16,7.9c0,4.63-2.68,7.99-6.25,7.99Z"/><path d="m143.64,18.55h-.17l-.13-4.04h-3.27c.13,1.91.17,3.99.17,6.42v14.15h3.7v-10.96c0-.64.08-1.23.17-1.74.51-2.8,2.38-4.8,5.01-4.8.51,0,.89.04,1.27.13v-3.53c-.34-.08-.64-.13-1.06-.13-2.51,0-4.76,1.74-5.69,4.5Z"/></svg>