<?xml version="1.0" encoding="UTF-8"?><svg id="Layer_1" xmlns="http://www.w3.org/2000/svg" viewBox="0 0 81.72 18.55"><defs><style>.cls-1{fill:#f57e25;}</style></defs><path class="cls-1" d="m42.05,11.12c0,.31-.03.61-.09.89s-.15.56-.26.84c-.12.28-.26.56-.44.83-.18.28-.38.57-.62.88-.14.17-.28.33-.42.49-.14.16-.28.31-.42.44s-.27.26-.4.37c-.13.11-.25.2-.35.27-.21.15-.48.3-.81.44s-.71.29-1.12.42c-.4.13-.8.23-1.18.3-.38.07-.74.1-1.07.1s-.64-.03-.91-.09c-.27-.06-.5-.16-.69-.29-.19-.13-.33-.29-.43-.49-.1-.2-.15-.43-.15-.71,0-.18.04-.33.12-.48.08-.14.18-.26.32-.37.13-.1.29-.18.47-.23.18-.05.37-.08.57-.08.12,0,.23,0,.32.01s.17.02.25.04.15.05.23.08c.07.03.16.07.26.12.31.14.55.21.72.21.08,0,.2-.01.35-.04s.3-.07.45-.12.31-.1.45-.16c.14-.06.25-.11.33-.17.25-.18.51-.39.77-.65.26-.26.5-.53.71-.83.21-.3.38-.6.52-.91.13-.31.2-.6.2-.87,0-.23-.05-.43-.15-.62-.1-.18-.23-.34-.39-.49-.16-.14-.33-.27-.53-.37-.2-.1-.38-.19-.57-.25-.18-.06-.35-.11-.51-.15-.16-.03-.28-.05-.36-.05-.23,0-.43,0-.6.02-.16.02-.31.04-.43.07s-.25.07-.36.11c-.11.05-.24.1-.37.16-.16.07-.29.12-.4.16-.11.03-.22.05-.34.05-.16,0-.31-.03-.45-.08-.14-.05-.25-.13-.35-.22-.09-.09-.17-.2-.22-.31-.05-.12-.08-.23-.08-.35,0-.21.03-.41.1-.59s.16-.33.28-.45.25-.23.4-.31c.15-.08.31-.14.47-.17.09-.02.19-.03.31-.04.11,0,.22-.01.33-.01.11,0,.2,0,.28,0s.13,0,.15,0c.14-.08.31-.19.51-.32.2-.13.41-.27.62-.43.21-.16.43-.33.64-.5s.41-.35.58-.52.31-.34.42-.49c.1-.16.16-.29.16-.41,0-.24-.11-.42-.33-.54-.22-.12-.58-.18-1.07-.18-.39,0-.83.04-1.33.12s-.99.19-1.46.34c-.2.07-.4.14-.61.23-.2.09-.39.19-.57.29-.18.1-.34.21-.48.33-.14.12-.26.23-.35.35-.02.03-.04.09-.05.2-.01.1-.02.25-.03.45,0,.2-.01.44-.02.74,0,.3-.02.66-.04,1.08-.01.27-.02.5-.03.67s-.02.34-.03.5c-.01.16-.03.32-.05.49-.02.17-.05.39-.08.65-.05.37-.1.73-.14,1.06-.04.34-.06.63-.06.89v1.79c0,.64-.12,1.12-.36,1.41-.24.3-.6.44-1.06.44-.25,0-.45-.04-.62-.14-.16-.09-.29-.23-.39-.41-.09-.18-.16-.41-.2-.68-.04-.27-.05-.59-.05-.95,0,0,0-.08.03-.22.02-.14.04-.32.07-.53.03-.21.06-.44.1-.7.04-.25.07-.49.1-.72.03-.23.06-.43.08-.61.02-.18.04-.3.04-.36,0-.03.02-.12.03-.3.02-.17.04-.38.06-.62.03-.24.05-.51.08-.79.03-.28.05-.54.08-.79.03-.25.05-.46.07-.63s.03-.28.03-.31c.06-.5.09-.8.09-.9,0-.07,0-.15-.02-.24-.01-.09-.03-.18-.04-.28-.02-.09-.03-.18-.04-.25-.01-.07-.02-.12-.02-.15,0-.25.02-.49.07-.71.04-.22.12-.43.22-.62.26-.5.54-.77.84-.81.19-.03.38-.06.56-.11s.36-.1.52-.15c.81-.26,1.46-.47,1.93-.63.47-.16.78-.27.93-.31.2-.06.39-.11.6-.15.2-.04.42-.07.64-.1.23-.02.48-.04.75-.05.27,0,.57-.01.91-.01.21,0,.44.04.69.11.25.07.49.17.73.29.23.12.45.27.65.43.2.17.35.34.45.53.04.08.09.18.13.3.04.12.08.25.12.38.04.13.06.26.08.39s.03.24.03.34c0,.5-.19,1-.58,1.52-.39.52-.95,1.09-1.69,1.71.44.14.86.32,1.26.55.4.23.75.49,1.04.78.3.29.54.61.71.94s.26.67.26,1.01Z"/><path class="cls-1" d="m58.76,9.86c0,.08-.01.17-.04.28s-.07.21-.11.32c-.05.11-.1.21-.15.31-.06.1-.11.19-.16.26-.03.05-.08.11-.16.19-.07.08-.15.17-.24.27-.09.1-.19.21-.31.33-.11.12-.23.23-.35.35-.38.35-.76.7-1.15,1.04-.39.34-.79.64-1.22.91-.42.26-.87.48-1.33.64-.46.16-.95.24-1.47.24-.22,0-.45-.05-.67-.15-.23-.1-.44-.23-.63-.4-.2-.17-.37-.37-.51-.61-.15-.24-.25-.49-.31-.77-.12.2-.27.41-.46.63-.19.22-.4.45-.62.67-.22.22-.46.43-.7.63-.24.2-.47.37-.67.51-.14.1-.32.2-.52.3-.21.1-.42.2-.65.29-.23.09-.46.16-.69.21-.23.06-.44.08-.64.08-.31,0-.59-.09-.82-.27-.23-.18-.43-.4-.58-.66-.15-.26-.27-.54-.34-.83-.08-.29-.11-.56-.11-.79,0-.43.06-.87.19-1.31.13-.45.29-.88.49-1.3.2-.42.42-.83.66-1.21.24-.38.48-.73.72-1.03.25-.31.54-.62.89-.93.34-.31.71-.59,1.08-.83.38-.24.75-.44,1.12-.59.37-.15.69-.22.98-.22.16,0,.32,0,.48.01s.33.02.49.04c.16.02.32.05.47.09.15.04.28.09.4.15.08.05.16.15.26.28.09.13.18.28.26.43.08.15.15.3.21.45.06.15.09.27.09.35,0,.18-.03.4-.08.65-.06.25-.12.51-.19.79s-.13.55-.19.84c-.06.29-.09.56-.09.82,0,.18.03.37.08.56.05.19.13.36.22.51.1.15.21.28.35.38s.29.15.46.15c.38,0,.76-.07,1.14-.21.38-.14.75-.34,1.13-.59.38-.25.75-.55,1.13-.89.38-.34.76-.71,1.14-1.11.01,0,.06-.05.16-.15.09-.1.2-.21.33-.32s.26-.22.4-.32c.14-.1.26-.15.37-.15.19,0,.31.06.37.17.06.11.09.28.09.51Zm-8.88-1.01c0-.06-.01-.13-.03-.21-.02-.08-.05-.15-.09-.22-.04-.07-.08-.13-.12-.18-.05-.05-.09-.07-.13-.07-.43,0-.82.12-1.18.35-.36.23-.72.55-1.11.94-.21.21-.44.5-.69.87-.24.37-.47.75-.68,1.16-.21.41-.38.82-.52,1.23s-.21.77-.21,1.08c0,.08,0,.16.01.23,0,.08.03.14.06.2s.07.11.12.15c.05.04.12.06.21.06.25,0,.53-.08.84-.24.31-.16.63-.37.94-.62.32-.26.62-.55.92-.89.3-.33.54-.68.75-1.03.25-.43.46-.88.63-1.35s.26-.96.26-1.46Z"/><path class="cls-1" d="m69.61,9.69c0,.13-.02.24-.05.34-.04.09-.09.19-.17.28-.08.09-.17.2-.29.31-.12.11-.26.25-.43.42l-.86.86c-.18.18-.34.34-.48.46-.14.12-.27.24-.4.35s-.26.22-.4.33c-.14.11-.3.25-.5.42-.42.36-.84.69-1.25,1.01s-.81.59-1.2.84c-.59.37-1.21.66-1.88.86-.67.2-1.38.3-2.13.3-.49,0-.92-.09-1.3-.27-.38-.18-.7-.42-.96-.72-.26-.3-.46-.66-.59-1.06-.13-.41-.2-.83-.2-1.28,0-.85.18-1.71.54-2.57.36-.86.85-1.71,1.47-2.54.16-.21.34-.43.55-.65.21-.23.43-.43.67-.62s.47-.34.72-.46c.25-.12.49-.18.72-.18.16,0,.31.04.45.13s.29.21.43.36c.14.15.27.32.4.52.12.2.24.41.34.64.21.46.31.79.31,1,0,.11-.01.25-.03.41-.02.16-.07.31-.13.45-.06.14-.15.27-.25.37-.1.1-.24.15-.4.15-.24,0-.44-.08-.6-.23-.16-.15-.29-.33-.39-.53-.1-.2-.19-.4-.25-.6-.06-.2-.12-.33-.17-.42-.16.06-.32.17-.49.34-.17.17-.34.38-.51.62-.17.25-.33.53-.48.83-.15.31-.28.64-.4.99-.11.35-.21.71-.27,1.07-.07.37-.1.73-.1,1.08,0,.33.12.62.36.87.27.27.53.41.76.41.74,0,1.46-.14,2.14-.41.69-.27,1.35-.64,1.99-1.09.43-.31.88-.65,1.35-1.03s.98-.84,1.54-1.37c.2-.2.41-.38.61-.56.21-.18.41-.34.61-.47.2-.14.39-.25.57-.33.18-.08.35-.13.5-.13.34,0,.51.18.51.54Z"/><path class="cls-1" d="m81.72,12.22c0,.07-.09.23-.27.47-.18.24-.43.52-.73.84-.31.32-.66.65-1.05,1.01-.39.35-.81.68-1.24.97-.43.3-.86.54-1.28.73-.43.19-.83.29-1.2.29-.29,0-.57-.04-.82-.11-.25-.07-.5-.17-.73-.28-.23-.12-.45-.25-.66-.42-.21-.16-.42-.33-.61-.5s-.39-.36-.59-.56-.38-.39-.56-.57c-.18-.19-.35-.36-.51-.52-.16-.16-.31-.3-.44-.41-.24.24-.44.45-.59.62-.15.17-.27.33-.36.47s-.15.29-.18.44c-.03.15-.05.32-.05.53,0,.31-.01.56-.04.76-.03.2-.09.37-.17.49-.08.12-.21.21-.36.26s-.36.07-.62.07c-.2,0-.35-.02-.47-.05-.12-.04-.21-.09-.27-.17-.06-.08-.1-.18-.12-.3-.02-.12-.03-.27-.03-.44s.01-.36.03-.56c.02-.21.05-.42.08-.63.03-.21.07-.42.1-.63.04-.21.07-.39.09-.56,0-.03.02-.14.04-.32.02-.18.05-.41.08-.68.03-.27.07-.58.12-.92.04-.34.09-.69.13-1.04.04-.35.08-.69.13-1.03.04-.33.08-.64.11-.9.03-.27.06-.48.08-.65.02-.17.03-.26.03-.28.05-.4.1-.8.15-1.22.05-.41.09-.82.14-1.23.04-.41.08-.81.11-1.2.03-.39.05-.76.07-1.11,0-.15.04-.31.09-.47.05-.17.13-.32.23-.45.1-.14.22-.25.37-.34s.32-.13.51-.13c.27,0,.48.04.63.13.15.08.27.19.35.31.08.12.13.24.15.37s.03.23.03.32c0,.11-.01.27-.04.48-.03.21-.06.44-.09.7-.04.26-.08.53-.12.81-.05.28-.09.54-.13.78-.04.24-.08.46-.11.64-.03.18-.06.31-.07.38-.13.76-.24,1.36-.32,1.82-.08.46-.15.81-.19,1.06-.07.35-.12.64-.16.88s-.07.44-.1.61c-.03.17-.05.33-.07.46-.02.13-.05.28-.08.42.21-.27.43-.54.67-.83.24-.29.47-.57.71-.85s.46-.55.67-.82c.21-.26.4-.5.56-.71.15-.21.33-.45.56-.74.22-.28.47-.55.74-.81.27-.25.56-.47.86-.65.3-.18.61-.27.91-.27.19,0,.34.03.47.1.12.07.22.15.29.24.07.1.12.2.15.32.03.11.04.22.04.32,0,.16-.07.35-.22.55-.15.2-.33.41-.54.62-.21.21-.44.42-.68.63-.24.21-.46.4-.64.59-.49.47-.91.9-1.27,1.28-.36.38-.7.76-1,1.12.17.12.35.27.55.45.2.18.4.37.61.57.21.2.43.39.65.59.22.2.44.37.65.52.23.16.42.28.56.37s.28.15.4.2c.12.04.23.07.34.08.11,0,.24.01.38.01.18,0,.39-.04.61-.12s.46-.18.69-.31c.24-.13.48-.28.72-.44.24-.16.48-.33.7-.51s.43-.35.63-.52c.2-.17.36-.32.51-.46.17-.16.31-.28.42-.38.11-.1.23-.15.36-.15.1,0,.18.03.24.09.06.06.12.12.16.2.04.07.07.14.08.21.02.07.02.1.02.12Z"/><path class="cls-1" d="m.13,8.79c.9-.41,4.28-2.22,5.19-2.63.94-.45.94-.38,1.88-.83.94-.41.94-.45,1.85-.9q.94-.41,1.88-.83c.94-.45.94-.41,1.88-.87.94-.41.9-.49,1.85-.9.94-.45.94-.38,1.88-.83.94-.41.9-.53,1.85-.94.19-.08.38-.04.53-.04.57,0,1.02.41,1.02,1.09,0,1.47-.04,1.47-.04,2.94,0,1.02-.08,1.02-.08,2.04s-.04,1.06-.04,2.07c0,1.06.04,1.06.04,2.07,0,1.06,0,1.01,0,2.03,0,1.06.07,1.13.07,2.15,0,1.47,0,1.64.04,3.15,0,.72-.45,1-1.06,1-.15,0-.3-.04-.49-.11-.94-.41-.9-.45-1.85-.87-.94-.45-.98-.38-1.88-.79-1.77-.87-3.81-1.88-5.62-2.68-.94-.45-.9-.49-1.85-.94-.94-.41-.9-.45-1.85-.87-.94-.45-4.31-2.04-5.22-2.45-.17-.09-.19-.97,0-1.06Z"/></svg>