<?xml version="1.0" encoding="UTF-8"?><svg id="Layer_1" xmlns="http://www.w3.org/2000/svg" viewBox="0 0 37.85 28.49"><defs><style>.cls-1{fill:#f57e25;}.cls-2{fill:#f7941d;}</style></defs><path class="cls-2" d="m12.67,14.52L.85,2.7c-.31-.31-.85-.09-.85.35v22.92c0,.45.54.67.85.35l11.81-11.81Z"/><path class="cls-1" d="m20.54,16L35.69.85c.31-.31.09-.85-.35-.85H2.51c-.45,0-.67.54-.35.85l15.15,15.15c.9.9,2.35.9,3.24,0Z"/><path class="cls-2" d="m25.18,14.52l11.81,11.81c.31.31.85.09.85-.35V3.06c0-.45-.54-.67-.85-.35l-11.81,11.81Z"/><path class="cls-2" d="m23.88,15.82l-2.03,2.03c-.81.81-1.86,1.21-2.92,1.21s-2.12-.4-2.92-1.21l-2.03-2.03L2.16,27.63c-.31.31-.09.85.35.85h32.83c.45,0,.67-.54.35-.85l-11.81-11.81Z"/></svg>