<?xml version="1.0" encoding="UTF-8"?><svg id="Layer_1" xmlns="http://www.w3.org/2000/svg" viewBox="0 0 40.95 28.49"><defs><style>.cls-1{fill:#3871b7;}</style></defs><path class="cls-1" d="m38.18,22.94H2.77c-1.53,0-2.77,1.24-2.77,2.77s1.24,2.77,2.77,2.77h35.4c1.53,0,2.77-1.24,2.77-2.77s-1.24-2.77-2.77-2.77Z"/><path class="cls-1" d="m2.77,17.02h35.4c1.53,0,2.77-1.24,2.77-2.77s-1.24-2.77-2.77-2.77H2.77c-1.53,0-2.77,1.24-2.77,2.77s1.24,2.77,2.77,2.77Z"/><path class="cls-1" d="m2.77,5.54h35.4c1.53,0,2.77-1.24,2.77-2.77s-1.24-2.77-2.77-2.77H2.77C1.24,0,0,1.24,0,2.77s1.24,2.77,2.77,2.77Z"/></svg>