<?xml version="1.0" encoding="UTF-8"?><svg id="Layer_1" xmlns="http://www.w3.org/2000/svg" viewBox="0 0 77.69 18.57"><defs><style>.cls-1{fill:#3871b7;}.cls-2{fill:#265c91;}</style></defs><path class="cls-1" d="m.42,13.28c.08-.29.17-.65.27-1.1.1-.45.21-.93.32-1.45.11-.52.22-1.06.33-1.63.11-.57.21-1.12.3-1.66.09-.54.17-1.04.24-1.5s.12-.86.14-1.19v-.54c0-.12.02-.26.05-.42.04-.17.1-.33.21-.48.1-.15.24-.28.42-.39.18-.1.42-.16.72-.16.24,0,.44.05.59.14.15.09.28.22.39.39.1.17.19.36.26.6.07.23.15.49.22.78.07.27.2.6.37.99s.39.83.64,1.3c.25.48.53.98.85,1.51.32.53.65,1.07,1,1.61s.71,1.07,1.09,1.6c.37.53.75,1.02,1.12,1.48.08-.35.17-.71.25-1.1.08-.39.16-.78.23-1.18.07-.4.15-.79.21-1.17s.13-.73.19-1.06c.05-.33.1-.62.15-.87.04-.25.08-.45.1-.59.09-.53.17-1,.25-1.41.07-.4.14-.78.19-1.13s.09-.7.11-1.04c.03-.34.04-.71.04-1.11,0-.1,0-.22.03-.34s.05-.24.08-.36c.04-.12.08-.23.14-.33.05-.1.12-.19.18-.24.12-.11.22-.2.32-.25s.19-.1.28-.13.18-.04.27-.05c.09,0,.19,0,.3,0,.23,0,.42.05.55.16.13.11.23.25.3.42s.11.35.13.55c.02.2.02.39.02.58,0,.06-.01.17-.04.32-.03.16-.06.33-.09.53-.04.2-.08.39-.12.6-.05.2-.09.38-.13.53-.27,1.04-.51,2.02-.71,2.94-.2.92-.37,1.79-.52,2.6s-.27,1.56-.37,2.26c-.1.69-.19,1.32-.26,1.89,0,.08-.01.16-.02.23s-.02.15-.02.24c0,.09,0,.19,0,.31,0,.12,0,.26,0,.44,0,.34-.05.6-.16.79s-.24.32-.4.41c-.16.09-.33.14-.51.16-.18.02-.34.02-.47.02-.28,0-.5-.06-.67-.18-.17-.12-.33-.29-.47-.51s-.3-.48-.46-.78c-.16-.3-.37-.62-.64-.98-.73-.99-1.47-2.05-2.22-3.17-.75-1.12-1.51-2.38-2.29-3.77-.12.58-.24,1.19-.34,1.82-.1.63-.2,1.26-.29,1.88s-.17,1.21-.23,1.78-.13,1.07-.19,1.52c0,.17-.01.35-.03.56-.02.2-.05.39-.08.57s-.06.33-.09.46-.05.21-.06.24c-.03.08-.09.18-.16.29-.08.12-.16.23-.26.34-.1.11-.21.2-.34.27s-.26.11-.4.11c-.25,0-.46-.04-.62-.11s-.28-.18-.37-.31c-.09-.14-.15-.31-.19-.51-.03-.21-.05-.44-.05-.71,0-.11.01-.26.03-.43.02-.18.05-.38.09-.59s.08-.43.14-.66c.05-.22.1-.43.16-.63Z"/><path class="cls-1" d="m28.9,9.67c0,.12-.09.33-.26.64-.34.49-.71.97-1.13,1.45-.41.48-.85.93-1.32,1.36s-.96.83-1.46,1.2-1.02.69-1.54.95c-.52.27-1.04.48-1.56.63s-1.02.23-1.52.23c-1.11,0-1.98-.31-2.6-.94-.62-.63-.93-1.58-.93-2.85,0-.51.04-1.01.11-1.5.07-.49.19-.98.36-1.46s.38-.95.65-1.41c.27-.46.6-.91.99-1.35.14-.16.31-.32.5-.47.19-.15.4-.28.62-.4.22-.12.45-.21.68-.28.24-.07.47-.11.71-.11.34,0,.64.06.89.2.25.13.46.3.62.52.16.22.28.47.36.75s.12.58.12.89c0,.58-.21,1.18-.64,1.8s-1.03,1.26-1.79,1.91c-.25.21-.53.43-.86.68-.33.24-.69.52-1.09.83.01.16.06.32.14.46.08.14.19.27.33.38.14.11.31.19.5.25s.42.09.66.09c.32,0,.66-.04,1.02-.12.36-.08.71-.19,1.06-.33s.69-.29,1.03-.47.63-.37.91-.56c.48-.35.95-.72,1.39-1.12.45-.4.88-.81,1.29-1.23l.52-.52c.36-.32.66-.48.92-.48.13,0,.22.04.27.13s.07.16.07.23Zm-7.62-1.8c0-.14-.01-.28-.04-.41s-.08-.21-.14-.24c-.22,0-.46.09-.71.28-.25.19-.49.46-.72.81-.23.35-.43.77-.61,1.26-.18.49-.31,1.04-.4,1.64.31-.23.61-.47.92-.72.31-.25.59-.51.84-.79.25-.27.46-.56.62-.86.16-.3.24-.62.24-.96Z"/><path class="cls-1" d="m42.52,9.4c0,.14-.06.33-.18.57s-.27.5-.45.78c-.18.28-.39.58-.62.89-.23.31-.46.61-.69.9-.23.29-.45.55-.65.79-.2.24-.37.44-.51.59-.25.28-.53.55-.84.81-.31.26-.63.49-.97.69s-.7.36-1.08.47c-.38.12-.77.18-1.17.18-.27,0-.54-.05-.82-.15-.28-.1-.57-.24-.87-.42-.3-.18-.61-.4-.94-.66-.33-.26-.66-.55-1.02-.86-.2.18-.38.36-.54.57-.16.2-.31.4-.44.6-.13.2-.25.39-.34.58-.09.19-.17.35-.23.48-.07.16-.14.35-.23.59-.09.23-.18.46-.25.66-.14.44-.32.82-.56,1.12-.59-.03-1.05-.16-1.38-.41-.33-.25-.49-.62-.49-1.1,0-.18.03-.38.1-.59.06-.21.15-.42.25-.62.1-.21.22-.41.36-.62s.28-.39.42-.56c.15-.18.39-.44.73-.77.34-.33.73-.71,1.18-1.12-.12-.14-.25-.29-.39-.45-.14-.16-.28-.33-.42-.49s-.26-.33-.38-.48c-.11-.15-.2-.29-.27-.41-.29-.52-.5-.96-.62-1.31s-.18-.67-.18-.96c0-.18.02-.34.07-.5s.13-.3.24-.42c.11-.12.25-.22.43-.29.18-.07.4-.11.66-.11.23,0,.42.05.55.15.13.1.24.22.31.36.07.14.12.29.15.44.03.15.04.29.06.41.05.44.13.79.25,1.07.11.28.23.51.34.7.07.13.17.28.3.44.13.17.25.31.36.43.19-.19.38-.39.58-.62.2-.22.39-.44.56-.64.2-.22.37-.48.54-.77.16-.29.31-.61.44-.95.09-.2.18-.35.26-.48.08-.12.18-.22.27-.3s.21-.13.33-.16c.12-.03.25-.04.41-.04s.29.03.43.09c.14.06.26.15.37.26s.2.25.26.4.1.31.1.49c0,.14-.04.3-.13.47s-.21.35-.35.54-.31.4-.49.61c-.18.21-.37.44-.56.67-.19.24-.43.5-.71.79-.29.28-.58.58-.88.9.18.16.38.32.62.49s.48.32.73.46.5.26.74.35c.24.09.45.14.63.14.42,0,.89-.15,1.42-.46.53-.31,1.08-.77,1.67-1.39.24-.25.49-.54.76-.85s.56-.68.89-1.11c.68-.87,1.13-1.31,1.35-1.31.16,0,.28.04.37.12.08.08.12.19.12.32Z"/><path class="cls-1" d="m51.07,7.89c0,.12-.03.24-.08.34-.05.1-.12.19-.2.27s-.17.15-.26.22c-.09.06-.18.12-.27.18-.29.13-.61.24-.94.34-.34.1-.67.18-1,.25s-.66.13-.97.17c-.32.05-.61.08-.87.12-.18.02-.37.04-.57.06-.2.02-.39.04-.58.06-.19.02-.37.04-.53.06-.16.02-.3.04-.42.06-.14.55-.28,1.08-.41,1.59s-.24.99-.33,1.44c-.01.08-.03.19-.06.32-.03.14-.05.29-.08.45s-.06.33-.08.51c-.03.18-.05.35-.07.51-.02.16-.04.3-.05.43-.01.13-.02.22-.02.29,0,.23.04.39.11.48.07.09.14.17.21.23.13.1.24.21.33.3s.13.23.13.4c0,.13-.05.25-.14.37-.09.11-.21.21-.34.3s-.28.15-.44.21-.3.08-.44.08c-.23,0-.45-.06-.63-.17-.19-.11-.35-.27-.49-.45s-.24-.4-.31-.64c-.07-.24-.11-.49-.11-.74,0-.43.03-.9.1-1.42.06-.51.16-1.03.28-1.55.05-.23.11-.48.17-.75.06-.27.12-.53.17-.78.05-.25.1-.47.14-.66s.06-.32.08-.39c-.14,0-.33.03-.59.06-.26.03-.56.05-.91.05-.29,0-.54-.02-.74-.05-.2-.04-.37-.1-.5-.2-.13-.1-.22-.23-.28-.4s-.09-.39-.09-.66c0-.16.05-.28.17-.38.11-.09.25-.17.41-.21.16-.05.33-.08.51-.1s.33-.02.47-.02c.06,0,.18,0,.34-.02.16-.02.34-.03.53-.05.19-.02.38-.03.56-.05.18-.02.32-.02.42-.02.03,0,.07-.06.12-.19s.1-.28.15-.48c.05-.2.11-.41.16-.65.05-.24.11-.47.16-.7.05-.23.1-.44.14-.64.04-.2.08-.35.1-.46.07-.27.13-.58.18-.92s.12-.66.22-.96.24-.56.42-.76c.18-.21.43-.31.77-.31.35,0,.61.08.78.23.17.15.25.41.25.76,0,.16-.01.35-.04.58s-.08.44-.15.66c-.16.5-.29.97-.4,1.41-.11.44-.2.82-.27,1.14s-.13.67-.19,1.03c.27,0,.52,0,.77,0s.49,0,.75-.02.52-.02.8-.04c.28-.02.58-.05.9-.09.38-.05.7-.09.96-.14.26-.05.49-.09.69-.13.2-.04.38-.07.54-.1.16-.03.33-.04.51-.04.09,0,.18.02.26.07.08.05.12.16.12.35Z"/><path class="cls-2" d="m77.56,8.79c-.9-.41-4.28-2.22-5.19-2.63-.94-.45-.94-.38-1.88-.83-.94-.41-.94-.45-1.85-.9q-.94-.41-1.88-.83c-.94-.45-.94-.41-1.88-.87-.94-.41-.9-.49-1.85-.9-.94-.45-.94-.38-1.88-.83-.94-.41-.9-.53-1.85-.94-.19-.08-.38-.04-.53-.04-.57,0-1.02.41-1.02,1.09,0,1.47.04,1.47.04,2.94,0,1.02.08,1.02.08,2.04s.04,1.06.04,2.07-.04,1.06-.04,2.07c0,1.06,0,1.01,0,2.03s-.07,1.13-.07,2.15c0,1.47,0,1.64-.04,3.15,0,.72.45,1,1.06,1,.15,0,.3-.04.49-.11.94-.41.9-.45,1.85-.87.94-.45.98-.38,1.88-.79,1.77-.87,3.81-1.88,5.62-2.68.94-.45.9-.49,1.85-.94.94-.41.9-.45,1.85-.87.94-.45,4.31-2.04,5.22-2.45.17-.09.19-.97,0-1.06Z"/></svg>