<?xml version="1.0" encoding="UTF-8"?><svg id="Layer_1" xmlns="http://www.w3.org/2000/svg" viewBox="0 0 167.55 221.27"><defs><style>.cls-1{fill:#3871b7;}</style></defs><path class="cls-1" d="m24.23,6.18c0,.95-.37,1.9-1.12,2.83-.68.86-1.57,1.66-2.68,2.4-.49.33-1.02.66-1.59.96-.57.31-1.14.59-1.71.85-.57.26-1.11.49-1.62.68-.51.19-.98.36-1.42.49-.3.1-.64.22-.99.36-.36.14-.77.34-1.24.59-.21.11-.42.2-.65.27-.22.07-.43.13-.63.17-.2.04-.37.08-.53.09-.16.02-.27.03-.33.03-.45,0-.83-.13-1.15-.38-.32-.25-.53-.59-.62-1-.07-.31-.13-.58-.16-.79-.03-.22-.05-.38-.05-.49,0-.04,0-.11.02-.19.01-.09.03-.17.04-.26.01-.09.03-.18.04-.27s.02-.16.02-.21c0-.08,0-.18.02-.29.01-.11.03-.23.04-.35s.04-.24.06-.36c.02-.12.04-.23.05-.32.19-1,.36-2.01.51-3.04.15-1.03.33-2.08.56-3.16.02-.1.05-.22.08-.35.03-.13.06-.25.09-.38.03-.13.06-.25.08-.37s.03-.21.03-.28c0-.13-.03-.21-.08-.25s-.13-.09-.23-.16c-.1-.08-.19-.15-.27-.22-.08-.06-.14-.13-.18-.19-.05-.06-.08-.13-.11-.21-.02-.07-.03-.16-.03-.27,0-.16.04-.34.13-.53.08-.19.2-.36.35-.52.14-.16.31-.29.5-.4.19-.11.39-.16.6-.16.16,0,.36,0,.61.03s.51.04.76.07c.25.03.48.05.69.07.2.02.34.03.4.03.54,0,1.15-.02,1.83-.07.68-.04,1.36-.07,2.04-.07.97,0,1.88.09,2.73.28s1.62.49,2.32.89c.16.09.33.2.51.32.19.13.38.28.57.46.19.18.38.4.57.65.19.25.37.56.53.91.19.42.34.8.45,1.17.11.36.16.67.16.93Zm-2.72,0c0-.49-.09-.91-.28-1.25-.19-.35-.44-.64-.75-.88s-.66-.42-1.05-.56c-.39-.13-.8-.23-1.21-.3-.5-.08-1-.14-1.49-.18-.5-.04-1-.06-1.52-.06-.22,0-.45,0-.7.03s-.51.04-.77.07c-.27.03-.54.05-.81.08-.27.03-.54.04-.8.05-.13.64-.25,1.28-.37,1.91-.12.64-.24,1.23-.34,1.77-.1.55-.19,1.03-.27,1.44-.07.42-.12.72-.14.92-.06.42-.12.86-.17,1.32-.06.46-.08.88-.08,1.25,0,.19,0,.35.02.49.01.14.04.28.08.4.68-.12,1.41-.31,2.16-.56.76-.26,1.6-.54,2.53-.85.49-.16.95-.33,1.39-.5.43-.17.83-.34,1.18-.51.35-.17.66-.33.92-.49.26-.16.47-.31.63-.45.05-.04.13-.13.24-.26.11-.13.23-.28.37-.46.14-.18.28-.37.42-.59.15-.21.28-.43.4-.65.12-.22.22-.43.29-.64.08-.21.12-.39.12-.55Z"/><path class="cls-1" d="m36.86,10.55c-.5,1.74-1.44,3.21-2.84,4.4-1.39,1.19-2.79,1.79-4.18,1.79-1.1,0-2.01-.4-2.72-1.21s-1.07-1.8-1.07-2.97c0-1.92.65-3.81,1.96-5.67,1.31-1.86,2.9-2.79,4.76-2.79,1.27,0,2.3.47,3.09,1.41s1.18,2.06,1.18,3.36c0,.57-.06,1.12-.19,1.66h0Zm-5.8-3.52c-.52.46-1.03,1.2-1.53,2.21-.5,1.01-.75,2.03-.75,3.04,0,.62.11,1.13.34,1.53.23.4.53.6.9.6.92,0,1.88-.55,2.88-1.64,1-1.09,1.49-2.32,1.49-3.68,0-.77-.16-1.4-.49-1.89-.32-.49-.77-.74-1.35-.74s-1.04.19-1.48.57h-.01Z"/><path class="cls-1" d="m60.29,6.32c0,.16-.01.39-.03.69-.02.29-.05.6-.07.93-.03.33-.05.65-.08.95-.03.31-.04.56-.05.75-.02.48-.06.97-.12,1.48-.06.51-.12,1.03-.2,1.54-.08.52-.17,1.03-.27,1.54-.1.51-.21,1-.32,1.46-.09.37-.19.75-.31,1.13-.12.38-.25.76-.4,1.13-.14.37-.3.72-.47,1.07s-.35.66-.54.95c-.79,1.21-1.91,1.82-3.37,1.82-.91,0-1.82-.17-2.71-.52-.31-.12-.64-.27-.98-.47-.34-.19-.65-.4-.92-.61-.27-.22-.5-.44-.68-.66s-.27-.44-.27-.64c0-.13.01-.27.03-.41s.06-.26.12-.37c.06-.11.14-.2.24-.27.1-.07.23-.11.4-.11.12,0,.22.03.31.08.09.05.17.12.26.2.28.3.57.55.87.76.3.21.61.39.94.52s.68.24,1.06.3c.38.06.78.1,1.21.1.25,0,.48-.08.7-.23.22-.15.43-.36.62-.61.19-.26.37-.55.54-.88.17-.33.32-.68.45-1.04s.25-.73.35-1.1c.1-.37.18-.72.25-1.05.08-.39.14-.77.19-1.15.04-.38.09-.79.13-1.24-.23.19-.5.4-.8.61-.3.21-.62.42-.95.62-.33.2-.67.4-1.03.58-.35.19-.7.35-1.05.49s-.68.25-1,.34c-.32.09-.61.13-.87.13-.42,0-.79-.09-1.1-.26s-.56-.4-.76-.68c-.2-.28-.35-.6-.45-.95-.1-.36-.15-.72-.15-1.08,0-.25.02-.53.06-.84s.08-.64.14-.96c.06-.32.12-.64.2-.95s.15-.58.22-.82c.02-.04.05-.14.1-.31.05-.17.11-.35.17-.56.06-.2.12-.4.17-.58.06-.18.09-.3.11-.35.09-.27.18-.5.27-.7s.21-.37.34-.51c.13-.14.3-.24.49-.31.19-.07.43-.11.71-.11.2,0,.38.04.54.12s.28.21.37.39c.09.17.14.33.16.48.01.15.02.3.02.46,0,.06-.04.18-.12.37-.08.19-.17.39-.28.6-.1.22-.2.42-.3.6-.1.19-.16.31-.18.37-.22.54-.41,1.03-.55,1.46-.14.43-.22.86-.22,1.31,0,.21.02.41.07.6.04.18.1.34.17.47.07.13.14.24.23.31.09.07.17.11.26.11.25,0,.53-.05.86-.14s.68-.22,1.04-.39c.36-.17.72-.37,1.09-.6.36-.23.7-.48,1-.76.31-.28.57-.57.79-.87.22-.3.37-.61.45-.93.02-.07.04-.19.05-.35.01-.16.02-.34.03-.55,0-.21.01-.42.02-.66,0-.23.02-.46.03-.67s.03-.41.05-.58.04-.32.07-.41c.13-.4.29-.71.5-.91s.48-.31.81-.31c.27,0,.5.03.67.1.17.07.3.17.4.3s.16.3.19.51c.03.2.05.45.05.73Z"/><path class="cls-1" d="m78.93,6.92c0,.13-.03.28-.08.42-.06.15-.13.29-.23.43s-.21.27-.33.38c-.12.12-.25.22-.37.3-.27.18-.66.33-1.17.47-.51.13-1.12.2-1.85.2-.21,0-.43-.02-.66-.04-.23-.03-.47-.07-.71-.12-.24-.05-.48-.12-.71-.2s-.46-.17-.67-.26c.04.07.08.16.11.27.03.12.05.24.06.36.01.13.02.25.02.36,0,.12,0,.21,0,.27,0,.48-.08.95-.25,1.42-.17.47-.39.92-.66,1.36-.28.43-.59.83-.94,1.2s-.71.69-1.07.95c-.29.22-.61.4-.96.56s-.72.29-1.12.39-.79.18-1.21.23c-.41.05-.83.08-1.25.08-.35,0-.68-.09-1-.26-.32-.17-.6-.39-.84-.66-.24-.27-.43-.58-.58-.92-.14-.34-.22-.68-.22-1.01,0-.59.08-1.17.24-1.72.16-.55.37-1.08.64-1.59.27-.51.58-1.02.94-1.51.36-.49.73-.98,1.13-1.47.23-.28.49-.56.79-.83.3-.27.61-.51.94-.72s.67-.38,1-.51c.34-.13.66-.19.98-.19.26,0,.49.03.67.09s.36.14.52.25.31.24.46.4c.15.16.3.33.47.52l.23.26c.06.06.22.15.49.27s.58.24.94.35.75.22,1.15.31.77.13,1.09.13.65,0,.95-.01c.3,0,.6-.04.9-.08.3-.05.62-.12.95-.22.33-.1.7-.24,1.1-.42.04.07.07.15.08.26s.03.19.03.25Zm-8.66,2.51c0-.19,0-.38-.03-.58s-.06-.39-.12-.56-.14-.33-.25-.46c-.1-.13-.24-.22-.41-.26-.26-.07-.47-.14-.64-.22-.16-.08-.29-.15-.39-.22-.1-.07-.16-.12-.2-.17-.04-.04-.06-.07-.08-.07-.06,0-.14.05-.25.15-.11.1-.23.23-.36.39-.13.16-.26.32-.4.5-.14.18-.27.35-.4.5-.16.19-.3.38-.44.56-.14.18-.27.37-.4.57s-.26.4-.38.62c-.13.21-.26.45-.39.71-.12.24-.21.53-.27.88s-.09.67-.09.98c0,.13.01.25.04.38.03.13.07.25.13.35.06.1.14.19.23.26.1.07.21.1.36.1.34,0,.63-.02.86-.05.23-.03.45-.09.65-.18.2-.09.4-.2.61-.35.21-.15.45-.33.74-.54.13-.1.27-.23.4-.36.13-.14.27-.29.4-.45.13-.16.26-.33.39-.5s.24-.34.35-.51c.06-.09.11-.21.15-.35.04-.14.07-.29.1-.44s.04-.29.06-.41c.01-.13.02-.21.02-.27h0Z"/><path class="cls-1" d="m83.76,12.12c-.71,1.3-1.54,2.33-2.48,3.1s-1.89,1.15-2.86,1.15c-.57,0-1.15-.3-1.73-.9-.58-.6-.88-1.53-.88-2.78,0-.88.22-2.22.67-4,.39-1.47.58-2.59.58-3.36.3-.62.76-.94,1.39-.94.43,0,.78.14,1.03.43.26.29.38.57.38.86,0,.53-.19,1.28-.56,2.25-.22.58-.45,1.4-.7,2.46-.25,1.06-.37,1.74-.37,2.04,0,.99.2,1.48.61,1.48.65,0,1.52-.62,2.62-1.86,1.1-1.24,1.82-2.51,2.15-3.81.34-1.27.63-2.1.89-2.5s.63-.59,1.1-.59c.77,0,1.16.43,1.16,1.29,0,.13-.06.38-.19.76-.44,1.32-.66,2.8-.66,4.45,0,1.93.33,3.09.98,3.47.21.13.32.28.32.47,0,.27-.19.52-.57.76-.38.24-.74.36-1.08.36-.59,0-1.04-.42-1.35-1.24-.32-.83-.47-1.94-.47-3.34Z"/><path class="cls-1" d="m123,6.98c0,.19-.05.38-.15.55s-.22.34-.37.49-.32.29-.51.41c-.19.13-.38.24-.56.33-.38.19-.81.35-1.31.48-.49.13-1.04.19-1.66.19-.51,0-.99-.06-1.42-.17-.43-.11-.82-.23-1.14-.36-.24.4-.46.87-.68,1.42s-.43,1.13-.66,1.76c-.03.08-.07.21-.13.38s-.12.37-.2.59c-.07.22-.14.45-.22.69-.08.24-.15.47-.23.69-.07.22-.14.42-.2.6s-.1.31-.13.4c-.19.54-.45.91-.76,1.12-.31.21-.66.31-1.03.31-.4,0-.77-.13-1.1-.38-.33-.26-.6-.57-.82-.94-.22-.38-.41-.78-.59-1.19-.18-.41-.34-.83-.48-1.24-.14-.42-.27-.83-.38-1.24-.12-.41-.22-.81-.31-1.19-.02-.1-.04-.2-.07-.31s-.05-.17-.09-.17c-.01,0-.05.07-.12.21s-.14.31-.22.52-.17.45-.27.7-.19.51-.28.76c-.09.25-.17.48-.24.68-.07.21-.12.36-.16.46-.08.25-.18.51-.29.8s-.24.58-.38.86-.28.56-.44.83-.32.5-.49.7c-.17.2-.35.37-.53.49-.18.12-.37.18-.55.18-.36,0-.67-.1-.94-.31-.27-.2-.48-.45-.63-.73-.31-.61-.59-1.29-.85-2.05-.26-.76-.49-1.54-.67-2.34-.19-.8-.34-1.59-.45-2.36-.11-.78-.16-1.49-.16-2.15,0-.56.11-.96.33-1.2.22-.25.6-.37,1.14-.37.23,0,.41.07.55.21s.25.32.32.54c.08.22.13.47.17.74.03.28.06.54.07.81.01.26.02.51.03.73,0,.22.03.4.06.52.03.27.08.58.14.93.06.35.13.71.21,1.08s.15.73.24,1.08c.09.35.17.67.25.95.08.28.15.5.21.67.06.17.11.26.15.26.04,0,.1-.07.17-.2.07-.13.15-.31.24-.55.09-.24.2-.53.32-.86.12-.34.27-.71.43-1.12.16-.42.31-.81.46-1.19.15-.38.3-.75.44-1.12.15-.37.3-.73.46-1.1s.33-.74.51-1.13c.05-.13.13-.25.24-.38.11-.13.23-.25.37-.35.14-.1.29-.19.44-.25.15-.06.3-.09.44-.09.59,0,.92.34,1,1.01.07.6.17,1.18.28,1.77s.23,1.14.36,1.66c.13.52.26,1.01.4,1.45s.27.83.4,1.15c.13.32.25.58.36.76.11.18.21.27.29.27.07,0,.14-.08.23-.25.08-.16.17-.38.27-.64.09-.26.19-.55.28-.88s.19-.64.28-.95c.09-.31.17-.6.25-.88s.14-.49.2-.65c.08-.23.17-.49.27-.79.1-.3.21-.6.33-.91.12-.31.25-.62.38-.92.14-.3.29-.56.45-.8.16-.23.34-.42.52-.56.18-.14.38-.21.58-.21.22.01.39.04.53.08s.25.09.35.15.18.14.26.22c.07.08.15.17.22.28.07.1.2.2.37.3.17.1.36.19.57.27.2.08.41.15.6.2.2.05.35.08.46.08.54,0,1.07-.04,1.62-.13.54-.09,1.06-.25,1.55-.49.07-.04.16-.08.27-.13.1-.05.19-.07.25-.07.02,0,.05,0,.08.01.03,0,.07.03.09.06.03.03.06.09.08.16s.03.17.03.3Z"/><path class="cls-1" d="m136.69,8.72c0,.09-.02.2-.05.32s-.08.25-.13.37c-.05.12-.11.24-.17.36-.06.12-.12.21-.18.3-.04.05-.1.12-.18.22-.08.09-.17.2-.28.31-.1.12-.22.24-.35.37s-.26.27-.4.4c-.43.4-.87.8-1.31,1.19-.44.39-.91.74-1.39,1.04-.48.3-.99.54-1.52.73-.53.19-1.09.28-1.68.28-.25,0-.51-.06-.77-.17-.26-.11-.5-.26-.72-.46-.22-.19-.42-.43-.59-.7s-.28-.56-.35-.88c-.13.22-.31.46-.52.72-.21.26-.45.51-.71.76-.26.25-.52.49-.8.72-.28.23-.53.42-.77.59-.16.11-.36.23-.6.35-.23.12-.48.23-.74.33-.26.1-.52.18-.79.25-.26.06-.51.09-.73.09-.36,0-.67-.1-.94-.31s-.49-.46-.66-.75c-.17-.3-.31-.61-.39-.95-.09-.33-.13-.64-.13-.9,0-.49.07-.99.22-1.5.15-.51.33-1.01.56-1.49.23-.48.48-.94.76-1.38.28-.44.55-.83.82-1.17.28-.36.62-.71,1.01-1.07.39-.35.81-.67,1.24-.95.43-.28.86-.5,1.28-.67s.79-.26,1.12-.26c.18,0,.36,0,.55.02.19.01.38.03.56.05.19.02.36.06.54.1.17.04.32.1.46.17.09.06.19.17.29.32.11.15.21.32.3.49s.17.35.24.52c.07.17.1.31.1.4,0,.21-.03.46-.09.74s-.13.59-.21.9c-.08.31-.15.63-.22.96-.07.33-.1.64-.1.94,0,.21.03.42.09.64s.14.41.26.59c.11.17.25.32.4.43.16.11.33.17.52.17.44,0,.87-.08,1.3-.25.43-.16.86-.39,1.29-.67.43-.29.86-.62,1.29-1.01.43-.39.87-.81,1.3-1.27.01,0,.07-.06.18-.17.1-.11.23-.23.37-.37.15-.13.3-.26.46-.37.16-.11.3-.17.42-.17.22,0,.36.06.42.19.07.13.1.32.1.58Zm-10.14-1.15c0-.07-.01-.14-.04-.23-.03-.09-.06-.17-.1-.25s-.09-.14-.14-.2c-.05-.06-.1-.08-.14-.08-.49,0-.94.13-1.34.4-.41.26-.83.62-1.27,1.08-.25.25-.51.58-.79.99-.28.42-.54.86-.78,1.33s-.43.94-.59,1.41c-.16.47-.23.88-.23,1.24,0,.09,0,.18.02.26.01.09.03.16.07.23.03.07.08.12.14.17.06.04.14.07.23.07.28,0,.6-.09.96-.27.36-.18.71-.42,1.08-.71.36-.29.71-.63,1.05-1.02.34-.38.62-.78.85-1.18.28-.49.52-1,.72-1.54.2-.54.3-1.09.3-1.67Z"/><path class="cls-1" d="m154.24,8.23c0,.14-.03.3-.08.46s-.12.33-.2.5c-.08.16-.16.32-.26.46-.09.15-.18.27-.26.36-.24.3-.5.61-.8.95-.29.33-.6.67-.92.99s-.65.64-.98.94c-.33.3-.67.56-1,.79-.26.18-.51.34-.75.5-.24.15-.49.29-.75.41s-.53.21-.81.28c-.29.07-.6.1-.94.1-.56,0-1.02-.11-1.39-.33-.37-.22-.67-.52-.9-.89s-.41-.8-.53-1.28c-.12-.48-.22-.98-.28-1.5-.1-.71-.2-1.27-.32-1.68-.12-.41-.26-.62-.44-.62-.15,0-.29.04-.43.11-.14.07-.32.22-.53.45s-.48.57-.8,1.01-.75,1.03-1.27,1.77c-.18.25-.4.54-.65.85-.26.31-.53.61-.81.9-.28.29-.56.54-.84.76-.28.22-.54.37-.77.45-.94-.21-1.41-1.1-1.41-2.69,0-.4.04-.99.13-1.77.04-.35.09-.72.15-1.1s.13-.78.21-1.17c.08-.39.19-.77.31-1.15.12-.38.26-.72.41-1.04.09-.18.19-.32.3-.42s.22-.18.34-.23.24-.08.36-.1c.13-.01.25-.02.38-.02.11,0,.22.03.32.08.1.06.2.14.28.24.08.1.15.23.2.38.05.15.07.32.07.51,0,.17-.02.33-.04.49-.03.16-.07.32-.12.49-.05.17-.11.34-.16.53-.06.19-.11.4-.17.64-.04.16-.09.36-.16.6s-.14.5-.21.76c-.07.26-.14.52-.2.78s-.1.46-.11.64c.13-.16.29-.35.46-.59.17-.23.36-.49.55-.76s.39-.55.59-.83c.2-.28.4-.55.6-.8.26-.33.52-.64.77-.93s.52-.54.8-.75.58-.38.91-.5c.33-.12.7-.18,1.1-.18.48,0,.88.1,1.18.3s.55.47.73.82c.18.35.32.76.41,1.24s.16,1,.21,1.57c.03.29.07.59.12.89.05.31.12.58.22.83s.22.45.38.61c.16.16.35.24.58.24.34,0,.72-.09,1.12-.27.41-.18.83-.43,1.28-.75.45-.32.9-.69,1.37-1.12.47-.42.94-.88,1.41-1.36.15-.16.29-.31.43-.46s.27-.29.4-.41c.13-.12.25-.22.37-.3.12-.07.24-.11.36-.11.04,0,.1,0,.16.02.06.01.12.03.17.07s.09.08.13.14c.03.06.05.14.05.25Z"/><path class="cls-1" d="m164.02,6.47c0,.14-.03.27-.09.38s-.13.22-.22.31c-.09.09-.19.18-.29.25-.11.07-.21.14-.31.2-.33.15-.69.28-1.08.39-.38.11-.76.21-1.14.29s-.75.14-1.11.2c-.36.05-.69.1-1,.13-.21.02-.43.05-.65.07s-.45.05-.66.07c-.22.02-.42.04-.6.07-.19.02-.35.04-.48.07-.16.63-.32,1.24-.46,1.82-.15.58-.27,1.13-.37,1.64-.01.09-.04.21-.07.37-.03.16-.06.33-.1.51-.03.19-.06.38-.09.59-.03.2-.06.4-.08.58-.03.18-.05.35-.06.49s-.02.25-.02.33c0,.26.04.44.12.55.08.11.16.2.25.26.15.12.27.23.37.35.1.11.15.26.15.46,0,.15-.05.29-.16.42-.1.13-.23.24-.39.34s-.32.17-.5.23-.35.09-.5.09c-.27,0-.51-.07-.72-.2s-.4-.3-.56-.52-.28-.46-.36-.74c-.08-.27-.12-.56-.12-.85,0-.49.04-1.03.11-1.62.07-.59.18-1.18.32-1.77.06-.26.12-.55.2-.86.07-.31.14-.61.2-.89s.11-.53.16-.75c.04-.22.07-.37.09-.44-.16,0-.38.03-.67.07-.29.04-.64.06-1.04.06-.33,0-.62-.02-.85-.06s-.42-.12-.57-.23c-.15-.11-.26-.26-.32-.46-.07-.19-.1-.45-.1-.76,0-.18.06-.32.19-.43s.28-.19.47-.25c.19-.06.38-.09.58-.11.2-.02.38-.03.54-.03.07,0,.2,0,.39-.03.19-.02.39-.04.61-.06.22-.02.43-.04.64-.06.2-.02.36-.03.47-.03.04,0,.08-.07.14-.21.06-.14.11-.32.17-.55.06-.22.12-.47.18-.74.06-.27.12-.54.18-.8s.11-.51.16-.73c.05-.22.09-.4.12-.52.08-.31.15-.66.21-1.05s.14-.75.25-1.1.27-.64.47-.87c.21-.23.5-.35.88-.35.4,0,.7.09.89.26.19.17.29.46.29.87,0,.19-.02.41-.05.66-.03.25-.09.51-.17.76-.18.57-.33,1.11-.46,1.61-.13.5-.23.93-.31,1.3s-.15.76-.22,1.18c.3,0,.6,0,.88,0,.28,0,.56-.01.85-.02.29-.01.59-.03.91-.05s.66-.06,1.03-.1c.43-.05.79-.1,1.09-.16.3-.05.56-.1.79-.15s.43-.08.62-.11c.19-.03.38-.04.58-.04.1,0,.2.03.29.08.09.06.14.19.14.4Z"/><path class="cls-1" d="m33.83,35.12c-.06.49-.11,1.04-.14,1.63-.03.6-.08,1.26-.14,1.98-.02.27-.05.58-.08.93-.03.35-.07.71-.11,1.08-.04.37-.08.73-.13,1.08-.04.35-.09.67-.13.94-.07.43-.15.89-.26,1.37-.1.48-.24.96-.41,1.43-.17.47-.37.92-.6,1.35s-.52.81-.85,1.14-.72.59-1.15.79-.94.29-1.51.29c-.35,0-.7-.04-1.06-.12-.36-.08-.71-.19-1.05-.33-.34-.14-.67-.31-.98-.5-.31-.19-.6-.39-.86-.61-.64-.53-1.1-1.03-1.37-1.52-.09-.16-.16-.29-.21-.41-.05-.12-.07-.25-.07-.39,0-.16.05-.3.15-.41s.22-.17.37-.17c.07,0,.15.03.25.08.1.06.2.12.3.19.1.07.18.14.26.2s.12.11.13.13c.64.6,1.31,1.05,2,1.34s1.4.43,2.11.43c.43,0,.79-.14,1.08-.42s.53-.63.71-1.04.33-.87.44-1.36c.11-.49.2-.95.26-1.37.07-.44.12-.93.17-1.47.05-.54.09-1.06.14-1.57-.34.35-.72.69-1.13,1.02-.41.33-.84.62-1.28.86s-.9.45-1.37.6-.92.23-1.38.23c-.24,0-.46-.05-.67-.16s-.4-.25-.55-.44c-.16-.19-.28-.42-.37-.69-.09-.27-.13-.57-.13-.9,0-.42.07-.87.22-1.36.15-.49.34-.98.57-1.47.23-.49.49-.96.77-1.42.28-.46.56-.86.83-1.22.27-.36.6-.73.99-1.12.39-.39.81-.75,1.27-1.07.45-.32.92-.59,1.41-.8s.95-.31,1.41-.31c.27,0,.54.04.81.11.27.08.52.19.75.34.22.15.41.34.55.57.14.23.21.49.21.8,0,.12,0,.25-.02.4-.01.15-.03.3-.04.45s-.04.31-.06.46-.04.29-.05.41h0Zm-2.45,1.92c.04-.23.07-.5.11-.81s.07-.71.11-1.18c.02-.25.03-.44.05-.57.02-.13.03-.23.03-.31,0-.16-.01-.28-.03-.36-.02-.09-.08-.15-.17-.18-.09-.03-.23-.05-.42-.06-.33.22-.67.49-1,.8-.33.31-.65.65-.95,1.02-.3.36-.58.74-.85,1.14-.26.39-.5.78-.7,1.15-.22.4-.39.8-.51,1.19-.13.39-.19.73-.19,1.01,0,.12.04.2.12.24s.17.06.28.06c.22,0,.47-.06.75-.17.27-.11.55-.25.83-.41.28-.16.55-.33.8-.51.26-.18.48-.33.66-.47.07-.04.16-.12.27-.23s.23-.24.35-.38.22-.3.31-.47c.09-.17.14-.33.16-.49Z"/><path class="cls-1" d="m47.5,34.71c0,.07-.01.16-.04.27-.03.11-.08.22-.13.33-.06.11-.14.21-.23.29-.09.08-.21.13-.34.13-.03,0-.09,0-.19,0-.1,0-.2,0-.31-.02-.11,0-.22-.01-.31-.02s-.17,0-.21,0c-1.24.07-2.32.51-3.22,1.34-.21.19-.42.41-.64.66-.22.25-.44.53-.65.83-.21.3-.41.62-.61.96s-.37.7-.52,1.07c-.13.3-.25.62-.37.94s-.22.66-.31,1.02c-.05.19-.09.36-.12.51-.03.14-.07.31-.13.51-.04.12-.1.22-.19.31-.09.08-.19.16-.31.21s-.24.1-.37.13c-.13.03-.26.05-.38.06-.48,0-.8-.22-.98-.65-.18-.43-.27-1.07-.27-1.93,0-.19,0-.38,0-.55s.01-.34.02-.52.02-.36.04-.55c.01-.19.03-.4.06-.64.03-.35.07-.76.12-1.24.05-.48.11-.97.17-1.46.06-.49.12-.97.2-1.43.07-.46.14-.85.22-1.17.09-.39.24-.7.45-.93.21-.22.52-.33.93-.33.12,0,.24.03.36.09s.23.14.33.23.18.19.25.29c.07.1.1.2.11.28v.2c.01.21,0,.45-.04.74-.04.28-.09.58-.15.9-.06.32-.13.64-.2.96-.07.32-.14.63-.21.93-.07.29-.13.57-.19.81s-.1.46-.13.62c.26-.55.54-1.08.84-1.59.3-.51.62-.98.96-1.42s.71-.82,1.1-1.17c.39-.34.82-.62,1.27-.83.36-.16.68-.29.98-.37.3-.09.57-.13.8-.13.28,0,.58.03.88.09s.58.15.83.26.46.25.62.42c.16.16.25.35.25.56Z"/><path class="cls-1" d="m64.91,36.13c0,.09-.02.2-.05.32s-.08.25-.13.37c-.05.12-.11.24-.17.36-.06.12-.12.21-.18.3-.04.05-.1.12-.18.22-.08.09-.17.2-.28.31-.1.12-.22.24-.35.37s-.26.27-.4.4c-.43.4-.87.8-1.31,1.19-.44.39-.91.74-1.39,1.04-.48.3-.99.54-1.52.73-.53.19-1.09.28-1.68.28-.25,0-.51-.06-.77-.17-.26-.11-.5-.26-.73-.46-.22-.19-.42-.43-.58-.7-.17-.27-.28-.56-.35-.88-.13.22-.31.46-.52.72s-.45.51-.71.76c-.26.25-.52.49-.8.72-.27.23-.53.42-.77.59-.16.11-.36.23-.6.35s-.48.23-.74.33c-.26.1-.52.18-.79.25-.26.06-.51.09-.73.09-.36,0-.67-.1-.94-.31s-.49-.46-.66-.75c-.17-.3-.31-.61-.39-.95-.09-.33-.13-.64-.13-.9,0-.49.07-.99.22-1.5.15-.51.33-1.01.56-1.49s.48-.94.76-1.38c.28-.44.55-.83.82-1.17.28-.36.62-.71,1.02-1.07.39-.35.81-.67,1.24-.95.43-.28.86-.5,1.28-.67s.79-.26,1.12-.26c.18,0,.36,0,.55.02.19.01.38.03.56.05s.36.06.54.1.32.1.46.17c.09.06.19.17.29.32.11.15.21.32.3.49.09.17.17.35.24.52.07.17.1.31.1.4,0,.21-.03.46-.09.74-.06.29-.13.59-.21.9-.08.31-.15.63-.22.96-.07.33-.1.64-.1.94,0,.21.03.42.09.64s.14.41.26.59c.11.17.25.32.4.43.16.11.33.17.52.17.44,0,.87-.08,1.31-.25.43-.16.86-.39,1.29-.67.43-.29.86-.62,1.29-1.01.43-.39.87-.81,1.31-1.27.01,0,.07-.06.18-.17.1-.11.23-.23.37-.37.14-.13.3-.26.46-.37.16-.11.3-.17.42-.17.21,0,.36.06.42.19.07.13.1.32.1.58Zm-10.14-1.15c0-.07-.01-.14-.04-.23-.03-.09-.06-.17-.1-.25-.04-.08-.09-.14-.14-.2-.05-.06-.1-.08-.15-.08-.49,0-.94.13-1.34.4-.41.26-.83.62-1.27,1.08-.25.25-.51.58-.79.99-.28.42-.54.86-.78,1.33s-.43.94-.59,1.41c-.16.47-.23.88-.23,1.24,0,.09,0,.18.02.26.01.09.03.16.07.23.03.07.08.12.14.17.06.04.14.07.23.07.28,0,.6-.09.96-.27.36-.18.72-.42,1.08-.71.36-.29.71-.63,1.05-1.02.34-.38.62-.78.85-1.18.28-.49.52-1,.72-1.54.2-.54.3-1.09.3-1.67Z"/><path class="cls-1" d="m80.7,35.27c0,.05-.01.13-.04.23-.03.1-.09.22-.17.37-.08.14-.21.31-.37.49-.16.18-.37.38-.63.6-.25.2-.56.42-.95.67-.39.25-.83.5-1.31.76-.48.26-.99.54-1.52.81-.54.28-1.07.55-1.59.81-.53.26-1.04.51-1.54.75-.5.24-.95.45-1.35.64-.26.12-.52.26-.78.43-.26.17-.51.33-.75.48s-.48.28-.7.39c-.23.11-.44.16-.64.16-.22,0-.42-.03-.62-.08-.2-.05-.37-.13-.52-.24s-.27-.25-.36-.42c-.09-.17-.13-.38-.13-.62,0-.2.07-.37.21-.52.14-.15.31-.27.52-.38.2-.11.42-.2.65-.28.23-.08.42-.15.59-.21.22-.08.43-.15.63-.21.2-.06.36-.12.49-.18.2-.11.39-.25.57-.43.18-.17.35-.37.51-.58.16-.21.31-.43.45-.67.14-.23.27-.46.4-.67.08-.13.15-.29.21-.46s.11-.34.16-.51c.04-.17.08-.33.1-.48s.03-.29.03-.4c0-.39-.07-.71-.2-.94s-.3-.35-.5-.35c-.16,0-.36.06-.58.18-.22.12-.45.27-.68.45s-.45.36-.66.55-.38.36-.5.49c-.3.32-.61.68-.94,1.08-.33.4-.65.81-.95,1.24-.3.43-.58.86-.83,1.31s-.44.88-.59,1.3c-.09.25-.16.54-.2.87-.04.33-.08.67-.11,1.03-.03.36-.05.72-.06,1.09-.01.37-.03.72-.06,1.07-.04.56-.06,1.11-.06,1.67,0,.55-.05,1.06-.14,1.52-.03.15-.08.29-.16.42s-.17.25-.28.36-.25.19-.41.25-.33.09-.52.09c-.12,0-.25-.03-.41-.08-.15-.06-.3-.13-.43-.23-.13-.1-.25-.22-.34-.35-.09-.13-.14-.27-.14-.42s0-.34.02-.56c.01-.22.04-.45.06-.7s.05-.5.08-.76c.03-.26.06-.5.09-.72.03-.23.06-.43.08-.61.02-.18.04-.31.06-.4.1-.71.19-1.5.27-2.39.08-.89.15-1.8.19-2.74.01-.24.03-.54.04-.89.01-.36.02-.72.03-1.08.01-.36.02-.69.03-.99.01-.3.02-.52.03-.65.07-.78.22-1.36.46-1.75.24-.39.58-.58,1.04-.58.18,0,.35.04.51.12.16.08.31.18.43.31s.22.27.3.43c.07.16.11.31.11.47,0,.14-.02.32-.04.55-.03.22-.07.46-.11.7-.04.25-.09.49-.13.73-.05.24-.09.44-.13.6.16-.26.33-.54.51-.83.18-.29.37-.57.55-.85.19-.28.37-.54.56-.78.19-.24.36-.44.54-.61.31-.3.63-.59.95-.85.32-.26.65-.49.98-.69.33-.19.68-.35,1.05-.46.36-.11.75-.17,1.15-.17.31,0,.62.08.93.23s.59.37.83.66.45.63.6,1.04.23.86.23,1.38c0,.25-.04.53-.12.82-.08.29-.18.59-.32.88s-.29.57-.48.84-.39.51-.61.71c.47-.24.96-.5,1.48-.78.52-.28,1.04-.58,1.57-.88.52-.3,1.04-.61,1.55-.92.51-.31.98-.6,1.41-.88.22-.14.4-.26.56-.35.16-.09.33-.14.5-.14.13,0,.22.04.29.11.07.07.11.17.11.29,0,.06,0,.12-.01.18,0,.06-.01.11-.01.16Z"/><path class="cls-1" d="m98.47,36.27c0,.1-.04.23-.11.37-.07.15-.17.31-.29.51-.07.12-.17.26-.29.41s-.25.32-.39.48c-.14.16-.27.32-.41.48-.13.16-.26.29-.37.4-.42.43-.88.85-1.36,1.25-.48.4-.98.76-1.51,1.07-.52.31-1.06.56-1.62.75-.56.19-1.13.28-1.73.28-.51,0-.96-.09-1.34-.28s-.68-.48-.9-.89c-.07-.13-.15-.35-.23-.64s-.15-.6-.22-.93c-.07-.33-.12-.66-.17-.98-.04-.32-.07-.58-.09-.78,0-.13-.02-.29-.04-.46-.01-.17-.04-.34-.06-.5-.03-.16-.06-.29-.1-.4-.04-.11-.1-.16-.16-.16-.07,0-.14.02-.21.06-.13.07-.36.24-.66.52-.31.28-.66.63-1.05,1.06s-.81.91-1.25,1.46c-.44.55-.85,1.12-1.25,1.72-.15.22-.3.47-.46.74s-.31.55-.46.83c-.15.28-.3.55-.45.81-.14.26-.28.49-.4.69-.08.12-.18.22-.29.31-.11.09-.22.15-.33.21-.11.05-.21.09-.3.11s-.16.03-.2.03c-.16,0-.32-.04-.46-.11-.15-.07-.27-.17-.38-.28-.11-.12-.19-.25-.26-.4-.06-.15-.1-.3-.1-.45,0-.08.01-.23.04-.44.03-.21.06-.45.1-.72.04-.27.08-.55.12-.84s.08-.56.11-.8c.06-.48.12-1,.18-1.56.06-.57.12-1.13.18-1.71.06-.57.11-1.13.16-1.68.05-.55.08-1.04.11-1.48,0-.14.02-.33.03-.56s.03-.49.05-.78c.02-.29.04-.58.05-.89s.03-.61.05-.91c.02-.3.03-.58.04-.84.01-.26.02-.48.03-.66,0-.21.02-.4.04-.59.02-.18.05-.36.09-.54s.09-.36.16-.54c.06-.18.15-.38.25-.6.04-.08.1-.17.18-.27.08-.1.18-.19.29-.27s.24-.15.38-.21c.14-.06.28-.08.42-.08.31,0,.58.11.8.33s.33.53.33.92c0,.11-.01.26-.04.45-.03.19-.06.37-.09.55-.03.18-.06.34-.09.49-.03.14-.04.24-.04.27-.02.1-.05.29-.09.56s-.08.59-.13.96c-.05.37-.1.77-.15,1.21-.05.43-.11.87-.16,1.32s-.11.87-.16,1.29c-.05.42-.1.79-.14,1.12s-.07.59-.09.8-.04.33-.04.36c-.02.15-.05.36-.08.63-.03.27-.07.55-.11.84s-.08.56-.11.81-.06.43-.07.55c.07-.1.15-.23.26-.4.11-.17.22-.34.33-.51.12-.17.22-.34.33-.5.1-.16.18-.27.23-.35.12-.18.26-.38.42-.6.16-.22.33-.45.51-.69.18-.23.37-.46.56-.69s.38-.43.56-.62c.23-.24.49-.48.78-.74.29-.25.6-.48.91-.69.32-.21.65-.38.98-.51s.66-.2.97-.2c.08,0,.18.02.31.06s.24.09.37.16.24.16.34.26c.11.1.18.22.22.36.1.27.18.59.24.98.07.38.13.78.19,1.19.05.41.11.82.17,1.23.06.41.13.77.2,1.09.07.32.16.58.26.79.1.2.22.3.37.3.2,0,.39,0,.56-.02.17-.01.35-.04.51-.08.17-.04.34-.08.51-.14.17-.06.35-.14.55-.23.41-.2.76-.39,1.06-.57.3-.18.58-.37.84-.56s.53-.42.8-.66c.27-.24.58-.52.93-.84.37-.34.7-.62.97-.83.28-.21.48-.32.61-.32.09,0,.16.02.22.06.06.04.1.08.13.14.03.06.05.12.06.18.01.07.02.13.02.18Z"/><path class="cls-1" d="m108.94,36.48c0,.17-.07.39-.2.65-.13.26-.31.56-.54.88-.23.32-.5.67-.81,1.04s-.65.75-1.02,1.13c-.39.42-.82.84-1.28,1.25-.46.41-.95.8-1.47,1.18-.51.37-1.02.66-1.52.86-.5.21-.97.31-1.42.31-.52,0-.97-.09-1.36-.26s-.71-.41-.98-.71-.49-.65-.66-1.04-.31-.8-.41-1.24c-.1-.43-.17-.88-.21-1.32-.04-.45-.06-.87-.06-1.27,0-.16.01-.39.03-.7s.05-.64.09-.99.09-.68.13-1c.05-.32.1-.58.15-.76.11-.36.37-.71.77-1.04.39-.31.82-.47,1.29-.47s.72.29.72.87c0,.28-.02.57-.07.88-.05.31-.1.61-.16.91-.1.54-.16,1.03-.2,1.47-.04.44-.06.82-.06,1.15,0,.38.02.75.07,1.1.04.36.11.67.2.95.08.28.19.5.32.67s.28.26.46.26c.22,0,.45-.02.69-.06.24-.04.52-.15.86-.33.64-.35,1.32-.82,2.04-1.42.25-.21.54-.46.86-.74s.64-.58.96-.88c.32-.3.62-.6.9-.89.28-.29.5-.54.67-.75.02-.04.05-.08.09-.14s.09-.11.14-.17.11-.11.17-.15.12-.06.18-.06c.12,0,.21.02.26.05.06.03.12.14.18.31.08.19.12.34.12.47Zm-6.94-9.18c0,.25-.04.48-.11.7-.08.22-.18.43-.32.62-.28.39-.72.59-1.3.59-.21,0-.42-.02-.64-.06s-.41-.09-.58-.16c-.17-.07-.31-.15-.42-.26-.11-.1-.17-.22-.17-.36,0-.23.06-.47.18-.73.12-.26.27-.5.46-.71.19-.22.4-.4.62-.55.23-.15.44-.22.65-.22.26,0,.49.02.69.05.2.03.37.09.51.17s.24.2.32.35c.07.15.11.33.11.56Z"/><path class="cls-1" d="m121.49,35.93c0,.15-.02.28-.06.38s-.1.22-.19.32c-.09.11-.2.22-.33.35-.13.13-.3.29-.49.48l-.98.98c-.21.21-.39.38-.55.52s-.31.27-.45.4c-.14.12-.29.25-.45.38-.16.13-.35.29-.57.47-.48.41-.96.79-1.43,1.15-.47.36-.93.68-1.37.96-.67.42-1.39.75-2.15.98s-1.58.35-2.43.35c-.56,0-1.05-.1-1.48-.31-.43-.21-.8-.48-1.09-.83-.3-.35-.52-.75-.67-1.21-.15-.46-.23-.95-.23-1.47,0-.97.2-1.95.61-2.94s.97-1.95,1.68-2.91c.18-.24.39-.49.63-.75.24-.26.5-.5.76-.71s.54-.39.83-.52c.28-.14.56-.21.83-.21.18,0,.35.05.52.15.17.1.33.24.49.41.16.17.31.37.45.6.14.23.27.47.39.73.24.52.36.9.36,1.14,0,.13-.01.28-.04.46-.03.18-.07.36-.14.52-.07.16-.17.3-.29.42s-.27.17-.46.17c-.28,0-.5-.09-.68-.26-.18-.17-.33-.38-.45-.61-.12-.23-.21-.46-.29-.68-.07-.22-.14-.38-.2-.48-.18.07-.37.2-.56.39-.2.19-.39.43-.59.71s-.38.6-.55.95c-.17.35-.32.73-.45,1.13s-.23.8-.31,1.22c-.08.42-.12.83-.12,1.24,0,.38.14.71.41.99.31.31.6.47.87.47.85,0,1.66-.16,2.45-.47.78-.31,1.54-.73,2.27-1.25.49-.35,1-.74,1.54-1.18.54-.44,1.12-.96,1.76-1.57.23-.22.46-.44.7-.64.23-.2.46-.38.69-.54.23-.16.44-.28.65-.38.2-.1.4-.14.57-.14.39,0,.58.2.58.61Z"/><path class="cls-1" d="m130.99,35.55c0,.2-.09.45-.27.75-.18.3-.4.62-.67.95s-.57.67-.91,1.02-.66.67-.97.98c-.19.18-.46.43-.83.74s-.77.66-1.22,1.04c-.45.38-.92.77-1.41,1.18-.49.41-.95.78-1.39,1.13-.44.35-.82.65-1.15.91-.33.26-.57.44-.71.54-.46.3-.89.54-1.29.7-.4.16-.75.25-1.07.25-.26,0-.48-.02-.66-.07-.18-.05-.32-.11-.43-.19-.11-.08-.19-.17-.25-.27-.05-.1-.08-.2-.08-.31,0-.26.05-.49.15-.7s.25-.4.45-.57c.2-.18.46-.35.78-.52.32-.17.69-.34,1.12-.52.28-.11.54-.22.76-.32.23-.1.42-.22.59-.34.17-.12.29-.26.38-.42.09-.16.13-.35.13-.57,0-.05-.04-.15-.11-.29-.07-.14-.16-.3-.27-.49s-.24-.39-.37-.61c-.14-.22-.27-.43-.41-.65s-.26-.41-.38-.6c-.12-.19-.21-.34-.28-.47-.3-.56-.46-1.14-.46-1.73,0-.25.02-.51.07-.78.04-.27.12-.54.22-.81.1-.34.25-.68.47-1s.46-.62.73-.88c.27-.26.54-.46.81-.62s.51-.23.71-.23c.27,0,.49.02.66.07.17.05.3.12.4.22.09.1.16.23.2.38.04.15.06.34.06.55,0,.18-.04.35-.13.52-.09.17-.2.33-.32.48-.13.15-.26.29-.4.41-.14.13-.26.24-.37.33-.16.14-.3.27-.45.4-.14.12-.25.23-.33.32,0,.47.12.9.35,1.29.11.19.25.43.42.71.17.28.34.57.51.86.17.29.34.57.5.84s.28.48.37.64c.11-.05.27-.15.49-.29.21-.15.46-.32.74-.52.28-.21.59-.43.91-.69.32-.25.65-.51.98-.78s.64-.53.95-.8c.3-.26.58-.51.83-.75.21-.2.38-.37.52-.52.14-.14.26-.26.36-.36s.19-.16.26-.21c.07-.05.16-.07.25-.07.1,0,.18.04.24.11s.11.15.15.23c.04.08.06.17.08.24.01.08.02.12.02.13Z"/><path class="cls-1" d="m134.35,42.43c0,.27-.08.51-.25.71-.17.21-.37.38-.6.53-.23.14-.48.25-.73.33s-.46.11-.64.11c-.22,0-.42-.03-.62-.1-.2-.07-.38-.16-.53-.29-.15-.13-.28-.28-.37-.46s-.14-.38-.14-.6c0-.19.08-.37.23-.56.16-.19.38-.38.66-.57.11-.07.2-.14.27-.2.07-.06.13-.1.2-.13.06-.03.14-.06.23-.08.09-.02.22-.03.38-.03.04,0,.11.01.18.03.08.02.16.05.25.09.09.04.17.08.26.12.08.04.16.09.22.13.68.04,1.01.36,1.01.95Zm6.51-11.57c0,.97-.17,1.78-.51,2.43-.34.64-.79,1.15-1.37,1.53-.24.16-.51.3-.81.44-.3.14-.63.27-.99.4-.35.13-.72.26-1.1.38-.38.13-.76.26-1.15.39-.1.28-.2.57-.28.88-.09.31-.17.64-.24,1-.04.22-.12.41-.22.56s-.23.27-.38.35c-.15.08-.33.14-.55.18-.21.03-.46.05-.73.05-.13,0-.23-.05-.32-.16-.08-.1-.15-.23-.21-.38-.05-.15-.09-.3-.11-.46-.02-.16-.03-.29-.03-.4,0-.18.01-.34.03-.48.02-.14.07-.31.13-.5.07-.19.17-.43.3-.71.13-.28.31-.65.54-1.12.23-.19.46-.37.7-.52.24-.16.48-.29.72-.41.14-.07.36-.16.67-.29.3-.12.62-.25.96-.38.33-.13.65-.25.95-.37.3-.12.52-.21.65-.27.12-.07.23-.17.33-.29.1-.13.19-.28.26-.44.07-.16.13-.33.17-.51.04-.18.06-.35.06-.51,0-.11-.02-.25-.04-.42-.03-.17-.07-.33-.11-.5-.04-.16-.08-.31-.12-.45-.04-.13-.07-.22-.09-.27-.04-.11-.13-.21-.25-.29s-.25-.15-.4-.2c-.14-.05-.29-.08-.45-.11s-.3-.04-.42-.04c-.23,0-.44,0-.62.01-.19,0-.36.03-.51.08s-.31.11-.45.2c-.14.09-.29.21-.44.36-.04.04-.07.12-.09.25-.02.1-.05.21-.11.33s-.14.23-.27.32c-.12.1-.29.18-.51.24-.22.06-.5.09-.84.09-.68,0-1.03-.33-1.03-.98,0-.2.06-.42.18-.66s.28-.48.49-.71c.21-.24.45-.47.73-.69.28-.22.58-.42.9-.59h-.01c.25-.15.47-.26.65-.33.18-.07.36-.12.54-.15.18-.03.37-.05.57-.05.2,0,.45,0,.74-.02.19,0,.38-.01.56-.02.18,0,.31-.01.4-.01.11,0,.24.01.4.04.15.03.3.06.46.11.15.04.29.09.43.15.13.06.23.11.3.17.42.28.76.55,1.01.79.25.25.44.51.57.78s.22.58.26.92c.04.34.06.75.07,1.23h0Z"/><path class="cls-1" d="m18.2,191.04c0,.19-.07.37-.19.52s-.29.29-.5.4c-.15.08-.32.15-.51.19-.19.04-.38.07-.58.07-.45,0-.88-.09-1.32-.27-.43-.18-.9-.44-1.39-.78-.25-.16-.56-.38-.94-.65-.38-.27-.81-.6-1.31-.98-.12-.09-.35-.27-.7-.54s-.81-.64-1.39-1.1c-.54-.42-.96-.76-1.28-1-.32-.24-.5-.37-.55-.4-.09-.04-.18-.06-.26-.06-.09,0-.24,0-.47,0h-.16c-.05,0-.11,0-.18,0-.07,0-.16,0-.28.02-.12,0-.27.02-.46.03-.45-.32-.68-.75-.68-1.3,0-.27.06-.49.19-.66.13-.17.31-.3.55-.38.06-.01.1-.03.13-.03.03,0,.06-.01.09-.02s.08-.01.14-.02c.06-.01.14-.02.26-.03.22,0,.42-.03.62-.08.2-.05.4-.12.58-.2.19-.08.37-.16.55-.26s.34-.18.51-.26c.24-.12.49-.26.74-.41.26-.16.51-.32.78-.49.23-.16.46-.33.67-.51.22-.19.44-.39.65-.6.17-.17.3-.34.37-.52.08-.17.12-.35.12-.52,0-.26-.08-.51-.25-.75-.16-.24-.37-.45-.62-.65-.25-.19-.52-.36-.81-.5-.29-.14-.57-.25-.83-.32-.51-.15-1.02-.22-1.52-.22-.15,0-.33,0-.56.02-.22.01-.47.04-.75.07-.25.03-.5.06-.74.08-.24.03-.47.06-.7.09-.1.02-.19.03-.25.03-.06,0-.12.02-.18.03s-.13.02-.21.04-.18.04-.32.07c.06.14.11.29.16.45s.09.33.12.51c.07.29.11.56.13.8.02.24.03.46.03.65,0,.22,0,.44,0,.64,0,.2-.01.4-.03.59-.02.39-.07.79-.13,1.18-.07.39-.16.89-.27,1.51-.09.53-.16,1-.22,1.4s-.11.76-.15,1.08c-.04.3-.06.59-.08.87-.02.28-.03.55-.03.8,0,.23.01.45.03.66.02.21.06.41.11.61.05.2.12.39.2.59.09.19.19.39.32.6-.07.12-.17.23-.28.33-.12.1-.24.2-.37.28s-.26.15-.4.2c-.13.05-.26.07-.38.07-.6,0-1.04-.13-1.32-.38-.31-.27-.5-.58-.57-.94-.04-.18-.06-.38-.07-.6-.01-.22-.02-.48-.02-.76,0-.41.02-.8.07-1.18.04-.33.08-.66.13-.96.05-.31.1-.62.16-.92.04-.13.07-.26.09-.38.02-.12.04-.24.06-.37s.04-.27.06-.42.05-.33.08-.53c.1-.61.17-1.2.23-1.76s.09-1.08.09-1.55c0-.36,0-.73-.03-1.12-.02-.39-.05-.8-.09-1.22-.24.07-.44.12-.6.15-.16.03-.28.05-.33.05-.39,0-.66-.09-.79-.29-.13-.19-.2-.46-.2-.8,0-.39.33-.74,1-1.07.26-.13.52-.24.79-.35.26-.1.53-.2.79-.28.29-.09.64-.17,1.04-.26.4-.08.84-.16,1.33-.23.46-.07.9-.12,1.32-.16.42-.04.79-.06,1.12-.06,1.13,0,2.22.13,3.27.4.55.14,1.06.33,1.52.57.46.24.87.52,1.24.86.8.72,1.2,1.65,1.2,2.8,0,.74-.29,1.48-.86,2.2-.48.59-1.04,1.11-1.66,1.56-.62.44-1.31.87-2.06,1.28.24.17.48.34.71.51s.5.35.77.54c.41.28.79.55,1.14.8.35.25.69.49,1,.7s.66.45,1.03.71c.38.26.79.55,1.24.86.43.29.83.55,1.19.79.36.23.66.43.9.57l.2.28Z"/><path class="cls-1" d="m33.5,184.02c0,.13-.1.38-.3.74-.39.56-.82,1.11-1.29,1.66-.47.55-.98,1.07-1.51,1.56-.54.49-1.09.95-1.67,1.37s-1.17.78-1.76,1.09-1.19.54-1.78.72c-.59.17-1.17.26-1.73.26-1.27,0-2.26-.36-2.97-1.08s-1.07-1.8-1.07-3.25c0-.58.04-1.15.12-1.71s.22-1.12.41-1.66c.19-.55.44-1.08.74-1.61.3-.53.68-1.04,1.13-1.54.16-.19.35-.36.57-.54.22-.17.45-.32.7-.46.25-.13.51-.24.78-.32.27-.08.54-.12.81-.12.39,0,.73.07,1.02.22s.52.35.71.6c.19.25.32.54.41.86.09.32.13.66.13,1.02,0,.66-.25,1.35-.74,2.06-.49.71-1.17,1.44-2.04,2.18-.28.24-.61.5-.98.77-.37.28-.79.59-1.25.94.01.19.07.36.16.52.09.16.22.31.38.43.16.12.35.22.57.29s.48.11.76.11c.36,0,.75-.05,1.16-.14.41-.09.81-.22,1.22-.37s.79-.34,1.17-.54c.38-.2.72-.42,1.04-.64.55-.39,1.08-.82,1.59-1.28.51-.46,1-.92,1.48-1.4l.59-.59c.41-.36.76-.55,1.05-.55.15,0,.25.05.31.15.06.1.08.19.08.26Zm-8.7-2.05c0-.16-.02-.32-.05-.47-.03-.15-.09-.24-.16-.28-.25,0-.52.11-.81.32-.29.22-.56.52-.82.92-.26.4-.49.88-.7,1.44-.2.56-.35,1.18-.45,1.87.35-.26.7-.53,1.05-.82s.67-.59.96-.9.52-.64.7-.99c.18-.35.27-.71.27-1.1Z"/><path class="cls-1" d="m48.34,184.24c0,.09-.02.2-.05.32s-.08.25-.13.37c-.05.12-.11.24-.17.36-.06.12-.12.21-.18.3-.04.05-.1.12-.18.22-.08.09-.17.2-.28.31-.1.12-.22.24-.35.37s-.26.27-.4.4c-.43.4-.87.8-1.31,1.19-.44.39-.91.74-1.39,1.04-.48.3-.99.54-1.52.73-.53.19-1.09.28-1.68.28-.25,0-.51-.06-.77-.17-.26-.11-.5-.26-.73-.46-.22-.19-.42-.43-.58-.7-.17-.27-.28-.56-.35-.88-.13.22-.31.46-.52.72s-.45.51-.71.76c-.26.25-.52.49-.8.72-.27.23-.53.42-.77.59-.16.11-.36.23-.6.35s-.48.23-.74.33c-.26.1-.52.18-.79.25-.26.06-.51.09-.73.09-.36,0-.67-.1-.94-.31s-.49-.46-.66-.75c-.17-.3-.31-.61-.39-.95-.09-.33-.13-.64-.13-.9,0-.49.07-.99.22-1.5.15-.51.33-1.01.56-1.49s.48-.94.76-1.38c.28-.44.55-.83.82-1.17.28-.36.62-.71,1.02-1.07.39-.35.81-.67,1.24-.95.43-.28.86-.5,1.28-.67s.79-.26,1.12-.26c.18,0,.36,0,.55.02.19.01.38.03.56.05s.36.06.54.1.32.1.46.17c.09.06.19.17.29.32.11.15.21.32.3.49.09.17.17.35.24.52.07.17.1.31.1.4,0,.21-.03.46-.09.74-.06.29-.13.59-.21.9-.08.31-.15.63-.22.96-.07.33-.1.64-.1.94,0,.21.03.42.09.64s.14.41.26.59c.11.17.25.32.4.43.16.11.33.17.52.17.44,0,.87-.08,1.31-.25.43-.16.86-.39,1.29-.67.43-.29.86-.62,1.29-1.01.43-.39.87-.81,1.31-1.27.01,0,.07-.06.18-.17.1-.11.23-.23.37-.37.14-.13.3-.26.46-.37.16-.11.3-.17.42-.17.21,0,.36.06.42.19.07.13.1.32.1.58Zm-10.14-1.15c0-.07-.01-.14-.04-.23-.03-.09-.06-.17-.1-.25-.04-.08-.09-.14-.14-.2-.05-.06-.1-.08-.15-.08-.49,0-.94.13-1.34.4-.41.26-.83.62-1.27,1.08-.25.25-.51.58-.79.99-.28.42-.54.86-.78,1.33s-.43.94-.59,1.41c-.16.47-.23.88-.23,1.24,0,.09,0,.18.02.26.01.09.03.16.07.23.03.07.08.12.14.17.06.04.14.07.23.07.28,0,.6-.09.96-.27.36-.18.72-.42,1.08-.71.36-.29.71-.63,1.05-1.02.34-.38.62-.78.85-1.18.28-.49.52-1,.72-1.54.2-.54.3-1.09.3-1.67Z"/><path class="cls-1" d="m60.73,184.04c0,.15-.02.28-.06.38s-.1.22-.19.32c-.09.11-.2.22-.33.35-.13.13-.3.29-.49.48l-.98.98c-.21.21-.39.38-.55.52-.16.14-.31.27-.45.4-.15.12-.3.25-.45.38-.16.13-.35.29-.57.47-.48.41-.96.79-1.43,1.15-.47.36-.93.68-1.37.96-.67.42-1.39.75-2.15.98s-1.58.35-2.43.35c-.56,0-1.05-.1-1.48-.31-.43-.21-.8-.48-1.09-.83-.3-.35-.52-.75-.67-1.21-.15-.46-.23-.95-.23-1.47,0-.97.2-1.95.61-2.94.41-.99.97-1.95,1.68-2.91.18-.24.39-.49.63-.75.24-.26.5-.5.76-.71s.54-.39.83-.52c.28-.14.56-.21.83-.21.18,0,.35.05.52.15.17.1.33.24.49.41.16.17.31.37.45.6.14.23.27.47.39.73.24.52.36.9.36,1.14,0,.13-.01.28-.04.46-.03.18-.07.36-.15.52-.07.16-.17.3-.28.42s-.27.17-.46.17c-.28,0-.5-.09-.68-.26-.18-.17-.33-.38-.45-.61s-.21-.46-.28-.68c-.07-.22-.14-.38-.2-.48-.18.07-.37.2-.56.39-.2.19-.39.43-.58.71s-.38.6-.55.95c-.17.35-.32.73-.45,1.13-.13.4-.23.8-.31,1.22-.08.42-.12.83-.12,1.24,0,.38.14.71.41.99.31.31.6.47.87.47.85,0,1.66-.16,2.45-.47.79-.31,1.54-.73,2.27-1.25.49-.35,1-.74,1.54-1.18.54-.44,1.12-.96,1.76-1.57.23-.22.46-.44.7-.64.23-.2.46-.38.69-.54.23-.16.44-.28.65-.38.2-.1.4-.14.57-.14.39,0,.58.2.58.61Z"/><path class="cls-1" d="m78.54,184.38c0,.1-.04.23-.11.37-.07.15-.17.31-.3.51-.07.12-.17.26-.3.41-.12.16-.25.32-.39.48-.14.16-.27.32-.41.48-.13.16-.26.29-.37.4-.42.43-.88.85-1.36,1.25s-.98.76-1.51,1.07-1.07.56-1.62.75-1.13.28-1.73.28c-.51,0-.96-.09-1.34-.28s-.68-.48-.9-.89c-.07-.13-.15-.35-.23-.64s-.15-.6-.22-.93c-.07-.33-.12-.66-.17-.98-.04-.32-.07-.58-.09-.78,0-.13-.02-.29-.03-.46-.02-.17-.04-.34-.06-.5-.03-.16-.06-.29-.1-.4-.04-.11-.09-.16-.16-.16-.07,0-.14.02-.21.06-.13.07-.35.24-.66.52-.31.28-.66.63-1.05,1.06-.39.43-.81.91-1.25,1.46-.44.55-.85,1.12-1.25,1.72-.15.22-.3.47-.46.74s-.31.55-.46.83c-.15.28-.3.55-.45.81-.14.26-.28.49-.4.69-.08.12-.18.22-.29.31-.11.09-.22.15-.33.21-.11.05-.21.09-.3.11s-.16.03-.2.03c-.16,0-.32-.04-.46-.11-.15-.07-.27-.17-.38-.28-.11-.12-.19-.25-.26-.4-.06-.15-.1-.3-.1-.45,0-.08.01-.23.04-.44.03-.21.06-.45.1-.72.04-.27.08-.55.12-.84s.08-.56.11-.8c.06-.48.12-1,.18-1.56.06-.57.12-1.13.18-1.71.06-.57.11-1.13.16-1.68.05-.55.08-1.04.11-1.48,0-.14.02-.33.03-.56s.03-.49.05-.78c.02-.29.04-.58.05-.89s.03-.61.05-.91c.02-.3.03-.58.04-.84.01-.26.02-.48.03-.66,0-.21.02-.4.04-.59.02-.18.05-.36.09-.54s.09-.36.16-.54c.06-.18.15-.38.25-.6.04-.08.1-.17.18-.27.08-.1.18-.19.29-.27s.24-.15.38-.21c.14-.06.28-.08.42-.08.31,0,.58.11.8.33s.33.53.33.92c0,.11-.01.26-.04.45-.03.19-.06.37-.09.55-.03.18-.06.34-.09.49-.03.14-.04.24-.04.27-.02.1-.05.29-.09.56s-.08.59-.13.96c-.05.37-.1.77-.15,1.21-.05.43-.11.87-.16,1.32s-.11.87-.16,1.29c-.05.42-.1.79-.14,1.12s-.07.59-.09.8-.04.33-.04.36c-.02.15-.05.36-.08.63-.03.27-.07.55-.11.84s-.08.56-.11.81-.06.43-.07.55c.07-.1.15-.23.26-.4.11-.17.22-.34.33-.51.12-.17.22-.34.33-.5.1-.16.18-.27.23-.35.12-.18.26-.38.42-.6.16-.22.33-.45.51-.69.18-.23.36-.46.56-.69.19-.23.38-.43.56-.62.23-.24.49-.48.78-.74s.59-.48.92-.69c.32-.21.65-.38.98-.51.33-.13.66-.2.97-.2.08,0,.18.02.31.06.12.04.25.09.37.16.12.07.24.16.34.26.1.1.18.22.22.36.1.27.18.59.25.98.07.38.13.78.18,1.19.06.41.11.82.17,1.23.06.41.13.77.2,1.09.07.32.16.58.26.79.1.2.22.3.37.3.2,0,.39,0,.56-.02.17-.01.35-.04.51-.08.17-.04.34-.08.51-.14s.35-.14.55-.23c.41-.2.76-.39,1.06-.57.3-.18.58-.37.84-.56s.53-.42.8-.66c.27-.24.58-.52.93-.84.37-.34.7-.62.98-.83.28-.21.48-.32.61-.32.09,0,.16.02.22.06.06.04.1.08.13.14s.05.12.06.18c.01.07.02.13.02.18Z"/><path class="cls-1" d="m101.61,182.43c0,.13-.03.28-.08.42-.06.15-.13.29-.23.43s-.21.27-.33.38c-.12.12-.25.22-.37.3-.27.18-.66.33-1.17.47-.51.13-1.12.2-1.85.2-.21,0-.43-.02-.66-.04s-.47-.07-.71-.12c-.24-.05-.48-.12-.71-.2s-.46-.17-.67-.26c.04.07.08.16.11.27s.05.24.06.36c.01.13.02.25.02.36s0,.21,0,.27c0,.48-.08.95-.25,1.42-.17.47-.39.92-.66,1.36s-.59.83-.94,1.2c-.35.37-.71.69-1.07.95-.29.22-.61.4-.96.56s-.72.29-1.12.39-.79.18-1.2.23c-.41.05-.83.08-1.25.08-.35,0-.68-.09-1-.26-.32-.17-.6-.39-.84-.66-.24-.27-.44-.58-.58-.92-.15-.34-.22-.68-.22-1.01,0-.59.08-1.17.24-1.72.16-.55.37-1.08.64-1.59.27-.51.58-1.02.94-1.51.36-.49.73-.98,1.13-1.47.23-.28.49-.56.79-.83.3-.27.61-.51.94-.72s.67-.38,1-.51c.34-.13.66-.19.98-.19.26,0,.49.03.67.09.19.06.36.14.52.25s.31.24.46.4c.15.16.3.33.47.52l.23.26c.06.06.22.15.48.27.26.12.58.24.94.35.36.12.75.22,1.15.31s.77.13,1.09.13.65,0,.95-.01c.3,0,.6-.04.9-.08.3-.05.62-.12.95-.22.33-.1.7-.24,1.1-.42.04.07.07.15.08.26s.03.19.03.25Zm-8.65,2.51c0-.19,0-.38-.03-.58s-.06-.39-.12-.56-.14-.33-.25-.46c-.1-.13-.24-.22-.41-.26-.26-.07-.47-.14-.64-.22-.16-.08-.29-.15-.39-.22-.1-.07-.16-.12-.2-.17s-.06-.07-.08-.07c-.06,0-.14.05-.25.15-.11.1-.23.23-.36.39-.13.16-.26.32-.4.5-.14.18-.27.35-.4.5-.16.19-.3.38-.44.56-.14.18-.27.37-.4.57-.13.2-.26.4-.38.62-.13.21-.26.45-.39.71-.12.24-.21.53-.27.88s-.09.67-.09.98c0,.13.02.25.04.38.03.13.07.25.13.35.06.1.14.19.23.26.1.07.22.1.36.1.34,0,.63-.02.86-.05.23-.03.45-.09.65-.18.2-.09.4-.2.61-.35.2-.15.45-.33.74-.54.13-.1.27-.23.4-.36.13-.14.27-.29.4-.45.13-.16.26-.33.39-.5.13-.17.24-.34.35-.51.06-.09.11-.21.15-.35.04-.14.07-.29.1-.44.03-.15.04-.29.06-.41.01-.13.02-.21.02-.27h0Z"/><path class="cls-1" d="m118.93,182.78c0,.42-.15.88-.44,1.38-.29.5-.68,1.01-1.15,1.51-.47.51-1,1-1.58,1.47-.58.48-1.17.9-1.75,1.27-.58.37-1.14.66-1.66.89-.52.22-.95.33-1.29.33-.48,0-.88-.1-1.21-.31-.33-.21-.61-.48-.83-.81-.22-.34-.39-.72-.52-1.16-.13-.43-.22-.88-.28-1.34-.11.27-.26.56-.45.87-.19.31-.39.62-.6.93s-.43.59-.65.86c-.22.27-.42.5-.61.7-.26.27-.55.54-.86.8-.31.26-.65.48-1,.67s-.73.35-1.13.46c-.4.12-.81.17-1.24.17-.36,0-.69-.08-.96-.23-.28-.15-.51-.35-.7-.6-.19-.25-.33-.53-.42-.84s-.14-.63-.14-.95c0-.28.02-.57.07-.88.05-.3.1-.61.16-.92s.12-.61.17-.91c.06-.3.09-.59.12-.88.01-.22.03-.45.04-.69s.03-.49.04-.74c.01-.25.04-.5.06-.75.03-.25.06-.48.1-.7.03-.16.07-.3.13-.45.06-.14.14-.27.24-.37.1-.11.24-.19.4-.26.16-.06.35-.09.58-.09.47,0,.8.14.99.42.19.28.28.7.28,1.27,0,.17-.01.37-.03.59-.02.22-.05.46-.09.7s-.08.49-.13.73c-.05.25-.1.48-.16.7-.13.5-.25.98-.36,1.46-.11.47-.17.89-.17,1.27,0,.24.04.44.13.59.09.16.19.23.32.23.32,0,.65-.1,1-.3s.68-.44,1.01-.74.64-.61.93-.96c.29-.35.54-.66.75-.95.19-.27.39-.6.59-.99s.39-.81.58-1.24c.19-.43.37-.87.55-1.29.18-.43.34-.81.48-1.13.19-.44.42-.78.67-1.01.25-.24.5-.36.74-.36.28,0,.49.06.62.17s.2.32.2.61c0,.12-.02.3-.04.55-.03.25-.06.5-.1.77-.04.27-.07.53-.1.78-.03.25-.04.44-.04.56,0,.12,0,.26,0,.43s0,.35.02.53c0,.18.02.36.04.53s.04.32.06.43c.03.13.08.29.15.49.07.2.15.4.25.59.1.19.21.35.33.49.12.14.25.21.38.21.39,0,.8-.1,1.23-.3.43-.2.88-.46,1.33-.79.45-.32.91-.69,1.37-1.1s.9-.82,1.33-1.23c.18-.17.35-.34.53-.52.17-.17.34-.33.51-.47.16-.14.32-.25.46-.34.14-.09.26-.13.37-.13.12,0,.21.04.28.11.07.07.11.14.11.2Z"/><path class="cls-1" d="m128.34,181.99c0,.14-.03.27-.09.38s-.13.22-.22.31c-.09.09-.19.18-.29.25-.11.07-.21.14-.31.2-.33.15-.69.28-1.08.39-.38.11-.76.21-1.14.29s-.75.14-1.11.2c-.36.05-.69.1-1,.13-.21.02-.43.05-.65.07s-.45.05-.66.07c-.22.02-.42.04-.6.07-.19.02-.35.04-.48.07-.16.63-.32,1.24-.46,1.82-.15.58-.27,1.13-.37,1.64-.01.09-.04.21-.07.37-.03.16-.06.33-.1.51-.03.19-.06.38-.09.59-.03.2-.06.4-.08.58-.03.18-.05.35-.06.49s-.02.25-.02.33c0,.26.04.44.12.55.08.11.16.2.25.26.15.12.27.23.37.35.1.11.15.26.15.46,0,.15-.05.29-.16.42-.1.13-.23.24-.39.34s-.32.17-.5.23-.35.09-.5.09c-.27,0-.51-.07-.72-.2s-.4-.3-.56-.52-.28-.46-.36-.74c-.08-.27-.12-.56-.12-.85,0-.49.04-1.03.11-1.62.07-.59.18-1.18.32-1.77.06-.26.12-.55.2-.86.07-.31.14-.61.2-.89s.11-.53.16-.75c.04-.22.07-.37.09-.44-.16,0-.38.03-.67.07-.29.04-.64.06-1.04.06-.33,0-.62-.02-.85-.06s-.42-.12-.57-.23c-.15-.11-.26-.26-.32-.46-.07-.19-.1-.45-.1-.76,0-.18.06-.32.19-.43s.28-.19.47-.25c.19-.06.38-.09.58-.11.2-.02.38-.03.54-.03.07,0,.2,0,.39-.03.19-.02.39-.04.61-.06.22-.02.43-.04.64-.06.2-.02.36-.03.47-.03.04,0,.08-.07.14-.21.06-.14.11-.32.17-.55.06-.22.12-.47.18-.74.06-.27.12-.54.18-.8s.11-.51.16-.73c.05-.22.09-.4.12-.52.08-.31.15-.66.21-1.05s.14-.75.25-1.1.27-.64.47-.87c.21-.23.5-.35.88-.35.4,0,.7.09.89.26.19.17.29.46.29.87,0,.19-.02.41-.05.66-.03.25-.09.51-.17.76-.18.57-.33,1.11-.46,1.61-.13.5-.23.93-.31,1.3s-.15.76-.22,1.18c.3,0,.6,0,.88,0,.28,0,.56-.01.85-.02.29-.01.59-.03.91-.05s.66-.06,1.03-.1c.43-.05.79-.1,1.09-.16.3-.05.56-.1.79-.15s.43-.08.62-.11c.19-.03.38-.04.58-.04.1,0,.2.03.29.08.09.06.14.19.14.4Z"/><path class="cls-1" d="m145.51,183.27c0,.07-.03.17-.09.27-.06.11-.13.22-.22.33-.09.11-.19.22-.31.32s-.23.18-.34.24c-.11.05-.3.12-.56.19-.26.07-.56.15-.91.22-.35.07-.72.14-1.12.2-.4.06-.79.11-1.17.15-.33.03-.62.06-.86.08-.24.03-.46.05-.65.07s-.38.03-.55.04c-.17.01-.36.02-.56.02-.01.15-.04.4-.09.74-.04.35-.1.74-.15,1.18s-.12.91-.18,1.41c-.06.49-.13.97-.19,1.42-.06.45-.12.86-.17,1.22-.05.36-.09.63-.12.81-.07.41-.14.83-.23,1.27-.09.44-.19.81-.3,1.1-.14.38-.32.74-.54,1.09s-.47.68-.75,1c-.58.65-1.28.97-2.09.97-.18,0-.36-.03-.54-.1-.18-.06-.35-.14-.49-.25-.15-.1-.26-.21-.35-.34-.09-.13-.13-.25-.13-.38,0-.12.03-.26.08-.43s.13-.33.22-.47c.1-.15.21-.28.33-.38.13-.11.27-.16.42-.16.04,0,.1,0,.17.02.07.01.15.03.22.04s.16.03.23.04c.08.01.15.02.21.02.13-.09.24-.22.33-.4.09-.18.17-.38.25-.6.07-.22.14-.46.2-.71s.11-.49.16-.73c.1-.5.18-.97.26-1.43.08-.45.15-.9.22-1.33.07-.43.13-.86.18-1.28.05-.42.09-.85.12-1.28.01-.1.03-.23.05-.39.02-.16.04-.32.06-.5s.03-.36.04-.53c.01-.17.02-.33.02-.47,0-.05-.04-.12-.11-.19s-.16-.16-.25-.26-.17-.2-.25-.31c-.07-.11-.11-.23-.11-.35.02-.19.25-.55.68-1.08.19-.23.32-.43.41-.59.09-.16.15-.32.19-.49.04-.16.07-.34.08-.54s.05-.44.09-.73c.07-.42.13-.81.19-1.16s.13-.68.22-1c.08-.32.19-.63.32-.93s.29-.62.48-.96c.16-.27.35-.54.57-.81.23-.28.48-.52.76-.75.28-.22.57-.4.89-.54s.63-.21.95-.21c.67,0,1.22.22,1.66.66.49.47.74,1.01.74,1.62,0,.74-.29,1.54-.86,2.39-.36.55-.75.83-1.19.83h-.2c.1-.36.17-.71.21-1.03.04-.32.07-.61.07-.88,0-.12,0-.28-.02-.47-.01-.2-.04-.39-.09-.57-.04-.19-.1-.35-.18-.49s-.17-.21-.28-.21c-.07,0-.16.05-.27.16s-.21.23-.32.39c-.11.16-.21.33-.32.51s-.2.36-.28.54c-.1.21-.2.5-.31.88-.11.38-.22.78-.31,1.2s-.18.86-.26,1.28-.13.8-.16,1.13v.45s.05.08.16.11c.1.03.24.05.42.06s.37.02.6.03c.22,0,.45,0,.68,0,.39,0,.76,0,1.11-.02.35-.01.7-.04,1.05-.07s.7-.08,1.07-.13c.36-.05.74-.12,1.13-.19.06,0,.12-.01.17-.02s.12,0,.18,0c.37,0,.56.15.56.45Z"/><path class="cls-1" d="m159.03,182.43c0,.13-.03.28-.08.42-.06.15-.13.29-.23.43s-.21.27-.33.38c-.12.12-.25.22-.37.3-.27.18-.66.33-1.17.47-.51.13-1.12.2-1.85.2-.21,0-.43-.02-.66-.04s-.47-.07-.71-.12c-.24-.05-.48-.12-.71-.2s-.46-.17-.67-.26c.04.07.08.16.11.27s.05.24.06.36c.01.13.02.25.02.36s0,.21,0,.27c0,.48-.08.95-.25,1.42-.17.47-.39.92-.66,1.36s-.59.83-.94,1.2c-.35.37-.71.69-1.07.95-.29.22-.61.4-.96.56s-.72.29-1.12.39-.79.18-1.2.23c-.41.05-.83.08-1.25.08-.35,0-.68-.09-1-.26-.32-.17-.6-.39-.84-.66-.24-.27-.44-.58-.58-.92-.15-.34-.22-.68-.22-1.01,0-.59.08-1.17.24-1.72.16-.55.37-1.08.64-1.59.27-.51.58-1.02.94-1.51.36-.49.73-.98,1.13-1.47.23-.28.49-.56.79-.83.3-.27.61-.51.94-.72s.67-.38,1-.51c.34-.13.66-.19.98-.19.26,0,.49.03.67.09.19.06.36.14.52.25s.31.24.46.4c.15.16.3.33.47.52l.23.26c.06.06.22.15.48.27.26.12.58.24.94.35.36.12.75.22,1.15.31s.77.13,1.09.13.65,0,.95-.01c.3,0,.6-.04.9-.08.3-.05.62-.12.95-.22.33-.1.7-.24,1.1-.42.04.07.07.15.08.26s.03.19.03.25Zm-8.65,2.51c0-.19,0-.38-.03-.58s-.06-.39-.12-.56-.14-.33-.25-.46c-.1-.13-.24-.22-.41-.26-.26-.07-.47-.14-.64-.22-.16-.08-.29-.15-.39-.22-.1-.07-.16-.12-.2-.17s-.06-.07-.08-.07c-.06,0-.14.05-.25.15-.11.1-.23.23-.36.39-.13.16-.26.32-.4.5-.14.18-.27.35-.4.5-.16.19-.3.38-.44.56-.14.18-.27.37-.4.57-.13.2-.26.4-.38.62-.13.21-.26.45-.39.71-.12.24-.21.53-.27.88s-.09.67-.09.98c0,.13.02.25.04.38.03.13.07.25.13.35.06.1.14.19.23.26.1.07.22.1.36.1.34,0,.63-.02.86-.05.23-.03.45-.09.65-.18.2-.09.4-.2.61-.35.2-.15.45-.33.74-.54.13-.1.27-.23.4-.36.13-.14.27-.29.4-.45.13-.16.26-.33.39-.5.13-.17.24-.34.35-.51.06-.09.11-.21.15-.35.04-.14.07-.29.1-.44.03-.15.04-.29.06-.41.01-.13.02-.21.02-.27h0Z"/><path class="cls-1" d="m167.55,182.81c0,.07-.02.16-.04.27-.03.11-.07.22-.13.33s-.14.21-.23.29c-.09.08-.21.13-.34.13-.03,0-.09,0-.19,0-.1,0-.2,0-.31-.02-.11,0-.22-.01-.31-.02-.1,0-.17,0-.21,0-1.24.07-2.32.51-3.22,1.34-.21.19-.42.41-.64.66s-.43.53-.65.83c-.21.3-.42.62-.61.96s-.37.7-.52,1.07c-.13.3-.25.62-.37.94-.12.32-.22.66-.31,1.02-.05.19-.09.36-.12.51-.03.14-.07.31-.13.51-.04.12-.1.22-.19.31-.09.08-.19.16-.31.21-.12.06-.24.1-.37.13s-.26.05-.38.06c-.48,0-.8-.22-.98-.65-.18-.43-.27-1.07-.27-1.93,0-.19,0-.38,0-.55s.01-.34.02-.52c.01-.17.02-.36.04-.55.01-.19.03-.4.06-.64.03-.35.07-.76.12-1.24s.11-.97.17-1.46c.06-.49.12-.97.2-1.43s.14-.85.22-1.17c.09-.39.24-.7.45-.93.21-.22.52-.33.93-.33.12,0,.24.03.36.09.12.06.23.14.33.23s.18.19.25.29c.07.1.1.2.11.28v.2c.01.21,0,.45-.04.74-.04.28-.09.58-.15.9-.06.32-.13.64-.2.96-.07.32-.14.63-.21.93-.07.29-.13.57-.19.81s-.1.46-.13.62c.26-.55.54-1.08.84-1.59.3-.51.62-.98.96-1.42.34-.43.71-.82,1.1-1.17.39-.34.82-.62,1.27-.83.36-.16.68-.29.98-.37.3-.09.57-.13.8-.13.28,0,.57.03.88.09.3.06.58.15.83.26s.46.25.62.42.25.35.25.56Z"/><path class="cls-1" d="m25.94,211.65c0,.09-.02.2-.05.32-.03.12-.08.25-.13.37-.05.12-.11.24-.17.36s-.12.21-.18.3c-.04.05-.1.12-.18.22s-.17.2-.28.31c-.1.12-.22.24-.35.37-.13.13-.26.27-.4.4-.43.4-.87.8-1.31,1.19-.44.39-.91.74-1.39,1.04-.48.3-.99.54-1.52.73-.53.19-1.09.28-1.68.28-.25,0-.51-.06-.77-.17-.26-.11-.5-.26-.72-.46-.22-.19-.42-.43-.59-.7-.17-.27-.28-.56-.35-.88-.13.22-.31.46-.52.72-.22.26-.45.51-.71.76-.26.25-.52.49-.8.72-.28.23-.53.42-.77.59-.16.11-.36.23-.6.35s-.48.23-.74.33c-.26.1-.52.18-.79.25s-.51.09-.73.09c-.36,0-.67-.1-.94-.31-.27-.2-.49-.46-.66-.75-.17-.3-.3-.61-.39-.95-.08-.33-.13-.64-.13-.9,0-.49.07-.99.22-1.5.14-.51.33-1.01.56-1.49.23-.48.48-.94.76-1.38.28-.44.55-.83.82-1.17.28-.36.62-.71,1.01-1.07s.81-.67,1.24-.95c.43-.28.86-.5,1.28-.67.42-.17.79-.26,1.12-.26.18,0,.36,0,.55.02.19.01.38.03.56.05.19.02.36.06.54.1s.32.1.46.17c.09.06.19.17.3.32.11.15.21.32.3.49s.17.35.24.52c.07.17.1.31.1.4,0,.21-.03.46-.09.74-.06.29-.13.59-.21.9-.08.31-.15.63-.22.96-.07.33-.1.64-.1.94,0,.21.03.42.09.64s.15.41.26.59.25.32.4.43c.16.11.33.17.52.17.44,0,.87-.08,1.3-.25.43-.16.86-.39,1.29-.67.43-.29.86-.62,1.29-1.01.43-.39.87-.81,1.3-1.27.01,0,.07-.06.18-.17.1-.11.23-.23.37-.37.14-.13.3-.26.46-.37.16-.11.3-.17.42-.17.22,0,.36.06.42.19.07.13.1.32.1.58Zm-10.14-1.15c0-.07-.01-.14-.04-.23-.03-.09-.06-.17-.1-.25s-.09-.14-.14-.2c-.05-.06-.1-.08-.14-.08-.49,0-.94.13-1.34.4-.41.26-.83.62-1.27,1.08-.25.25-.51.58-.79.99-.28.42-.54.86-.78,1.33-.24.47-.43.94-.59,1.41-.16.47-.23.88-.23,1.24,0,.09,0,.18.02.26.01.09.03.16.07.23.03.07.08.12.14.17.06.04.14.07.23.07.28,0,.6-.09.96-.27.36-.18.72-.42,1.08-.71.36-.29.71-.63,1.05-1.02.34-.38.62-.78.85-1.18.28-.49.52-1,.73-1.54.2-.54.3-1.09.3-1.67Z"/><path class="cls-1" d="m43.49,211.16c0,.14-.03.3-.08.46-.05.17-.12.33-.2.5-.08.16-.16.32-.26.46-.09.15-.18.27-.26.36-.24.3-.5.61-.8.95s-.6.67-.92.99c-.32.33-.65.64-.98.94-.33.3-.67.56-1,.79-.26.18-.51.34-.75.5-.24.15-.49.29-.75.41-.26.12-.53.21-.81.28-.29.07-.6.1-.94.1-.56,0-1.02-.11-1.39-.33-.37-.22-.67-.52-.9-.89-.23-.37-.41-.8-.53-1.28s-.22-.98-.28-1.5c-.1-.71-.21-1.27-.32-1.68-.12-.41-.26-.62-.44-.62-.15,0-.29.04-.43.11-.14.07-.32.22-.53.45s-.48.57-.8,1.01-.75,1.03-1.27,1.77c-.18.25-.4.54-.65.85-.26.31-.53.61-.81.9-.28.29-.56.54-.84.76-.28.22-.54.37-.78.45-.94-.21-1.41-1.1-1.41-2.69,0-.4.04-.99.13-1.77.04-.35.09-.72.15-1.1.06-.39.13-.78.21-1.17.08-.39.19-.77.31-1.15.12-.38.26-.72.41-1.04.09-.18.19-.32.3-.42.11-.1.22-.18.34-.23s.24-.08.36-.1c.13-.01.25-.02.38-.02.11,0,.22.03.32.08.1.06.2.14.28.24.08.1.15.23.2.38.05.15.07.32.07.51,0,.17-.01.33-.04.49-.03.16-.07.32-.12.49-.05.17-.11.34-.16.53-.06.19-.11.4-.17.64-.04.16-.09.36-.16.6-.07.25-.14.5-.21.76-.07.26-.14.52-.2.78s-.1.46-.11.64c.13-.16.29-.35.46-.59.17-.23.36-.49.55-.76s.39-.55.59-.83c.2-.28.4-.55.6-.8.26-.33.52-.64.77-.93s.52-.54.8-.75c.28-.21.58-.38.91-.5.33-.12.69-.18,1.1-.18.48,0,.88.1,1.18.3s.55.47.73.82c.18.35.32.76.41,1.24.09.48.16,1,.21,1.57.03.29.07.59.12.89.05.31.12.58.22.83s.22.45.38.61c.16.16.35.24.58.24.34,0,.71-.09,1.12-.27.4-.18.83-.43,1.28-.75.45-.32.9-.69,1.37-1.12s.94-.88,1.41-1.36c.15-.16.29-.31.43-.46s.27-.29.4-.41c.13-.12.25-.22.37-.3.12-.07.24-.11.36-.11.04,0,.1,0,.16.02.06.01.12.03.17.07s.09.08.13.14c.03.06.05.14.05.25Z"/><path class="cls-1" d="m64.56,211.43c0,.13-.1.38-.3.74-.39.56-.82,1.11-1.29,1.66-.47.55-.98,1.07-1.51,1.56-.54.49-1.09.95-1.67,1.37s-1.17.78-1.76,1.09-1.19.54-1.78.72c-.59.17-1.17.26-1.73.26-1.27,0-2.26-.36-2.97-1.08s-1.07-1.8-1.07-3.25c0-.58.04-1.15.12-1.71s.22-1.12.41-1.66c.19-.55.44-1.08.74-1.61.3-.53.68-1.04,1.13-1.54.16-.19.35-.36.57-.54.22-.17.45-.32.7-.46.25-.13.51-.24.78-.32.27-.08.54-.12.81-.12.39,0,.73.07,1.02.22s.52.35.71.6c.19.25.32.54.41.86.09.32.13.66.13,1.02,0,.66-.25,1.35-.74,2.06-.49.71-1.17,1.44-2.04,2.18-.28.24-.61.5-.98.77-.37.28-.79.59-1.25.94.01.19.07.36.16.52.09.16.22.31.38.43.16.12.35.22.57.29s.48.11.76.11c.36,0,.75-.05,1.16-.14.41-.09.81-.22,1.22-.37s.79-.34,1.17-.54c.38-.2.72-.42,1.04-.64.55-.39,1.08-.82,1.59-1.28.51-.46,1-.92,1.48-1.4l.59-.59c.41-.36.76-.55,1.05-.55.15,0,.25.05.31.15.06.1.08.19.08.26Zm-8.7-2.05c0-.16-.02-.32-.05-.47-.03-.15-.09-.24-.16-.28-.25,0-.52.11-.81.32-.29.22-.56.52-.82.92-.26.4-.49.88-.7,1.44-.2.56-.35,1.18-.45,1.87.35-.26.7-.53,1.05-.82s.67-.59.96-.9.52-.64.7-.99c.18-.35.27-.71.27-1.1Z"/><path class="cls-1" d="m74.32,211.07c0,.2-.09.45-.27.75-.18.3-.4.62-.67.95s-.57.67-.91,1.02c-.33.35-.66.67-.97.98-.19.18-.46.43-.83.74s-.77.66-1.22,1.04c-.45.38-.92.77-1.41,1.18-.49.41-.95.78-1.39,1.13-.43.35-.82.65-1.15.91-.33.26-.57.44-.71.54-.46.3-.89.54-1.29.7-.4.16-.75.25-1.07.25-.26,0-.48-.02-.66-.07-.18-.05-.32-.11-.43-.19s-.19-.17-.25-.27c-.05-.1-.08-.2-.08-.31,0-.26.05-.49.14-.7s.25-.4.45-.57c.2-.18.46-.35.78-.52.32-.17.69-.34,1.12-.52.28-.11.54-.22.76-.32.23-.1.42-.22.59-.34.17-.12.29-.26.38-.42.09-.16.13-.35.13-.57,0-.05-.04-.15-.11-.29-.07-.14-.16-.3-.27-.49-.11-.19-.24-.39-.37-.61-.14-.22-.27-.43-.41-.65s-.26-.41-.38-.6c-.12-.19-.21-.34-.28-.47-.3-.56-.46-1.14-.46-1.73,0-.25.02-.51.07-.78.04-.27.12-.54.22-.81.1-.34.25-.68.47-1,.22-.33.46-.62.73-.88.27-.26.54-.46.81-.62s.51-.23.71-.23c.27,0,.49.02.66.07.17.05.3.12.4.22s.16.23.2.38.06.34.06.55c0,.18-.04.35-.13.52-.09.17-.2.33-.32.48-.13.15-.26.29-.4.41-.14.13-.26.24-.37.33-.16.14-.31.27-.45.4-.14.12-.25.23-.33.32,0,.47.12.9.35,1.29.11.19.25.43.42.71.17.28.34.57.51.86s.34.57.5.84.28.48.37.64c.11-.05.27-.15.49-.29.21-.15.46-.32.74-.52.28-.21.59-.43.91-.69.32-.25.65-.51.98-.78s.64-.53.95-.8c.3-.26.58-.51.83-.75.21-.2.38-.37.52-.52.14-.14.26-.26.36-.36s.19-.16.26-.21c.07-.05.16-.07.25-.07.1,0,.18.04.24.11s.11.15.15.23c.04.08.06.17.08.24.02.08.02.12.02.13Z"/><path class="cls-1" d="m83.96,209.4c0,.14-.03.27-.09.38s-.13.22-.22.31c-.09.09-.19.18-.3.25-.11.07-.21.14-.31.2-.33.15-.69.28-1.08.39-.38.11-.76.21-1.14.29-.38.08-.75.14-1.11.2-.36.05-.69.1-1,.13-.21.02-.43.05-.65.07-.23.03-.45.05-.66.07s-.42.04-.6.07c-.19.02-.35.04-.48.07-.16.63-.32,1.24-.46,1.82-.14.58-.27,1.13-.37,1.64-.02.09-.04.21-.07.37-.03.16-.06.33-.09.51s-.07.38-.09.59c-.03.2-.06.4-.08.58-.03.18-.05.35-.06.49-.02.14-.02.25-.02.33,0,.26.04.44.12.55.08.11.16.2.25.26.15.12.27.23.37.35.1.11.15.26.15.46,0,.15-.05.29-.16.42-.1.13-.23.24-.39.34s-.32.17-.5.23-.35.09-.5.09c-.27,0-.51-.07-.72-.2-.22-.13-.4-.3-.56-.52-.16-.22-.28-.46-.36-.74-.08-.27-.12-.56-.12-.85,0-.49.04-1.03.11-1.62.07-.59.18-1.18.32-1.77.06-.26.12-.55.2-.86.07-.31.14-.61.2-.89.06-.28.11-.53.16-.75.04-.22.07-.37.09-.44-.16,0-.38.03-.67.07-.29.04-.64.06-1.04.06-.33,0-.62-.02-.85-.06s-.42-.12-.57-.23c-.15-.11-.26-.26-.32-.46-.07-.19-.1-.45-.1-.76,0-.18.06-.32.19-.43.13-.11.28-.19.47-.25.19-.06.38-.09.58-.11.2-.02.38-.03.54-.03.07,0,.21,0,.39-.03s.39-.04.61-.06c.22-.02.43-.04.64-.06.2-.02.36-.03.47-.03.04,0,.08-.07.14-.21.06-.14.11-.32.17-.55.06-.22.12-.47.18-.74.06-.27.12-.54.18-.8s.11-.51.16-.73c.05-.22.09-.4.12-.52.08-.31.15-.66.21-1.05.06-.39.14-.75.25-1.1.11-.35.27-.64.47-.87.2-.23.5-.35.88-.35.4,0,.7.09.89.26.19.17.29.46.29.87,0,.19-.02.41-.05.66-.03.25-.09.51-.17.76-.18.57-.33,1.11-.46,1.61-.13.5-.23.93-.31,1.3s-.15.76-.22,1.18c.3,0,.6,0,.88,0,.28,0,.56-.01.85-.02.29-.01.59-.03.91-.05.32-.02.66-.06,1.03-.1.43-.05.8-.1,1.09-.16.3-.05.56-.1.79-.15.23-.04.43-.08.62-.11.19-.03.38-.04.58-.04.1,0,.2.03.29.08.09.06.14.19.14.4Z"/><path class="cls-1" d="m92.95,212c0,.17-.07.39-.2.65-.13.26-.31.56-.54.88-.23.32-.5.67-.81,1.04s-.65.75-1.02,1.13c-.39.42-.82.84-1.28,1.25-.46.41-.95.8-1.47,1.18-.51.37-1.02.66-1.52.86-.5.21-.97.31-1.42.31-.52,0-.97-.09-1.36-.26-.38-.17-.71-.41-.98-.71-.27-.3-.49-.65-.66-1.04s-.31-.8-.41-1.24-.17-.88-.21-1.32c-.04-.45-.06-.87-.06-1.27,0-.16.01-.39.03-.7s.05-.64.09-.99.09-.68.13-1c.05-.32.1-.58.15-.76.11-.36.37-.71.77-1.04.39-.31.82-.47,1.29-.47s.73.29.73.87c0,.28-.02.57-.07.88-.05.31-.1.61-.16.91-.1.54-.16,1.03-.2,1.47-.04.44-.06.82-.06,1.15,0,.38.02.75.07,1.1.04.36.11.67.2.95.08.28.19.5.32.67s.28.26.46.26c.22,0,.45-.02.69-.06.24-.04.52-.15.86-.33.64-.35,1.32-.82,2.04-1.42.25-.21.54-.46.86-.74s.64-.58.96-.88c.32-.3.62-.6.9-.89.28-.29.5-.54.67-.75.02-.04.05-.08.09-.14s.09-.11.14-.17.11-.11.17-.15.12-.06.18-.06c.12,0,.21.02.26.05.06.03.12.14.18.31.08.19.12.34.12.47Zm-6.94-9.18c0,.25-.04.48-.11.7-.08.22-.18.43-.32.62-.28.39-.72.59-1.3.59-.21,0-.42-.02-.64-.06s-.41-.09-.58-.16c-.17-.07-.31-.15-.42-.26-.11-.1-.17-.22-.17-.36,0-.23.06-.47.18-.73.12-.26.27-.5.46-.71.19-.22.4-.4.62-.55.23-.15.44-.22.65-.22.26,0,.49.02.69.05.2.03.37.09.51.17s.24.2.32.35c.07.15.11.33.11.56Z"/><path class="cls-1" d="m116.2,211.42c0,.07-.02.15-.05.26s-.08.22-.13.35c-.05.12-.11.25-.18.37-.07.13-.14.25-.21.36-.12.19-.28.4-.48.65-.2.25-.42.5-.67.77-.25.27-.5.54-.78.8s-.55.52-.81.75c-.22.18-.47.38-.76.59-.29.22-.6.42-.93.6-.33.19-.66.34-1,.46-.34.12-.66.18-.98.18-.29,0-.57-.06-.84-.17s-.52-.33-.76-.65c-.23-.32-.44-.77-.62-1.34s-.32-1.32-.42-2.23c0-.09-.02-.23-.03-.42-.01-.19-.02-.38-.03-.57-.01-.19-.02-.36-.04-.5-.01-.14-.03-.21-.04-.21-.06,0-.16.09-.3.27-.14.18-.3.41-.49.71-.19.29-.4.63-.62,1.01-.22.38-.45.78-.69,1.19-.3.52-.58.99-.84,1.4s-.51.76-.75,1.04c-.23.28-.46.49-.68.64-.22.15-.44.22-.66.22-.34,0-.62-.06-.84-.2-.22-.13-.39-.33-.51-.6-.13-.27-.22-.62-.27-1.05-.05-.43-.09-.93-.1-1.52-.02-.98-.05-1.75-.09-2.3-.04-.55-.1-.83-.17-.83-.09,0-.24.12-.45.35s-.46.55-.74.95-.6.87-.94,1.42c-.34.54-.69,1.13-1.04,1.75-.09.16-.2.35-.32.57-.13.22-.26.44-.39.66s-.27.44-.4.65c-.13.21-.25.39-.35.54-.13.19-.3.34-.49.44s-.4.15-.61.15c-.3,0-.56-.07-.78-.2s-.39-.31-.52-.53c-.13-.22-.23-.49-.3-.79-.06-.3-.09-.63-.09-.97,0-.3,0-.58.02-.83s.04-.49.07-.74c.03-.25.06-.51.11-.79.04-.27.09-.59.14-.95.04-.31.08-.64.1-.99s.04-.68.07-1.02c.02-.33.05-.64.08-.92s.07-.52.12-.7c.04-.13.08-.26.14-.41.06-.15.15-.28.26-.4.11-.12.25-.23.42-.31.17-.09.38-.13.64-.13.23,0,.42.04.56.13.14.08.25.2.32.35.07.14.12.31.15.5.03.19.04.39.04.6,0,.18-.02.42-.07.72-.05.3-.11.64-.18,1.01-.07.37-.15.75-.24,1.15-.09.4-.17.78-.25,1.14s-.15.69-.21.99c-.06.29-.1.52-.12.69.01-.03.06-.1.13-.22.07-.12.16-.26.26-.44s.21-.35.32-.55c.11-.19.22-.38.32-.55s.19-.32.26-.45c.07-.13.12-.2.13-.23.13-.22.29-.47.47-.75.18-.28.36-.56.56-.85s.38-.56.57-.82c.19-.26.36-.48.52-.66.33-.38.69-.67,1.07-.86.38-.19.78-.29,1.2-.29.45,0,.83.16,1.14.47s.51.72.61,1.23c.04.19.07.42.09.7.02.28.04.58.05.89.01.31.02.62.03.93,0,.31.01.59.02.84,0,.25,0,.45.02.6,0,.16.02.23.04.23.07,0,.16-.09.29-.28.13-.19.27-.42.42-.7s.32-.59.49-.92.33-.63.49-.9c.26-.44.54-.86.83-1.27s.58-.76.86-1.07c.29-.31.56-.55.82-.74.26-.18.49-.27.69-.27.14,0,.29.01.44.04.15.03.29.07.43.13s.26.12.37.2.2.17.26.26c.13.2.22.42.28.66.06.24.1.5.13.79.03.29.04.61.06.96.01.35.04.74.08,1.16.08.77.2,1.38.36,1.82.16.44.38.66.67.66.13,0,.29-.05.5-.14.21-.09.43-.21.67-.36.24-.15.49-.31.75-.49s.5-.36.72-.54c.25-.19.48-.39.7-.6.22-.21.44-.42.66-.63.22-.21.44-.44.67-.67.23-.23.47-.48.72-.74.16-.16.33-.23.54-.23.24,0,.36.17.36.51Z"/><path class="cls-1" d="m131.33,211.65c0,.09-.02.2-.05.32s-.08.25-.13.37c-.05.12-.11.24-.17.36-.06.12-.12.21-.18.3-.04.05-.1.12-.18.22-.08.09-.17.2-.28.31-.1.12-.22.24-.35.37s-.26.27-.4.4c-.43.4-.87.8-1.31,1.19-.44.39-.91.74-1.39,1.04-.48.3-.99.54-1.52.73-.53.19-1.09.28-1.68.28-.25,0-.51-.06-.77-.17-.26-.11-.5-.26-.72-.46-.22-.19-.42-.43-.59-.7s-.28-.56-.35-.88c-.13.22-.31.46-.52.72-.21.26-.45.51-.71.76-.26.25-.52.49-.8.72-.28.23-.53.42-.77.59-.16.11-.36.23-.6.35-.23.12-.48.23-.74.33-.26.1-.52.18-.79.25-.26.06-.51.09-.73.09-.36,0-.67-.1-.94-.31s-.49-.46-.66-.75c-.17-.3-.31-.61-.39-.95-.09-.33-.13-.64-.13-.9,0-.49.07-.99.22-1.5.15-.51.33-1.01.56-1.49.23-.48.48-.94.76-1.38.28-.44.55-.83.82-1.17.28-.36.62-.71,1.01-1.07.39-.35.81-.67,1.24-.95.43-.28.86-.5,1.28-.67s.79-.26,1.12-.26c.18,0,.36,0,.55.02.19.01.38.03.56.05.19.02.36.06.54.1.17.04.32.1.46.17.09.06.19.17.29.32.11.15.21.32.3.49s.17.35.24.52c.07.17.1.31.1.4,0,.21-.03.46-.09.74s-.13.59-.21.9c-.08.31-.15.63-.22.96-.07.33-.1.64-.1.94,0,.21.03.42.09.64s.14.41.26.59c.11.17.25.32.4.43.16.11.33.17.52.17.44,0,.87-.08,1.3-.25.43-.16.86-.39,1.29-.67.43-.29.86-.62,1.29-1.01.43-.39.87-.81,1.3-1.27.01,0,.07-.06.18-.17.1-.11.23-.23.37-.37.15-.13.3-.26.46-.37.16-.11.3-.17.42-.17.22,0,.36.06.42.19.07.13.1.32.1.58Zm-10.14-1.15c0-.07-.01-.14-.04-.23-.03-.09-.06-.17-.1-.25s-.09-.14-.14-.2c-.05-.06-.1-.08-.14-.08-.49,0-.94.13-1.34.4-.41.26-.83.62-1.27,1.08-.25.25-.51.58-.79.99-.28.42-.54.86-.78,1.33s-.43.94-.59,1.41c-.16.47-.23.88-.23,1.24,0,.09,0,.18.02.26.01.09.03.16.07.23.03.07.08.12.14.17.06.04.14.07.23.07.28,0,.6-.09.96-.27.36-.18.71-.42,1.08-.71.36-.29.71-.63,1.05-1.02.34-.38.62-.78.85-1.18.28-.49.52-1,.72-1.54.2-.54.3-1.09.3-1.67Z"/><path class="cls-1" d="m141.34,209.4c0,.14-.03.27-.09.38s-.13.22-.22.31c-.09.09-.19.18-.29.25-.11.07-.21.14-.31.2-.33.15-.69.28-1.08.39-.38.11-.76.21-1.14.29s-.75.14-1.11.2c-.36.05-.69.1-1,.13-.21.02-.43.05-.65.07s-.45.05-.66.07c-.22.02-.42.04-.6.07-.19.02-.35.04-.48.07-.16.63-.32,1.24-.46,1.82-.15.58-.27,1.13-.37,1.64-.01.09-.04.21-.07.37-.03.16-.06.33-.1.51-.03.19-.06.38-.09.59-.03.2-.06.4-.08.58-.03.18-.05.35-.06.49s-.02.25-.02.33c0,.26.04.44.12.55.08.11.16.2.25.26.15.12.27.23.37.35.1.11.15.26.15.46,0,.15-.05.29-.16.42-.1.13-.23.24-.39.34s-.32.17-.5.23-.35.09-.5.09c-.27,0-.51-.07-.72-.2s-.4-.3-.56-.52-.28-.46-.36-.74c-.08-.27-.12-.56-.12-.85,0-.49.04-1.03.11-1.62.07-.59.18-1.18.32-1.77.06-.26.12-.55.2-.86.07-.31.14-.61.2-.89s.11-.53.16-.75c.04-.22.07-.37.09-.44-.16,0-.38.03-.67.07-.29.04-.64.06-1.04.06-.33,0-.62-.02-.85-.06s-.42-.12-.57-.23c-.15-.11-.26-.26-.32-.46-.07-.19-.1-.45-.1-.76,0-.18.06-.32.19-.43s.28-.19.47-.25c.19-.06.38-.09.58-.11.2-.02.38-.03.54-.03.07,0,.2,0,.39-.03.19-.02.39-.04.61-.06.22-.02.43-.04.64-.06.2-.02.36-.03.47-.03.04,0,.08-.07.14-.21.06-.14.11-.32.17-.55.06-.22.12-.47.18-.74.06-.27.12-.54.18-.8s.11-.51.16-.73c.05-.22.09-.4.12-.52.08-.31.15-.66.21-1.05s.14-.75.25-1.1.27-.64.47-.87c.21-.23.5-.35.88-.35.4,0,.7.09.89.26.19.17.29.46.29.87,0,.19-.02.41-.05.66-.03.25-.09.51-.17.76-.18.57-.33,1.11-.46,1.61-.13.5-.23.93-.31,1.3s-.15.76-.22,1.18c.3,0,.6,0,.88,0,.28,0,.56-.01.85-.02.29-.01.59-.03.91-.05s.66-.06,1.03-.1c.43-.05.79-.1,1.09-.16.3-.05.56-.1.79-.15s.43-.08.62-.11c.19-.03.38-.04.58-.04.1,0,.2.03.29.08.09.06.14.19.14.4Z"/><path class="cls-1" d="m152.02,211.43c0,.13-.1.38-.3.74-.39.56-.82,1.11-1.29,1.66-.47.55-.98,1.07-1.51,1.56-.54.49-1.09.95-1.67,1.37s-1.17.78-1.76,1.09c-.6.3-1.19.54-1.78.72-.59.17-1.17.26-1.73.26-1.27,0-2.26-.36-2.97-1.08s-1.07-1.8-1.07-3.25c0-.58.04-1.15.12-1.71s.22-1.12.41-1.66c.19-.55.44-1.08.74-1.61.3-.53.68-1.04,1.13-1.54.16-.19.36-.36.57-.54.22-.17.45-.32.7-.46.25-.13.51-.24.78-.32.27-.08.54-.12.81-.12.39,0,.73.07,1.02.22s.52.35.71.6c.19.25.32.54.41.86.09.32.13.66.13,1.02,0,.66-.25,1.35-.74,2.06-.49.71-1.17,1.44-2.04,2.18-.28.24-.61.5-.98.77-.37.28-.79.59-1.25.94.01.19.07.36.16.52.09.16.22.31.38.43s.35.22.57.29c.22.07.48.11.76.11.36,0,.75-.05,1.16-.14.41-.09.81-.22,1.22-.37.4-.16.79-.34,1.17-.54.38-.2.72-.42,1.04-.64.55-.39,1.08-.82,1.59-1.28.51-.46,1-.92,1.48-1.4l.59-.59c.41-.36.76-.55,1.05-.55.15,0,.25.05.31.15.06.1.08.19.08.26Zm-8.7-2.05c0-.16-.02-.32-.05-.47-.03-.15-.09-.24-.16-.28-.25,0-.52.11-.81.32-.29.22-.56.52-.82.92-.26.4-.49.88-.7,1.44-.21.56-.36,1.18-.45,1.87.35-.26.7-.53,1.05-.82.35-.29.67-.59.96-.9.29-.31.52-.64.7-.99s.27-.71.27-1.1Z"/><path class="cls-1" d="m155.52,216.56c0,.16-.04.42-.11.77-.02.1-.1.23-.23.39-.13.16-.33.34-.59.55-.24.19-.46.34-.65.44-.2.1-.36.14-.5.14-.28,0-.51-.03-.68-.09-.17-.06-.3-.16-.4-.29s-.15-.3-.18-.51c-.03-.21-.04-.46-.04-.75,0-.21,0-.38,0-.52,0-.14.02-.26.04-.37.07-.51.72-.77,1.95-.77.3,0,.53.04.71.11.17.07.33.19.47.36.14.14.21.32.21.55Z"/></svg>