<?xml version="1.0" encoding="UTF-8"?><svg id="Layer_1" xmlns="http://www.w3.org/2000/svg" viewBox="0 0 86.37 119.81"><defs><style>.cls-1{fill:#f57e25;}.cls-2{fill:none;}.cls-3{fill:#f7941d;}</style></defs><path class="cls-2" d="m17.56,110.4c-1.83,0-2.52,1.61-2.52,3.23s.69,3.16,2.52,3.16,2.55-1.6,2.55-3.16-.71-3.23-2.55-3.23Z"/><path class="cls-2" d="m55.1,114.87h2.52c-.47-1.41-.89-2.52-1.26-3.46-.37.94-.79,2.05-1.26,3.46Z"/><path class="cls-1" d="m6.22,110.4c.66,0,1.36.08,1.75.17.15.03.27.05.35.05.29,0,.5-.15.59-.42.22-.84.32-1.39.32-1.76,0-.55-.2-.71-.54-.81-.49-.12-1.66-.25-2.74-.25-2.67,0-5.95.92-5.95,6.18s3.39,6.25,5.63,6.25c.92,0,2.22-.13,2.89-.44.66-.32.71-.81.71-2.72,0-.17-.08-.29-.32-.29-.12,0-.25.03-.42.08-.34.1-1.31.34-2.25.34-2.07,0-2.77-1.26-2.77-3.23s.69-3.16,2.75-3.16Z"/><path class="cls-1" d="m17.56,107.38c-4.74,0-6.05,3.07-6.05,6.22s1.33,6.22,6.05,6.22,6.06-3.09,6.06-6.22-1.33-6.22-6.06-6.22Zm0,9.41c-1.83,0-2.52-1.6-2.52-3.16s.69-3.23,2.52-3.23,2.55,1.61,2.55,3.23-.71,3.16-2.55,3.16Z"/><path class="cls-1" d="m35.37,107.38c-.54,0-1.97.12-1.97.74v5.63c-.02-.24-.08-.55-.25-.77l-3.68-4.64c-.54-.76-1.18-.96-1.76-.96-.67,0-1.21.07-1.21.77v10.92c0,.66,1.43.74,1.97.74,1.29,0,1.46-.71,1.46-2.39v-3.9c.07.29.1.66.27.87l3.46,4.42c.64.94,1.24.99,2.02.99.65,0,1.16-.29,1.16-.92v-9.12c0-1.68-.17-2.39-1.46-2.39Z"/><path class="cls-1" d="m49.11,107.55h-8.85c-.84,0-.97.97-.97,1.83,0,.62.24.72,1.04.72h2.65v8.97c0,.66,1.43.74,1.96.74,1.29,0,1.46-.71,1.46-2.39v-7.32h2.69c.71,0,.99-.39.99-1.83,0-.65-.52-.72-.97-.72Z"/><path class="cls-1" d="m58.53,108.97c-.84-1.58-.94-1.6-2.17-1.6s-1.31.02-2.15,1.6c-.66,1.21-2.47,5.48-3.5,9.09-.12.4-.18.72-.18.96,0,.62.45.79,1.7.79.82,0,1.53-.22,1.73-.99l.24-.94h4.32l.25.94c.2.77.91.99,1.75.99,1.24,0,1.7-.17,1.7-.81,0-.24-.07-.55-.18-.94-1.02-3.61-2.84-7.88-3.49-9.09Zm-3.43,5.9c.47-1.41.89-2.52,1.26-3.46.37.94.79,2.05,1.26,3.46h-2.52Z"/><path class="cls-1" d="m70.24,110.4c.66,0,1.36.08,1.75.17.15.03.27.05.35.05.29,0,.5-.15.59-.42.22-.84.32-1.39.32-1.76,0-.55-.2-.71-.54-.81-.49-.12-1.66-.25-2.74-.25-2.67,0-5.95.92-5.95,6.18s3.39,6.25,5.63,6.25c.92,0,2.22-.13,2.89-.44.66-.32.71-.81.71-2.72,0-.17-.08-.29-.32-.29-.12,0-.25.03-.42.08-.34.1-1.31.34-2.25.34-2.07,0-2.77-1.26-2.77-3.23s.69-3.16,2.75-3.16Z"/><path class="cls-1" d="m85.4,107.55h-8.85c-.84,0-.97.97-.97,1.83,0,.62.24.72,1.04.72h2.65v8.97c0,.66,1.43.74,1.96.74,1.29,0,1.46-.71,1.46-2.39v-7.32h2.69c.71,0,.99-.39.99-1.83,0-.65-.52-.72-.97-.72Z"/><polygon class="cls-3" points="1.03 41.11 1.03 97.33 29.14 69.22 1.03 41.11"/><polygon class="cls-3" points="85.02 41.1 56.91 69.22 85.02 97.33 85.02 41.1"/><path class="cls-3" d="m49.51,76.61c-1.79,1.79-4.14,2.68-6.49,2.68s-4.7-.89-6.49-2.68l-4.51-4.51L3.92,100.22h78.21l-28.11-28.11-4.51,4.51Z"/><path class="cls-1" d="m34.71,37.95c.45.94.38.98.79,1.89.87,1.77,1.89,3.81,2.68,5.62.45.94.49.91.94,1.85.42.94.45.91.87,1.85.45.94,2.04,4.32,2.46,5.23.09.17.97.19,1.06,0,.42-.91,2.22-4.29,2.64-5.2.45-.94.38-.94.83-1.89.42-.94.45-.94.91-1.85q.41-.94.83-1.89c.45-.94.42-.94.87-1.89.42-.94.49-.91.91-1.85.45-.94.38-.94.83-1.89.22-.49.35-.72.49-.95h30.32L46.62,1.49c-1.98-1.98-5.21-1.98-7.2,0L3.92,37h30.35c.12.24.23.46.45.95Z"/></svg>