<?xml version="1.0" encoding="UTF-8"?><svg id="Layer_1" xmlns="http://www.w3.org/2000/svg" viewBox="0 0 106.2 79"><defs><style>.cls-1,.cls-2{fill:#3871b6;}.cls-3{fill:#f57e22;}.cls-2{stroke:#3871b6;stroke-miterlimit:10;stroke-width:.6px;}</style></defs><path class="cls-1" d="m18.76,21.67c-.1,1.54-.27,2.81-.5,3.81-.18.78-.45,1.57-.79,2.38-.35.81-.78,1.58-1.29,2.32-.51.74-1.1,1.42-1.77,2.03-.67.62-1.41,1.12-2.23,1.52-.49.24-1.04.42-1.64.53-.6.11-1.26.18-1.98.19-.97,0-1.95-.07-2.94-.21-.55-.07-1.08-.17-1.59-.3s-.99-.29-1.44-.47c-.44-.18-.85-.39-1.21-.62-.37-.23-.68-.47-.94-.73-.3-.32-.44-.66-.44-1.03,0-.65.22-1.14.66-1.47.44-.33,1-.5,1.68-.5.36,0,1.14.25,2.32.73.38.15.71.28,1,.39.29.11.56.21.82.29.26.08.51.14.76.17s.53.05.84.05c2.16,0,3.76-.95,4.79-2.85,1.03-1.9,1.55-4.75,1.55-8.55,0-1.09-.02-2.17-.06-3.23-.04-1.06-.09-2.02-.15-2.89-.05-.62-.08-1.14-.09-1.56-.02-.43-.03-.79-.03-1.08,0-.21.08-.41.24-.61.16-.2.36-.38.59-.54.23-.16.48-.29.74-.38.26-.1.48-.15.66-.15.49,0,.92.12,1.28.35.36.23.59.53.68.9.02.08.05.29.09.62.04.33.08.72.13,1.18.04.46.09.94.14,1.44.04.51.09.97.13,1.4.04.43.09.93.15,1.5,0,2.03-.05,3.81-.15,5.35Z"/><path class="cls-1" d="m53.8,20.68c0,.64-.22,1.34-.68,2.11-.45.77-1.04,1.54-1.76,2.32-.72.77-1.53,1.53-2.43,2.26-.9.73-1.79,1.38-2.68,1.94-.89.56-1.74,1.02-2.54,1.36s-1.46.51-1.98.51c-.73,0-1.35-.16-1.85-.47-.51-.31-.93-.73-1.26-1.25-.34-.52-.6-1.11-.79-1.78-.19-.67-.34-1.35-.43-2.06-.17.41-.4.86-.68,1.33s-.59.95-.92,1.42c-.33.47-.66.91-1,1.32-.34.42-.65.77-.93,1.07-.4.42-.84.83-1.32,1.22-.48.39-.99.74-1.54,1.03-.55.3-1.12.53-1.73.71-.61.18-1.25.27-1.91.27-.56,0-1.05-.12-1.48-.35-.43-.23-.78-.54-1.07-.92-.29-.38-.5-.81-.64-1.29-.14-.48-.21-.97-.21-1.46,0-.43.04-.88.11-1.34.07-.46.16-.93.25-1.4.09-.47.18-.94.26-1.4.09-.46.15-.91.18-1.34.02-.33.04-.68.07-1.06.02-.38.04-.75.07-1.14.02-.38.05-.76.09-1.15.04-.38.09-.74.15-1.07.04-.24.11-.47.2-.68.09-.22.21-.41.37-.57.16-.17.36-.3.61-.39.24-.1.54-.15.9-.15.72,0,1.22.21,1.51.64.29.43.44,1.07.44,1.94,0,.26-.02.56-.05.91s-.08.7-.14,1.07c-.06.37-.12.74-.2,1.12-.08.38-.16.74-.25,1.08-.19.76-.38,1.51-.55,2.23-.17.72-.26,1.37-.26,1.94,0,.36.07.67.2.91.13.24.29.36.49.36.49,0,1-.15,1.53-.45.53-.3,1.04-.68,1.55-1.13s.98-.94,1.43-1.47c.45-.53.83-1.02,1.15-1.46.3-.41.59-.92.9-1.52.3-.6.6-1.24.89-1.91.29-.67.57-1.33.85-1.98s.52-1.23.73-1.73c.3-.67.64-1.19,1.03-1.56.39-.36.76-.55,1.13-.55.43,0,.75.08.96.26.21.17.31.48.31.94,0,.18-.02.46-.07.84-.05.38-.1.77-.15,1.19-.06.42-.11.81-.15,1.2s-.07.67-.07.86c0,.18,0,.41,0,.67,0,.26.01.53.03.81.01.28.03.55.06.81.03.26.06.48.09.67.04.19.12.44.22.75s.23.61.38.9c.15.29.32.54.5.75s.38.32.58.32c.59,0,1.22-.15,1.89-.46.67-.31,1.35-.71,2.04-1.21.7-.5,1.39-1.06,2.09-1.68.7-.63,1.38-1.25,2.04-1.88.27-.26.54-.53.81-.79s.53-.51.78-.72.48-.38.7-.52.4-.21.56-.21c.18,0,.33.06.44.17.11.11.16.22.16.31Z"/><path class="cls-1" d="m68.94,23.45c0,.26-.1.6-.3,1-.2.4-.47.85-.82,1.35-.35.5-.76,1.03-1.24,1.59-.48.56-1,1.14-1.55,1.73-.6.65-1.26,1.29-1.97,1.91-.71.63-1.46,1.23-2.26,1.81-.79.57-1.56,1.01-2.32,1.32-.76.31-1.49.47-2.17.47-.8,0-1.49-.13-2.08-.4s-1.09-.63-1.5-1.09c-.42-.46-.75-.99-1.02-1.59-.26-.6-.47-1.23-.62-1.9-.15-.67-.26-1.34-.32-2.02-.06-.68-.09-1.33-.09-1.95,0-.24.02-.6.05-1.08s.08-.98.14-1.51c.06-.53.13-1.04.21-1.54.07-.5.15-.89.23-1.17.17-.56.56-1.09,1.18-1.59.59-.48,1.25-.72,1.98-.72s1.11.44,1.11,1.33c0,.42-.04.87-.11,1.34-.07.47-.16.94-.25,1.39-.15.83-.25,1.58-.31,2.25-.06.67-.08,1.26-.08,1.77,0,.58.03,1.15.1,1.69s.17,1.03.3,1.46c.13.43.3.77.5,1.03.2.26.44.39.71.39.34,0,.7-.03,1.06-.09.36-.06.8-.23,1.32-.5.98-.54,2.02-1.26,3.13-2.17.39-.32.83-.7,1.32-1.14.5-.44.99-.89,1.48-1.35.49-.46.95-.91,1.38-1.36.43-.44.77-.83,1.03-1.14.03-.06.08-.13.15-.21.06-.09.13-.17.21-.26.08-.09.17-.17.27-.23.1-.06.19-.09.28-.09.18,0,.32.03.4.08.08.05.18.21.28.47.13.29.19.52.19.72Zm-10.63-14.06c0,.38-.06.73-.17,1.07-.11.34-.28.65-.5.95-.43.6-1.1.91-2,.91-.32,0-.64-.03-.97-.09-.33-.06-.63-.14-.89-.24-.26-.1-.48-.23-.65-.39-.17-.16-.26-.34-.26-.55,0-.35.09-.73.27-1.12.18-.39.42-.76.71-1.09.29-.34.61-.62.96-.84.35-.22.68-.33,1-.33.4,0,.75.03,1.06.08.31.05.57.14.78.26.21.13.37.3.49.53.11.23.17.51.17.86Z"/><path class="cls-1" d="m88.17,22.61c0,.23-.03.42-.09.59-.06.17-.16.33-.29.5-.13.17-.3.34-.5.54-.21.19-.46.44-.75.74l-1.5,1.5c-.32.32-.6.59-.84.8-.24.22-.47.42-.69.61-.22.19-.45.38-.69.58-.24.2-.53.44-.87.73-.74.63-1.47,1.21-2.19,1.76s-1.42,1.04-2.1,1.47c-1.03.65-2.13,1.15-3.3,1.5-1.17.35-2.42.53-3.73.53-.85,0-1.61-.16-2.27-.47-.66-.31-1.22-.74-1.68-1.26-.46-.53-.8-1.15-1.03-1.86-.23-.71-.35-1.46-.35-2.25,0-1.49.31-2.99.94-4.5.63-1.51,1.49-2.99,2.58-4.45.27-.36.59-.75.97-1.15.37-.4.76-.76,1.17-1.08.41-.32.83-.59,1.26-.8.43-.21.86-.32,1.27-.32.27,0,.54.08.79.23.26.15.51.36.75.62.25.26.48.57.69.91.22.35.42.72.6,1.12.37.8.55,1.38.55,1.74,0,.19-.02.43-.06.71s-.11.54-.22.79c-.11.25-.25.46-.44.64-.18.18-.42.26-.7.26-.42,0-.77-.13-1.04-.4s-.5-.58-.68-.93c-.18-.35-.33-.7-.44-1.04s-.21-.59-.3-.73c-.27.1-.56.3-.86.6-.3.3-.6.66-.9,1.09-.3.43-.58.92-.84,1.46-.26.54-.49,1.12-.69,1.73-.2.61-.36,1.23-.48,1.87-.12.64-.18,1.27-.18,1.9,0,.58.21,1.09.63,1.52.48.48.92.72,1.33.72,1.3,0,2.55-.24,3.75-.72s2.36-1.12,3.48-1.91c.75-.54,1.54-1.14,2.36-1.8.82-.67,1.72-1.47,2.7-2.4.35-.34.71-.67,1.07-.98.36-.31.71-.59,1.06-.83.35-.24.68-.43.99-.58.31-.15.61-.22.88-.22.59,0,.89.31.89.94Z"/><path class="cls-1" d="m106.2,22.58c0,.21-.15.58-.46,1.13-.59.86-1.25,1.7-1.97,2.54-.72.84-1.5,1.63-2.32,2.38s-1.67,1.45-2.56,2.09c-.89.64-1.79,1.2-2.7,1.67-.91.47-1.82.83-2.73,1.1-.91.27-1.79.4-2.66.4-1.95,0-3.47-.55-4.55-1.65s-1.63-2.76-1.63-4.98c0-.89.06-1.76.19-2.62.12-.86.33-1.71.62-2.55.29-.84.67-1.66,1.14-2.47.47-.81,1.04-1.59,1.73-2.36.25-.28.54-.56.88-.82.34-.26.69-.5,1.08-.7s.78-.37,1.2-.5c.42-.12.83-.19,1.24-.19.6,0,1.12.11,1.56.34.44.23.8.53,1.09.91.28.38.5.82.63,1.32.14.5.21,1.02.21,1.56,0,1.01-.38,2.07-1.13,3.15-.75,1.09-1.79,2.2-3.13,3.34-.43.37-.93.76-1.5,1.19-.57.43-1.21.91-1.91,1.44.02.28.1.55.25.8.14.25.34.47.58.66.25.19.54.34.88.44s.73.16,1.16.16c.56,0,1.15-.07,1.78-.21.63-.14,1.25-.33,1.86-.57s1.21-.52,1.79-.83c.58-.31,1.11-.64,1.59-.98.84-.6,1.65-1.26,2.44-1.96.78-.7,1.54-1.42,2.26-2.14l.91-.91c.63-.56,1.16-.84,1.61-.84.23,0,.38.08.47.23.09.15.13.29.13.4Zm-13.33-3.14c0-.25-.03-.49-.08-.72-.05-.23-.13-.37-.25-.43-.39,0-.8.17-1.24.5-.44.33-.86.8-1.26,1.41-.4.61-.75,1.34-1.07,2.21s-.54,1.81-.69,2.86c.54-.4,1.07-.82,1.61-1.26s1.03-.9,1.47-1.38.8-.98,1.08-1.51c.28-.53.42-1.09.42-1.68Z"/><path class="cls-3" d="m50.57,78.83c.58-1.26,3.08-5.95,3.66-7.2.63-1.31.52-1.31,1.15-2.62.58-1.31.63-1.31,1.26-2.56q.58-1.31,1.15-2.62c.63-1.31.58-1.31,1.2-2.62.58-1.31.68-1.26,1.26-2.56.63-1.31.52-1.31,1.15-2.62.58-1.31.73-1.26,1.31-2.56.1-.26.05-.52.05-.73,0-.79-.58-1.41-1.52-1.41-2.04,0-2.04.05-4.08.05-1.41,0-1.41.1-2.83.1s-1.47.05-2.88.05c-1.47,0-1.47-.05-2.88-.05-1.47,0-1.41-.01-2.82-.01-1.47,0-1.57-.09-2.99-.09-2.04,0-2.28,0-4.37-.05-.99,0-1.39.63-1.39,1.47,0,.21.05.42.16.68.58,1.31.63,1.26,1.2,2.56.63,1.31.52,1.36,1.1,2.62,1.2,2.46,2.62,5.29,3.72,7.8.63,1.31.68,1.26,1.31,2.56.58,1.31.63,1.26,1.2,2.57.63,1.31,2.83,5.99,3.41,7.25.12.24,1.34.26,1.47.01Z"/><path class="cls-2" d="m30.81,2.01c.01.15,0,.27-.02.36-.03.09-.07.17-.12.22-.05.05-.12.09-.18.12-.07.02-.13.04-.2.05-.14.01-.27.03-.38.03-.11,0-.22.02-.33.02-.11,0-.22.01-.33.02-.12,0-.25.02-.41.04-.1,0-.21.03-.34.06-.13.03-.26.06-.39.1-.14.04-.27.08-.41.13-.14.05-.26.09-.38.14-.12.05-.22.09-.3.13-.09.04-.15.08-.18.12-.03.02-.04.08-.06.17-.01.09-.02.17,0,.23v1.72c.02.67.03,1.33.04,1.98.01.65.05,1.28.11,1.91,0,.08.03.21.05.36.03.16.06.31.09.47.03.15.06.29.08.41.02.12.04.18.04.19.01.11,0,.23,0,.35-.02.12-.05.23-.1.33-.05.1-.11.18-.18.25-.08.07-.16.1-.27.12-.07,0-.14,0-.22-.04-.08-.03-.16-.08-.24-.14-.08-.06-.15-.14-.21-.22-.06-.09-.12-.18-.16-.28-.05-.12-.09-.25-.12-.4-.03-.15-.07-.31-.09-.48-.03-.16-.05-.32-.07-.48-.02-.16-.04-.3-.05-.43-.02-.21-.04-.48-.05-.81-.01-.33-.02-.68-.03-1.05s-.01-.76-.01-1.15c0-.39,0-.76,0-1.1s0-.64,0-.89c0-.25,0-.43,0-.54-.13.01-.29.04-.48.09-.19.04-.4.1-.62.15-.28.07-.57.14-.87.21-.3.07-.58.12-.85.14-.06,0-.13,0-.23,0-.1,0-.2-.02-.3-.04-.1-.03-.19-.07-.26-.12-.08-.06-.12-.14-.13-.24-.01-.04-.02-.06-.02-.07,0-.01,0-.04-.01-.09,0-.08,0-.16,0-.24,0-.08.02-.15.04-.22.03-.07.07-.13.12-.18.06-.05.13-.1.22-.14.21-.09.46-.16.73-.23.27-.06.54-.11.81-.13.05,0,.15-.02.29-.06.14-.03.3-.07.49-.12s.38-.1.6-.16c.21-.06.41-.11.61-.16.19-.05.36-.1.52-.14.15-.04.26-.08.33-.1.25-.08.5-.17.75-.26.25-.09.5-.18.75-.27.25-.09.5-.16.75-.23.25-.06.5-.11.75-.13.03,0,.08,0,.16-.01.07,0,.15,0,.25,0,.09,0,.19,0,.29.01.1,0,.2.03.29.05.07.02.13.06.19.11.06.06.11.12.15.19.04.07.08.15.11.22.03.07.04.13.05.18Z"/><path class="cls-2" d="m41.92,5.57c0,.07,0,.15-.03.24-.03.1-.07.21-.12.34-.03.08-.08.17-.13.28-.06.11-.12.22-.18.33-.06.11-.13.22-.19.33-.06.11-.12.2-.17.28-.2.3-.41.59-.64.87-.23.28-.47.54-.73.76-.26.23-.53.42-.81.56-.29.15-.59.24-.9.27-.27.03-.52,0-.73-.11-.22-.1-.39-.27-.54-.52-.05-.08-.1-.21-.16-.39-.06-.18-.12-.38-.17-.58-.06-.21-.11-.41-.15-.61-.04-.2-.08-.37-.1-.49-.01-.09-.03-.18-.05-.29-.02-.11-.04-.21-.06-.31s-.05-.18-.08-.25c-.03-.07-.06-.1-.1-.1-.04,0-.08.02-.11.05-.07.05-.17.17-.32.37-.15.19-.31.44-.49.73-.18.29-.37.63-.57,1-.2.37-.38.76-.56,1.16-.07.15-.13.32-.2.5-.07.18-.13.36-.2.55-.06.19-.13.37-.19.54-.06.17-.12.33-.17.46-.04.08-.08.15-.13.21-.05.06-.11.11-.16.15-.06.04-.11.07-.15.09-.05.02-.08.03-.11.03-.09,0-.17,0-.25-.05-.08-.04-.16-.09-.22-.16-.06-.07-.12-.15-.16-.24-.04-.09-.07-.18-.08-.28,0-.05,0-.15,0-.28,0-.14,0-.29,0-.46,0-.17,0-.35.01-.54,0-.19,0-.36,0-.52,0-.31,0-.64,0-1.01,0-.36,0-.73-.01-1.1,0-.37-.01-.73-.02-1.08,0-.35-.02-.67-.04-.95,0-.09-.01-.21-.02-.36,0-.15-.01-.32-.02-.5,0-.18-.02-.37-.03-.57-.01-.2-.02-.39-.03-.58,0-.19-.02-.37-.03-.54-.01-.17-.02-.31-.03-.42,0-.13-.01-.26-.01-.38,0-.12,0-.23.01-.35,0-.12.03-.23.05-.35.02-.12.05-.25.1-.39.01-.05.04-.11.08-.18s.08-.13.14-.19c.06-.06.12-.11.19-.15.07-.04.14-.07.22-.08.17-.02.32.04.45.17.13.13.21.32.23.57,0,.07,0,.17,0,.29,0,.12,0,.24-.01.35,0,.11-.01.22-.02.31,0,.09,0,.15,0,.18,0,.07,0,.19-.01.37,0,.17,0,.38,0,.62,0,.24,0,.5,0,.78s0,.56,0,.85c0,.28,0,.56,0,.83,0,.27,0,.51,0,.72,0,.21,0,.38,0,.52,0,.13,0,.21,0,.23,0,.1,0,.23,0,.41,0,.18,0,.35,0,.54,0,.18,0,.36,0,.52,0,.16,0,.28,0,.35.03-.06.07-.15.11-.26.05-.11.09-.23.15-.35.05-.12.1-.23.14-.33.04-.1.08-.18.1-.23.05-.12.11-.25.18-.41.07-.15.15-.31.23-.46.08-.16.17-.31.25-.47.09-.15.17-.3.26-.42.11-.16.23-.33.37-.51.14-.18.29-.34.44-.49.16-.15.32-.28.49-.38.17-.1.34-.16.5-.18.04,0,.1,0,.17.02.07.02.14.05.21.08.07.04.14.09.2.15.06.06.11.13.14.22.07.17.13.37.19.61.06.24.12.49.17.75.05.26.11.52.17.77.06.25.11.48.17.69.06.2.12.36.19.49.07.12.14.18.22.17.11-.01.21-.03.3-.04.09-.02.18-.04.27-.08.09-.03.17-.07.26-.12.09-.05.18-.11.28-.18.21-.15.38-.29.53-.42.15-.13.28-.26.41-.4.13-.14.26-.29.39-.46.13-.17.28-.36.44-.59.18-.24.33-.43.47-.58.14-.15.24-.23.3-.23.05,0,.09,0,.12.02.03.02.06.05.08.08.02.03.04.07.04.11.01.04.02.08.02.11Z"/><path class="cls-2" d="m48.36,4.71c0,.08-.03.25-.11.48-.17.38-.36.75-.58,1.12-.22.37-.45.73-.71,1.07-.25.34-.52.66-.8.96-.28.3-.57.56-.87.79s-.6.41-.9.55c-.3.14-.61.23-.91.26-.68.07-1.23-.11-1.65-.53-.42-.42-.68-1.09-.77-2.02-.04-.37-.05-.73-.04-1.1,0-.36.04-.72.11-1.08.07-.36.16-.71.29-1.07s.3-.7.5-1.04c.07-.13.17-.25.27-.37.11-.12.22-.23.34-.33.12-.1.26-.18.4-.25.14-.07.28-.11.42-.12.21-.02.39,0,.56.09.16.08.3.19.41.34.12.15.21.33.27.53.07.2.11.42.13.64.04.42-.04.87-.26,1.35s-.53.98-.95,1.5c-.13.17-.29.35-.47.55-.18.2-.38.42-.61.67.02.12.06.23.12.33.06.1.14.18.23.25.09.07.2.12.32.15.12.03.26.04.41.03.19-.02.4-.07.61-.15.21-.08.42-.18.62-.3.2-.12.4-.26.59-.41.19-.15.36-.3.51-.46.27-.28.52-.58.76-.9.24-.32.47-.64.7-.97l.28-.41c.19-.25.37-.39.52-.4.08,0,.14.02.17.08.04.06.06.12.06.16Zm-4.76-.85c-.01-.1-.03-.2-.06-.3-.03-.09-.06-.15-.1-.17-.13.01-.27.1-.41.25-.14.15-.26.36-.38.63-.12.27-.21.59-.28.95-.07.37-.11.77-.12,1.21.17-.18.34-.38.51-.58.17-.2.32-.41.45-.62s.24-.44.31-.67c.08-.23.1-.47.08-.72Z"/></svg>