<?xml version="1.0" encoding="UTF-8"?><svg id="Layer_1" xmlns="http://www.w3.org/2000/svg" viewBox="0 0 97.53 71.88"><defs><style>.cls-1{fill:#3871b6;}.cls-2{fill:#f57e22;}</style></defs><path class="cls-1" d="m30.73,1.9c0,.17-.02.3-.07.38-.05.08-.1.18-.17.28-.07.1-.14.23-.23.39-.08.16-.16.39-.23.7-.07.32-.13.6-.2.84-.06.24-.12.47-.16.68-.05.22-.08.44-.11.66-.03.22-.04.48-.04.78,0,.51-.01,1.02-.03,1.52-.02.5-.06,1.02-.1,1.56-.05.54-.1,1.11-.16,1.69-.06.59-.13,1.22-.21,1.91-.11.97-.23,1.99-.34,3.08-.11,1.08-.17,2.2-.17,3.35v1.08c0,.41,0,.85.03,1.32.02.47.04.94.07,1.43s.07.95.13,1.41c.06.06.11.09.15.11.04.02.1.05.18.11.41.26.71.49.89.68.18.19.27.46.27.79,0,.24-.07.49-.22.76s-.34.51-.59.74c-.25.23-.52.42-.84.56-.31.15-.64.22-.97.22-.66,0-1.21-.21-1.64-.62s-.77-.94-1.02-1.58-.42-1.36-.51-2.15c-.1-.79-.15-1.57-.15-2.35v-.6c0-.32.03-.8.09-1.45.06-.65.14-1.39.24-2.22.1-.83.21-1.71.32-2.65.12-.93.25-1.85.38-2.74s.26-1.73.38-2.5c.12-.77.22-1.41.32-1.91-.14.17-.33.42-.57.74-.25.33-.52.69-.82,1.09-.3.4-.62.82-.96,1.26-.34.45-.66.88-.97,1.31-.31.43-.61.83-.89,1.21s-.52.7-.71.96c-.43.59-.85,1.18-1.25,1.76-.4.58-.81,1.18-1.25,1.79-.03.03-.09.11-.16.22-.08.11-.16.24-.25.38-.09.14-.18.28-.27.42-.09.14-.17.24-.24.31-.8,1.07-1.67,1.74-2.63,2.02-.62-.19-1.11-.4-1.48-.63-.37-.23-.67-.48-.91-.74-.24-.27-.44-.56-.61-.88-.17-.32-.36-.66-.57-1.01-.23-.39-.43-.74-.62-1.06-.18-.32-.34-.6-.48-.86-.3-.54-.58-1.1-.84-1.69-.26-.59-.51-1.2-.74-1.81-.16-.51-.3-.95-.42-1.32-.12-.37-.23-.71-.33-1.03-.1-.32-.21-.64-.31-.97-.1-.33-.22-.72-.34-1.16-.02.08-.07.27-.14.58s-.15.69-.26,1.15c-.1.46-.22.96-.34,1.52-.13.56-.25,1.13-.38,1.71-.13.58-.25,1.15-.37,1.7-.12.55-.23,1.05-.33,1.5-.1.44-.18.81-.25,1.1-.07.29-.11.46-.12.52-.23.91-.34,1.78-.34,2.6,0,.17,0,.44-.02.79-.01.36-.02.74-.03,1.14,0,.41-.01.79-.03,1.17-.01.38-.02.67-.02.87,0,.17-.05.38-.15.63-.1.25-.25.49-.43.72-.18.23-.39.42-.63.59s-.49.25-.75.25c-.38,0-.7-.02-.97-.05s-.51-.1-.71-.21-.37-.25-.52-.44c-.15-.19-.29-.44-.41-.75-.05-.1-.08-.21-.1-.33-.02-.12-.04-.27-.06-.45-.02-.18-.03-.41-.03-.67s0-.61,0-1.02c0-.12.04-.38.13-.76.08-.38.19-.84.32-1.38.13-.54.28-1.11.44-1.73s.32-1.23.49-1.83c.17-.6.32-1.16.46-1.69.14-.53.26-.96.35-1.29.16-.57.33-1.16.5-1.78s.34-1.24.5-1.86c.17-.63.33-1.25.5-1.87.16-.62.32-1.21.45-1.77.07-.57.14-.99.21-1.25.07-.31.16-.63.27-.98s.25-.67.42-.96c.17-.29.36-.53.6-.73.23-.19.51-.29.83-.29.92,0,1.66.1,2.21.31.55.21,1,.52,1.33.95.33.43.6.98.79,1.65.19.67.39,1.48.6,2.43.06.26.12.49.21.69.08.2.17.42.26.66.39,1.19.86,2.36,1.41,3.53s1.19,2.32,1.92,3.46c.3-.24.57-.54.81-.91.25-.37.52-.82.81-1.36.26-.47.53-.91.79-1.32s.57-.81.91-1.19c.12-.14.33-.37.6-.71.27-.34.59-.73.95-1.18.36-.45.74-.93,1.14-1.43.4-.5.77-.98,1.13-1.43.35-.45.67-.85.94-1.2.27-.35.47-.59.58-.74.12-.15.22-.26.29-.35.07-.08.15-.18.26-.3.12-.18.33-.46.62-.84.29-.38.58-.78.9-1.2.31-.42.62-.82.91-1.2.29-.38.5-.67.64-.86.16-.24.46-.36.91-.36.24,0,.5.07.77.21.27.14.53.32.76.52.23.21.43.42.58.65.15.23.23.43.23.6l.02-.09Z"/><path class="cls-1" d="m57.35,15.45c0,.21-.15.58-.46,1.13-.59.86-1.25,1.7-1.97,2.54-.72.84-1.5,1.63-2.32,2.38s-1.67,1.45-2.56,2.09c-.89.64-1.79,1.2-2.7,1.67-.91.47-1.82.83-2.73,1.1-.91.27-1.79.4-2.66.4-1.95,0-3.47-.55-4.55-1.65s-1.63-2.76-1.63-4.98c0-.89.06-1.76.19-2.62.12-.86.33-1.71.62-2.55.29-.84.67-1.66,1.14-2.47.47-.81,1.04-1.59,1.73-2.36.25-.28.54-.56.88-.82.33-.26.69-.5,1.08-.7s.78-.37,1.2-.5c.42-.12.83-.19,1.24-.19.6,0,1.12.11,1.56.34.44.23.8.53,1.08.91s.5.82.63,1.32c.14.5.21,1.02.21,1.56,0,1.01-.38,2.07-1.13,3.15-.75,1.09-1.79,2.2-3.13,3.34-.43.37-.93.76-1.5,1.19-.57.43-1.21.91-1.91,1.44.02.28.11.55.25.8.14.25.34.47.58.66.25.19.54.34.88.44s.73.16,1.16.16c.56,0,1.15-.07,1.78-.21.63-.14,1.25-.33,1.86-.57s1.21-.52,1.79-.83c.58-.31,1.11-.64,1.59-.98.84-.6,1.65-1.26,2.44-1.96.78-.7,1.54-1.42,2.26-2.14l.91-.91c.62-.56,1.16-.84,1.61-.84.23,0,.38.08.47.23.09.15.13.29.13.4Zm-13.33-3.14c0-.25-.03-.49-.08-.72-.05-.23-.13-.37-.25-.43-.39,0-.8.17-1.24.5-.44.33-.86.8-1.26,1.41-.4.61-.75,1.34-1.07,2.21s-.54,1.81-.69,2.86c.54-.4,1.07-.82,1.62-1.26s1.03-.9,1.47-1.38.8-.98,1.08-1.51c.28-.53.42-1.09.42-1.68Z"/><path class="cls-1" d="m84.03,15.04c0,.22-.04.45-.12.71-.08.26-.18.51-.3.76-.12.25-.25.49-.39.71-.14.22-.28.41-.4.56-.37.46-.77.94-1.22,1.45s-.92,1.02-1.41,1.52c-.49.5-.99.98-1.5,1.44-.51.46-1.03.86-1.54,1.21-.4.27-.78.53-1.15.76s-.75.44-1.14.62c-.39.18-.81.33-1.25.43s-.92.15-1.44.15c-.86,0-1.56-.17-2.13-.51-.56-.34-1.02-.8-1.38-1.37-.35-.57-.62-1.22-.81-1.96-.19-.74-.33-1.5-.44-2.3-.15-1.08-.31-1.94-.5-2.57-.18-.63-.4-.95-.67-.95-.23,0-.45.05-.67.16-.22.11-.49.34-.81.69-.33.35-.74.87-1.23,1.55-.5.68-1.14,1.58-1.94,2.71-.27.39-.61.82-1,1.3-.39.48-.81.94-1.24,1.38-.43.44-.86.83-1.29,1.16-.43.34-.82.57-1.19.69-1.44-.32-2.15-1.69-2.15-4.12,0-.62.07-1.52.21-2.72.07-.54.14-1.1.23-1.69.08-.59.19-1.19.32-1.79.13-.6.29-1.18.47-1.76.18-.58.39-1.11.63-1.6.14-.27.29-.49.46-.65.17-.16.34-.28.52-.36.18-.08.36-.13.56-.15.19-.02.39-.03.58-.03.17,0,.34.04.5.13.16.09.3.21.43.37.12.16.22.35.3.58.07.23.11.49.11.79,0,.26-.02.51-.07.75-.05.24-.11.49-.19.74-.08.26-.16.53-.25.81-.09.29-.17.61-.27.97-.06.24-.14.55-.25.92-.11.38-.22.77-.33,1.17-.11.41-.21.8-.3,1.19-.09.39-.15.71-.17.97.21-.24.44-.54.71-.9.27-.36.55-.75.85-1.16.3-.42.6-.84.91-1.27.31-.43.62-.84.92-1.23.4-.5.79-.97,1.18-1.42.39-.44.79-.83,1.22-1.15.43-.33.89-.58,1.39-.77.5-.19,1.07-.28,1.69-.28.74,0,1.34.15,1.81.45.47.3.84.72,1.12,1.26.28.54.49,1.17.62,1.91.14.73.24,1.54.32,2.4.04.44.11.9.18,1.37.07.47.18.89.33,1.27.15.38.34.7.58.94s.54.37.89.37c.52,0,1.1-.14,1.72-.42.62-.28,1.27-.66,1.96-1.15.68-.49,1.38-1.06,2.1-1.71s1.44-1.34,2.15-2.08c.23-.24.45-.48.66-.71.21-.23.41-.44.61-.63.19-.19.38-.34.56-.45.18-.11.37-.17.55-.17.07,0,.15,0,.24.03.09.02.18.05.26.1.08.05.15.12.2.21.05.09.08.22.08.38Z"/><path class="cls-1" d="m92.2,21c-1.09,1.99-2.36,3.58-3.8,4.75-1.44,1.17-2.9,1.76-4.38,1.76-.88,0-1.76-.46-2.66-1.38-.89-.92-1.34-2.34-1.34-4.25,0-1.36.34-3.4,1.03-6.14.59-2.26.89-3.97.89-5.14.46-.96,1.17-1.44,2.14-1.44.66,0,1.19.22,1.58.66.39.44.59.88.59,1.33,0,.81-.29,1.96-.85,3.45-.33.89-.69,2.15-1.07,3.77-.38,1.62-.57,2.66-.57,3.12,0,1.52.31,2.27.94,2.27.99,0,2.33-.95,4.02-2.85,1.69-1.9,2.79-3.85,3.3-5.84.51-1.95.97-3.22,1.37-3.83.4-.6.96-.91,1.69-.91,1.18,0,1.78.66,1.78,1.98,0,.19-.1.58-.29,1.16-.67,2.02-1.01,4.29-1.01,6.82,0,2.96.5,4.73,1.5,5.31.33.19.5.43.5.72,0,.41-.29.8-.87,1.16-.58.36-1.13.55-1.66.55-.9,0-1.59-.64-2.08-1.91-.48-1.27-.73-2.98-.73-5.12Z"/><path class="cls-2" d="m49.49,71.7c.58-1.26,3.08-5.95,3.66-7.2.63-1.31.52-1.31,1.15-2.62.58-1.31.63-1.31,1.26-2.56q.58-1.31,1.15-2.62c.63-1.31.58-1.31,1.2-2.62.58-1.31.68-1.26,1.26-2.56.63-1.31.52-1.31,1.15-2.62.58-1.31.73-1.26,1.31-2.56.1-.26.05-.52.05-.73,0-.79-.58-1.41-1.52-1.41-2.04,0-2.04.05-4.08.05-1.41,0-1.41.1-2.83.1s-1.47.05-2.88.05c-1.47,0-1.47-.05-2.88-.05-1.47,0-1.41-.01-2.82-.01-1.47,0-1.57-.09-2.99-.09-2.04,0-2.28,0-4.37-.05-.99,0-1.39.63-1.39,1.47,0,.21.05.42.16.68.58,1.31.63,1.26,1.2,2.56.63,1.31.52,1.36,1.1,2.62,1.2,2.46,2.62,5.29,3.72,7.8.63,1.31.68,1.26,1.31,2.56.58,1.31.63,1.26,1.2,2.57.63,1.31,2.83,5.99,3.41,7.25.12.24,1.34.26,1.47.01Z"/></svg>