<?xml version="1.0" encoding="UTF-8"?><svg id="Layer_1" xmlns="http://www.w3.org/2000/svg" xmlns:xlink="http://www.w3.org/1999/xlink" viewBox="0 0 313 393"><defs><style>.cls-1{fill:url(#linear-gradient);}</style><linearGradient id="linear-gradient" x1="209.3" y1="429.65" x2="72.1" y2="52.69" gradientUnits="userSpaceOnUse"><stop offset=".52" stop-color="#9cc8fb" stop-opacity="0"/><stop offset=".61" stop-color="#9bc8fb" stop-opacity=".01"/><stop offset=".68" stop-color="#9bc8fb" stop-opacity=".05"/><stop offset=".73" stop-color="#9bc8fb" stop-opacity=".11"/><stop offset=".79" stop-color="#9ac8fb" stop-opacity=".19"/><stop offset=".83" stop-color="#99c8fb" stop-opacity=".31"/><stop offset=".88" stop-color="#98c8fb" stop-opacity=".44"/><stop offset=".92" stop-color="#96c8fb" stop-opacity=".61"/><stop offset=".96" stop-color="#94c8fb" stop-opacity=".79"/><stop offset="1" stop-color="#93c8fb"/></linearGradient></defs><path class="cls-1" d="m3,393v-215.74c0-1.71.71-3.35,1.95-4.53l18.65-17.61c-.01-.1,0-.19.01-.29,0-.04.02-.08.03-.13,0,0-.02,0-.03-.02l-.08-.08c-.04-.08-.06-.17-.07-.25l-.04-.05c-.1-.25-.08-.51.04-.75-.06-.08-.11-.16-.13-.25-.02-.02-.04-.04-.06-.07-.05-.14-.06-.28-.05-.42,0,0,0-.01,0-.02,0-.02,0-.04,0-.05.02-.11.06-.22.12-.34-.03-.06-.06-.12-.08-.18-.03-.02-.05-.05-.07-.08-.06-.18-.06-.36-.01-.54.03-.12.08-.24.15-.36-.02-.04-.03-.07-.04-.11-.03-.03-.06-.06-.09-.1-.05-.19-.05-.39.01-.57,0-.02.01-.04.02-.07,0,0,0,0,0,0,.04-.11.1-.22.17-.33,0-.02-.01-.04-.02-.06-.03-.03-.07-.07-.09-.11-.05-.21-.03-.41.04-.6,0-.01,0-.02.01-.03,0-.01,0-.03.01-.04.05-.12.12-.24.21-.36l-.07-.09c-.07-.26-.04-.52.08-.75.06-.12.13-.23.22-.34l-.05-.08c-.06-.27-.01-.54.12-.77.06-.12.14-.23.23-.34-.02-.03-.03-.07-.05-.1-.03-.27.03-.52.17-.75.07-.12.16-.24.26-.34,0-.02-.02-.04-.02-.06-.04-.29.03-.55.18-.78.08-.13.18-.25.29-.35,0-.04-.01-.08-.01-.12,0-.01,0-.03,0-.04,0-.04,0-.08,0-.12.02-.24.12-.46.28-.64.07-.09.16-.18.25-.26,0-.04,0-.08,0-.12,0-.01,0-.03,0-.04,0-.04,0-.08.01-.12,0-.03.01-.06.02-.09,0,0,0,0,0,0,.04-.18.13-.34.24-.49.01-.02.02-.03.04-.05,0,0,0,0,0,0,.08-.09.17-.18.26-.26-.01-.08-.02-.15,0-.23.04-.18.11-.34.21-.48,0,0,0-.02.01-.02.03-.04.06-.09.1-.13.09-.11.21-.21.33-.3,0-.08,0-.16,0-.24.05-.17.12-.32.22-.46,0-.01.02-.02.02-.04.02-.03.05-.06.07-.09.11-.13.24-.24.38-.34.01-.34.16-.65.42-.89,0,0,.02-.01.03-.02.09-.09.2-.17.32-.24l.02-.18c.04-.12.09-.24.15-.35,0-.01.02-.03.02-.04.02-.04.05-.07.07-.1.01-.02.02-.03.04-.05.03-.04.06-.07.1-.11.02-.02.04-.03.05-.05.03-.03.06-.05.09-.08.04-.03.08-.06.12-.09,0,0,0,0,0,0,.05-.03.09-.06.14-.08.01-.06.03-.13.04-.19,0-.02.01-.04.02-.05.01-.04.03-.09.05-.13,0-.02.02-.03.02-.05.02-.04.04-.08.07-.12,0-.01.02-.02.03-.04.03-.04.06-.08.09-.12,0-.01.02-.02.03-.03.03-.04.07-.07.1-.11.01-.01.02-.02.03-.03.04-.03.07-.06.11-.09.02-.01.03-.02.05-.04.03-.02.07-.04.1-.06.03-.02.06-.03.09-.05.01,0,.02-.01.04-.02.02-.14.07-.27.13-.39.06-.1.12-.19.19-.27,0,0,0,0,.01-.01.03-.03.06-.07.1-.1.01-.01.02-.02.03-.03.04-.03.08-.07.12-.1.02-.01.03-.02.05-.04.03-.02.06-.04.09-.06.02,0,.03-.02.05-.03.05-.03.1-.05.15-.07.02-.07.04-.13.07-.2,0-.03.02-.06.03-.08.07-.14.16-.27.26-.38,0,0,0,0,0,0,.04-.04.08-.08.12-.11.02-.01.04-.03.05-.04.03-.02.05-.04.08-.06.02-.01.04-.03.06-.04.03-.02.06-.04.1-.06.02,0,.04-.02.05-.03.05-.03.11-.05.16-.07.02-.06.04-.13.07-.19.02-.05.05-.11.08-.16,0,0,0-.01,0-.02.02-.03.03-.06.05-.09.16-.23.38-.4.64-.52,0,0,.01,0,.02,0,.06-.02.11-.05.17-.07.11-.32.3-.58.56-.76.05-.03.1-.07.15-.09,0,0,0,0,.01,0,.11-.06.24-.11.37-.14.08-.21.2-.4.35-.56.03-.03.06-.05.09-.08,0,0,0,0,0,0,.2-.17.43-.29.69-.33.02-.06.05-.12.08-.17,0,0,.01-.02.02-.03.03-.05.06-.09.09-.14,0,0,.01-.02.02-.03.04-.06.09-.12.14-.17.22-.23.51-.37.83-.4.04-.09.09-.17.15-.25,0-.01.01-.02.02-.03.03-.04.06-.08.09-.11.01-.02.03-.03.04-.05.05-.06.11-.11.17-.16.2-.17.45-.27.72-.27.06-.1.13-.2.2-.29.02-.03.04-.05.07-.08.02-.02.03-.03.05-.05.04-.04.08-.08.13-.11,0,0,0,0,.01-.01.21-.16.46-.26.74-.27.06-.1.14-.19.21-.27.02-.02.04-.05.07-.07.01-.01.02-.02.03-.03.25-.23.56-.37.91-.36.27-.42.7-.7,1.19-.67.12-.15.26-.28.41-.38,0,0,0,0,0,0,.02-.01.04-.03.06-.04.13-.08.27-.14.42-.19.11-.02.21-.02.32,0,.11-.12.23-.23.36-.31,0,0,.01,0,.02-.01.03-.02.06-.04.09-.06.03-.01.05-.03.08-.04,0,0,.02,0,.02-.01.16-.07.34-.12.52-.13.04,0,.08.02.12.03,0,0,0,0,0,0,.12-.12.24-.22.38-.31.26-.18.55-.23.83-.15.07-.07.15-.13.24-.19.29-.22.63-.31.98-.2.08-.07.16-.12.24-.18,0,0,0,0,.01,0,0,0,.01,0,.02-.01.23-.15.51-.22.79-.18.02,0,.04.01.06.02.03,0,.06.02.09.03.09-.07.18-.14.28-.19.25-.15.52-.17.78-.06.02,0,.05.02.07.03.09-.06.18-.12.27-.17.22-.13.47-.17.7-.09.01,0,.02,0,.04.01.02,0,.04.02.06.03.02.01.04.02.06.04.01,0,.02,0,.04,0,.09-.06.18-.11.27-.15,0,0,0,0,.01,0,.01,0,.02-.01.04-.01.24-.11.51-.11.76.01l.03.03s.05.01.07.02c.08-.05.16-.09.24-.12.23-.11.46-.11.66.01,0,0,.02.01.03.02,0,0,0,0,0,0,0,0,.01,0,.02,0,.02,0,.03,0,.05.01.04.01.09.03.13.05.07-.04.14-.07.21-.09.23-.09.45-.08.63.05.01,0,.03,0,.04,0,0,0,.01,0,.02,0,.02,0,.04.01.06.02.05.02.11.04.16.07,0,0,.02,0,.03,0,.25-.12.52-.13.77-.01.01.01.02.02.03.04.09.02.17.04.26.09.01,0,.02.02.03.03.02,0,.04-.01.06-.02,0,0,0,0,0,0,0,0,.02,0,.02,0,.2-.05.4-.03.58.08.12.02.23.09.32.19.05-.01.1-.02.15-.02.17-.02.34.01.49.11.07.01.14.03.2.07.02.01.04.03.06.05l16.69-15.76.46-29.56c.18-11.38,6.95-21.61,17.34-26.21L202.8,5.16c17.91-7.54,37.7,5.63,37.7,25.09v78.72l67.56,63.78c1.24,1.18,1.95,2.81,1.95,4.53v215.74H3Z"/></svg>