<?xml version="1.0" encoding="UTF-8"?><svg id="Layer_1" xmlns="http://www.w3.org/2000/svg" viewBox="0 0 204.25 45.92"><defs><style>.cls-1{fill:#fff;}.cls-2{fill:#f57e25;}</style></defs><rect class="cls-2" width="204.25" height="45.92" rx="11.71" ry="11.71"/><path class="cls-1" d="m42.76,18.02c-1.09,0-1.41-.14-1.41-.98,0-1.16.18-2.49,1.32-2.49h12.02c.62,0,1.32.09,1.32.98,0,1.96-.39,2.49-1.35,2.49h-3.65v9.95c0,2.28-.23,3.24-1.98,3.24-.73,0-2.67-.11-2.67-1v-12.18h-3.6Z"/><path class="cls-1" d="m61.95,12.73c1.83,0,1.92.87,1.92,3.26v2.67c.82-1.07,2.24-1.6,3.79-1.6,2.81,0,4.33,1.69,4.33,5.11v6.32c-.02,1.92-.23,2.65-1.92,2.65-.73,0-2.65-.09-2.65-.98v-7.12c0-1.12-.25-1.73-1.07-1.73-1.69,0-2.49,2.42-2.49,4.08v2.33c0,2.49,0,3.42-1.92,3.42-.73,0-2.65-.09-2.65-.98V13.59c0-.82,2.24-.87,2.65-.87Z"/><path class="cls-1" d="m75.79,24.11c0-3.49,1.19-7.05,6.84-7.05,4.15,0,5.86,1.92,5.86,5.02,0,3.67-2.37,4.56-5.68,4.56-.55,0-1.09-.02-1.57-.18-.21-.07-.39-.16-.55-.27.39.66,1.23,1.21,3.12,1.21,1.48,0,2.58-.3,3.24-.52.37-.11.62-.23.73-.23.64,0,.87,2.24.87,2.76,0,.43-.16.68-.57.91-.82.46-2.6.89-5.09.89-6.46,0-7.21-4.33-7.21-7.09Zm4.68-1.21c.46.23.98.3,1.55.3,1.23,0,1.89-.48,1.89-1.25,0-.87-.73-1.14-1.48-1.14-1.25,0-1.78.78-1.96,2.1Z"/><path class="cls-1" d="m104.98,17.56v12.3c0,5.41-2.21,5.82-4.93,5.82-1.89,0-2.92-.18-2.92-1.09,0-.82.14-2.42.68-2.42.34,0,.66.09,1.1.09.87,0,1.41-.36,1.41-2.17v-14.76c0-.84,1.94-1,2.67-1,1.76,0,1.98.96,1.98,3.24Z"/><path class="cls-1" d="m117.12,22.9v-4.75c0-.82,1.51-.87,2.4-.87,2.1,0,2.17,1.09,2.17,4.4v5.77c0,.75,0,1.83.27,2.33.64,1.16-1.41,1.41-2.49,1.41-1.16,0-2.12-.39-2.33-1.62-.8,1.1-2.17,1.64-3.65,1.64-2.71,0-4.24-1.69-4.24-5.11v-7.96c0-.82,1.51-.87,2.4-.87,1.87,0,2.17,1.09,2.17,4.4v3.51c0,1.12.23,1.73,1,1.73,1.6,0,2.3-2.37,2.3-4.04Z"/><path class="cls-1" d="m128.31,12.13c1.23,0,2.28.71,2.28,2.17,0,1.6-1.25,2.3-2.58,2.3-1.23,0-2.24-.62-2.24-2.08,0-1.55,1.16-2.4,2.53-2.4Zm2.3,14.58c0,.68.3.87.68.87.18,0,.32,0,.5-.05.21-.05.34-.09.46-.09.73,0,.75,1.98.75,2.78,0,.5-.89.98-3.31.98-2.76,0-3.65-1.39-3.65-4.36v-8.69c0-.82,1.5-.87,2.39-.87,2.1,0,2.17,1.21,2.17,4.84v4.59Z"/><path class="cls-1" d="m135.53,24.06c0-5.47,3.33-7,7.05-7,1.03,0,2.28.11,2.97.36.32.11.55.32.55.98,0,.62-.18,2.76-1,2.76-.05,0-.09-.02-.16-.02-.39-.05-1.16-.23-1.85-.23-1.73,0-2.85,1.14-2.85,3.29,0,1.94.8,3.12,2.62,3.12,0,0,1.6-.18,1.96-.32s.43-.18.59-.18c.84,0,1,2.24,1,2.78,0,.43-.27.75-.78,1-.84.41-2.3.59-4.08.59-2.58,0-6.02-1.55-6.02-7.14Z"/><path class="cls-1" d="m149.46,24.11c0-3.49,1.19-7.05,6.84-7.05,4.15,0,5.86,1.92,5.86,5.02,0,3.67-2.37,4.56-5.68,4.56-.55,0-1.09-.02-1.57-.18-.21-.07-.39-.16-.55-.27.39.66,1.23,1.21,3.12,1.21,1.48,0,2.58-.3,3.24-.52.37-.11.62-.23.73-.23.64,0,.87,2.24.87,2.76,0,.43-.16.68-.57.91-.82.46-2.6.89-5.09.89-6.46,0-7.21-4.33-7.21-7.09Zm4.68-1.21c.46.23.98.3,1.55.3,1.23,0,1.89-.48,1.89-1.25,0-.87-.73-1.14-1.48-1.14-1.25,0-1.78.78-1.96,2.1Z"/></svg>