<?xml version="1.0" encoding="UTF-8"?><svg id="Layer_1" xmlns="http://www.w3.org/2000/svg" viewBox="0 0 204.25 45.92"><defs><style>.cls-1{fill:#fff;}.cls-2{fill:#3871b7;}</style></defs><rect class="cls-2" width="204.25" height="45.92" rx="11.71" ry="11.71"/><path class="cls-1" d="m38.55,27.98c0,2.28-.23,3.24-1.98,3.24-.73,0-2.67-.11-2.67-1v-14.01c0-.94.32-1.3,1.62-1.57,1.19-.25,2.9-.3,3.92-.3,5.22,0,7.8,1.19,7.8,5.91,0,4.2-1.96,6.23-7.19,6.23-.55,0-1.32-.02-1.51-.11v1.62Zm3.97-7.64c0-2.14-1.53-2.28-2.74-2.28-.48,0-.73.02-1.23.11v4.49c.27.09,1.23.11,1.51.11.98,0,2.46-.3,2.46-2.44Z"/><path class="cls-1" d="m58.51,30.33c-.78.62-2.39.89-3.65.89-3.56,0-4.52-2.12-4.52-4.31,0-3.29,2.12-4.72,5.52-4.72,1.28,0,2.35.21,2.39.21v-.14c0-.73-.59-1.09-2.37-1.09s-2.69.27-3.51.46c-.16.05-.27.07-.39.07-.93,0-1.05-2.21-1.05-2.99,0-.5.02-.82.8-1.09.57-.18,1.96-.52,4.65-.52s6.41.46,6.41,5.36v5.04c0,.75,0,1.82.27,2.33.64,1.16-1.41,1.42-2.49,1.42-.89,0-1.67-.23-2.08-.89Zm-2.39-2.56c.98,0,2.12-.8,2.12-1.87v-.32c-.3-.09-.57-.16-1.07-.16-1.53,0-2.19.64-2.19,1.37,0,.62.48.98,1.14.98Z"/><path class="cls-1" d="m66.43,24.08c0-5.47,3.33-7,7.05-7,1.03,0,2.28.11,2.97.37.32.11.55.32.55.98,0,.62-.18,2.76-1,2.76-.05,0-.09-.02-.16-.02-.39-.05-1.16-.23-1.85-.23-1.73,0-2.85,1.14-2.85,3.28,0,1.94.8,3.13,2.62,3.13,0,0,1.6-.18,1.96-.32.37-.14.43-.18.59-.18.84,0,1,2.24,1,2.78,0,.43-.27.75-.78,1-.84.41-2.3.59-4.08.59-2.58,0-6.02-1.55-6.02-7.14Z"/><path class="cls-1" d="m89.71,23.85c1.94,2.49,4.22,4.81,4.11,5.88s-.68,1.35-2.12,1.35c-.57,0-1.89-.04-2.58-.91-1.14-1.46-.09-.48-3.54-4.9v2.46c0,2.49,0,3.42-1.92,3.42-.73,0-2.65-.09-2.65-.98V13.6c0-.82,2.24-.87,2.65-.87,1.83,0,1.92.87,1.92,3.26v6.46c1.57-1.96,3.06-3.81,3.38-4.31.52-.84,1.23-.96,2.78-.96,1.16,0,2.08.39,2.08,1.16,0,.23-.09.5-.27.82-1.05,1.73-2.08,3.08-3.83,4.68Z"/><path class="cls-1" d="m105.08,30.33c-.78.62-2.4.89-3.65.89-3.56,0-4.52-2.12-4.52-4.31,0-3.29,2.12-4.72,5.52-4.72,1.28,0,2.35.21,2.39.21v-.14c0-.73-.59-1.09-2.37-1.09s-2.69.27-3.51.46c-.16.05-.27.07-.39.07-.93,0-1.05-2.21-1.05-2.99,0-.5.02-.82.8-1.09.57-.18,1.96-.52,4.65-.52s6.41.46,6.41,5.36v5.04c0,.75,0,1.82.27,2.33.64,1.16-1.41,1.42-2.49,1.42-.89,0-1.67-.23-2.08-.89Zm-2.4-2.56c.98,0,2.12-.8,2.12-1.87v-.32c-.3-.09-.57-.16-1.07-.16-1.53,0-2.19.64-2.19,1.37,0,.62.48.98,1.14.98Z"/><path class="cls-1" d="m121.81,29.39c-.27.25-.55.5-.84.73-1.07.8-2.26,1.1-3.38,1.1-3.17,0-4.61-2.6-4.61-6.32,0-5.04,2.65-7.82,7.6-7.82,2.21,0,4.08.37,5.13.78.62.25.66.46.66.8v10.26c0,6.52-4.43,7.09-7.83,7.09-2.69,0-4.88-.3-5.47-.48-.46-.18-.57-.3-.57-.82,0-1.14.3-2.94.8-2.94.07,0,.43.02.64.05.39.05,1.85.3,3.99.3,2.26,0,3.76-.41,3.88-2.71Zm0-6.73v-1.41c-.39-.11-.71-.18-1.25-.18-2.08,0-3.01,1.64-3.01,3.83,0,1.37.5,2.35,1.67,2.35,1.69,0,2.6-2.51,2.6-4.58Z"/><path class="cls-1" d="m132.93,12.14c1.23,0,2.28.71,2.28,2.17,0,1.6-1.25,2.3-2.58,2.3-1.23,0-2.24-.62-2.24-2.08,0-1.55,1.16-2.4,2.53-2.4Zm2.3,14.58c0,.68.3.87.68.87.18,0,.32,0,.5-.04.21-.05.34-.09.46-.09.73,0,.75,1.99.75,2.78,0,.5-.89.98-3.31.98-2.76,0-3.65-1.39-3.65-4.36v-8.69c0-.82,1.5-.87,2.39-.87,2.1,0,2.17,1.21,2.17,4.84v4.58Z"/><path class="cls-1" d="m143.43,31.15c-.73,0-2.65-.09-2.65-.98v-12c0-.82,1.51-.87,2.4-.87,1.23,0,1.69.53,1.85,1.87.75-1.39,2.35-2.1,4.11-2.1,2.81,0,4.33,1.69,4.33,5.11v6.32c-.02,1.92-.23,2.65-1.92,2.65-.73,0-2.65-.09-2.65-.98v-7.12c0-1.12-.25-1.73-1.07-1.73-1.69,0-2.49,2.42-2.49,4.08v2.69c0,2.21-.11,3.06-1.92,3.06Z"/><path class="cls-1" d="m166.02,29.39c-.27.25-.55.5-.84.73-1.07.8-2.26,1.1-3.38,1.1-3.17,0-4.61-2.6-4.61-6.32,0-5.04,2.65-7.82,7.6-7.82,2.21,0,4.08.37,5.13.78.62.25.66.46.66.8v10.26c0,6.52-4.43,7.09-7.83,7.09-2.69,0-4.88-.3-5.47-.48-.46-.18-.57-.3-.57-.82,0-1.14.3-2.94.8-2.94.07,0,.43.02.64.05.39.05,1.85.3,3.99.3,2.26,0,3.76-.41,3.88-2.71Zm0-6.73v-1.41c-.39-.11-.71-.18-1.25-.18-2.08,0-3.01,1.64-3.01,3.83,0,1.37.5,2.35,1.67,2.35,1.69,0,2.6-2.51,2.6-4.58Z"/></svg>