<?xml version="1.0" encoding="UTF-8"?><svg id="Layer_1" xmlns="http://www.w3.org/2000/svg" viewBox="0 0 204.25 45.92"><defs><style>.cls-1{fill:#fff;}.cls-2{fill:#3871b7;}</style></defs><rect class="cls-2" width="204.25" height="45.92" rx="11.71" ry="11.71"/><path class="cls-1" d="m51.91,22.1c2.3.3,3.54,1.71,3.54,4.43,0,3.7-2.6,4.68-7.71,4.68-1.3,0-3.33-.07-4.65-.32-1.46-.3-1.53-.78-1.53-1.55v-12.98c0-.98.05-1.23,1.55-1.57.87-.21,2.51-.46,4.49-.46,4.52,0,7.16,1.14,7.16,4.49,0,2.17-1.64,3.13-2.85,3.29Zm-5.68-1.28h1.51c1.6,0,2.33-.41,2.33-1.51,0-1.32-.75-1.53-2.01-1.53-.39,0-1.1.02-1.83.11v2.92Zm0,6.62c1,.11,1.39.14,1.85.14,1.46,0,2.46-.23,2.46-1.71,0-1.64-.98-1.8-2.35-1.8h-1.96v3.38Z"/><path class="cls-1" d="m61.75,17.27c1.32,0,1.76.64,1.87,2.33.73-1.53,1.96-2.53,4.27-2.53,1.19,0,1.19.68,1.19,1.23,0,2.24-.68,2.94-1.73,2.94-1.8,0-3.42,2.05-3.42,4.68v1.8c0,2.49,0,3.42-1.92,3.42-.73,0-2.65-.09-2.65-.98v-12.02c0-.82,1.51-.87,2.4-.87Z"/><path class="cls-1" d="m80.1,30.32c-.78.62-2.4.89-3.65.89-3.56,0-4.52-2.12-4.52-4.31,0-3.29,2.12-4.72,5.52-4.72,1.28,0,2.35.21,2.39.21v-.14c0-.73-.59-1.09-2.37-1.09s-2.69.27-3.51.46c-.16.05-.27.07-.39.07-.93,0-1.05-2.21-1.05-2.99,0-.5.02-.82.8-1.09.57-.18,1.96-.52,4.65-.52s6.41.46,6.41,5.36v5.04c0,.75,0,1.82.27,2.33.64,1.16-1.41,1.42-2.49,1.42-.89,0-1.67-.23-2.08-.89Zm-2.4-2.56c.98,0,2.12-.8,2.12-1.87v-.32c-.3-.09-.57-.16-1.07-.16-1.53,0-2.19.64-2.19,1.37,0,.62.48.98,1.14.98Z"/><path class="cls-1" d="m91.24,31.14c-.73,0-2.65-.09-2.65-.98v-12c0-.82,1.51-.87,2.4-.87,1.23,0,1.69.53,1.85,1.87.75-1.39,2.35-2.1,4.11-2.1,2.81,0,4.33,1.69,4.33,5.11v6.32c-.02,1.92-.23,2.65-1.92,2.65-.73,0-2.65-.09-2.65-.98v-7.12c0-1.12-.25-1.73-1.07-1.73-1.69,0-2.49,2.42-2.49,4.08v2.69c0,2.21-.11,3.06-1.92,3.06Z"/><path class="cls-1" d="m118.74,29.79c.64,1.16-1.41,1.42-2.49,1.42-1.25,0-2.26-.43-2.35-1.92-.25.3-.55.57-.84.82-1.1.8-2.26,1.12-3.38,1.12-3.17,0-4.61-2.44-4.61-5.89,0-5.04,2.65-8.28,6.91-8.28.66,0,1.3.09,1.92.25v-3.72c0-.82,2.24-.87,2.65-.87,1.82,0,1.92.87,1.92,3.26v11.47c0,.75,0,1.82.27,2.33Zm-4.84-8.05v-.39c-.39-.11-.71-.18-1.25-.18-1.78,0-2.78,1.73-2.78,3.72,0,1.37.37,2.26,1.21,2.26,1.83,0,2.83-3.42,2.83-5.41Z"/><path class="cls-1" d="m125.27,12.13c1.23,0,2.28.71,2.28,2.17,0,1.6-1.25,2.3-2.58,2.3-1.23,0-2.24-.62-2.24-2.08,0-1.55,1.16-2.4,2.53-2.4Zm2.3,14.58c0,.68.3.87.68.87.18,0,.32,0,.5-.04.21-.05.34-.09.46-.09.73,0,.75,1.99.75,2.78,0,.5-.89.98-3.31.98-2.76,0-3.65-1.39-3.65-4.36v-8.69c0-.82,1.5-.87,2.39-.87,2.1,0,2.17,1.21,2.17,4.84v4.58Z"/><path class="cls-1" d="m135.77,31.14c-.73,0-2.65-.09-2.65-.98v-12c0-.82,1.51-.87,2.4-.87,1.23,0,1.69.53,1.85,1.87.75-1.39,2.35-2.1,4.11-2.1,2.81,0,4.33,1.69,4.33,5.11v6.32c-.02,1.92-.23,2.65-1.92,2.65-.73,0-2.65-.09-2.65-.98v-7.12c0-1.12-.25-1.73-1.07-1.73-1.69,0-2.49,2.42-2.49,4.08v2.69c0,2.21-.11,3.06-1.92,3.06Z"/><path class="cls-1" d="m158.36,29.38c-.27.25-.55.5-.84.73-1.07.8-2.26,1.1-3.38,1.1-3.17,0-4.61-2.6-4.61-6.32,0-5.04,2.65-7.82,7.6-7.82,2.21,0,4.08.37,5.13.78.62.25.66.46.66.8v10.26c0,6.52-4.43,7.09-7.83,7.09-2.69,0-4.88-.3-5.47-.48-.46-.18-.57-.3-.57-.82,0-1.14.3-2.94.8-2.94.07,0,.43.02.64.05.39.05,1.85.3,3.99.3,2.26,0,3.76-.41,3.88-2.71Zm0-6.73v-1.41c-.39-.11-.71-.18-1.25-.18-2.08,0-3.01,1.64-3.01,3.83,0,1.37.5,2.35,1.67,2.35,1.69,0,2.6-2.51,2.6-4.58Z"/></svg>