<?xml version="1.0" encoding="UTF-8"?><svg id="Layer_1" xmlns="http://www.w3.org/2000/svg" viewBox="0 0 204.25 45.92"><defs><style>.cls-1{fill:#fff;}.cls-2{fill:#ffcf01;}</style></defs><rect class="cls-2" width="204.25" height="45.92" rx="11.71" ry="11.71"/><path class="cls-1" d="m29.68,17.57v10.4c0,2.28-.23,3.24-1.98,3.24-.73,0-2.67-.11-2.67-1v-14.87c0-.84,1.94-1,2.67-1,1.76,0,1.98.96,1.98,3.24Z"/><path class="cls-1" d="m38.57,26.72c0,.68.3.87.68.87.18,0,.32,0,.5-.04.21-.05.34-.09.46-.09.73,0,.75,1.99.75,2.78,0,.5-.89.98-3.31.98-2.76,0-3.65-1.39-3.65-4.36v-13.25c0-.82,2.24-.87,2.65-.87,1.83,0,1.92.87,1.92,3.26v10.72Z"/><path class="cls-1" d="m48.6,26.72c0,.68.3.87.68.87.18,0,.32,0,.5-.04.21-.05.34-.09.46-.09.73,0,.75,1.99.75,2.78,0,.5-.89.98-3.31.98-2.76,0-3.65-1.39-3.65-4.36v-13.25c0-.82,2.24-.87,2.65-.87,1.83,0,1.92.87,1.92,3.26v10.72Z"/><path class="cls-1" d="m61.88,22.91v-4.75c0-.82,1.51-.87,2.4-.87,2.1,0,2.17,1.1,2.17,4.4v5.77c0,.75,0,1.82.27,2.33.64,1.16-1.41,1.42-2.49,1.42-1.16,0-2.12-.39-2.33-1.62-.8,1.09-2.17,1.64-3.65,1.64-2.71,0-4.24-1.69-4.24-5.11v-7.96c0-.82,1.51-.87,2.4-.87,1.87,0,2.17,1.1,2.17,4.4v3.51c0,1.12.23,1.73,1,1.73,1.6,0,2.3-2.37,2.3-4.04Z"/><path class="cls-1" d="m77.8,21.02c-2.1,0-2.46.16-2.46.52,0,.66,1.28.55,2.67.98,1.64.5,3.38,1.57,3.38,4.08,0,3.49-2.37,4.61-6.34,4.61-2.99,0-4.17-.37-4.56-.89-.16-.23-.21-.48-.21-.84,0-.62.14-2.65.62-2.65.07,0,.21.04.84.16,1.05.18,1.35.27,2.78.27.73,0,2.01-.02,2.01-.59,0-.62-1.41-.78-2.9-1.21-1.55-.46-3.1-1.03-3.1-3.92,0-3.26,1.94-4.47,6.23-4.47,2.19,0,4.22.32,4.22,1.32,0,.18-.07,2.94-.75,2.94-.09,0-.18-.05-.89-.16-1.14-.16-1.48-.16-1.53-.16Z"/><path class="cls-1" d="m86.27,17.3v-.64c0-.91.66-1.6,2.08-2.35.68-.36,1.21-.59,1.6-.59.64,0,.89.64.89,2.26v1.32h1.82c.62,0,1.32.09,1.32.98,0,2.14-.39,2.71-1.35,2.71h-1.8v5.73c0,.68.39.87.91.87.43,0,.71-.04,1.41-.27.16-.07.32-.09.46-.09.5,0,.53,1.98.53,2.78,0,.62-.96,1.21-3.54,1.21-3.31,0-4.33-1.39-4.33-4.36v-5.86h-.48c-1.09,0-1.41-.16-1.41-.98,0-1.28.18-2.71,1.32-2.71h.57Z"/><path class="cls-1" d="m100.24,17.28c1.32,0,1.76.64,1.87,2.33.73-1.53,1.96-2.53,4.27-2.53,1.19,0,1.19.68,1.19,1.23,0,2.24-.68,2.94-1.73,2.94-1.8,0-3.42,2.05-3.42,4.68v1.8c0,2.49,0,3.42-1.92,3.42-.73,0-2.65-.09-2.65-.98v-12.02c0-.82,1.51-.87,2.4-.87Z"/><path class="cls-1" d="m118.6,30.33c-.78.62-2.39.89-3.65.89-3.56,0-4.52-2.12-4.52-4.31,0-3.29,2.12-4.72,5.52-4.72,1.28,0,2.35.21,2.39.21v-.14c0-.73-.59-1.09-2.37-1.09s-2.69.27-3.51.46c-.16.05-.27.07-.39.07-.93,0-1.05-2.21-1.05-2.99,0-.5.02-.82.8-1.09.57-.18,1.96-.52,4.65-.52s6.41.46,6.41,5.36v5.04c0,.75,0,1.82.27,2.33.64,1.16-1.41,1.42-2.49,1.42-.89,0-1.67-.23-2.08-.89Zm-2.39-2.56c.98,0,2.12-.8,2.12-1.87v-.32c-.3-.09-.57-.16-1.07-.16-1.53,0-2.19.64-2.19,1.37,0,.62.48.98,1.14.98Z"/><path class="cls-1" d="m128.02,17.3v-.64c0-.91.66-1.6,2.08-2.35.68-.36,1.21-.59,1.6-.59.64,0,.89.64.89,2.26v1.32h1.82c.62,0,1.32.09,1.32.98,0,2.14-.39,2.71-1.35,2.71h-1.8v5.73c0,.68.39.87.91.87.43,0,.71-.04,1.41-.27.16-.07.32-.09.46-.09.5,0,.53,1.98.53,2.78,0,.62-.96,1.21-3.54,1.21-3.31,0-4.33-1.39-4.33-4.36v-5.86h-.48c-1.09,0-1.41-.16-1.41-.98,0-1.28.18-2.71,1.32-2.71h.57Z"/><path class="cls-1" d="m141.87,12.14c1.23,0,2.28.71,2.28,2.17,0,1.6-1.25,2.3-2.58,2.3-1.23,0-2.24-.62-2.24-2.08,0-1.55,1.16-2.4,2.53-2.4Zm2.3,14.58c0,.68.3.87.68.87.18,0,.32,0,.5-.04.21-.05.34-.09.46-.09.73,0,.75,1.99.75,2.78,0,.5-.89.98-3.31.98-2.76,0-3.65-1.39-3.65-4.36v-8.69c0-.82,1.5-.87,2.4-.87,2.1,0,2.17,1.21,2.17,4.84v4.58Z"/><path class="cls-1" d="m155.9,17.07c5.13,0,6.8,3.51,6.8,7.07s-1.67,7.07-6.8,7.07-6.75-3.54-6.75-7.07,1.57-7.07,6.75-7.07Zm-2.21,7.09c0,1.57.64,3.17,2.21,3.17s2.26-1.6,2.26-3.17-.64-3.22-2.26-3.22-2.21,1.57-2.21,3.22Z"/><path class="cls-1" d="m169.19,31.15c-.73,0-2.65-.09-2.65-.98v-12c0-.82,1.51-.87,2.4-.87,1.23,0,1.69.53,1.85,1.87.75-1.39,2.35-2.1,4.11-2.1,2.81,0,4.33,1.69,4.33,5.11v6.32c-.02,1.92-.23,2.65-1.92,2.65-.73,0-2.65-.09-2.65-.98v-7.12c0-1.12-.25-1.73-1.07-1.73-1.69,0-2.49,2.42-2.49,4.08v2.69c0,2.21-.11,3.06-1.92,3.06Z"/></svg>