<?xml version="1.0" encoding="UTF-8"?><svg id="Layer_1" xmlns="http://www.w3.org/2000/svg" viewBox="0 0 275.27 354.97"><defs><style>.cls-1{fill:#f57e25;}.cls-2{fill:#ffc700;}.cls-3{fill:#ffcf01;}.cls-4{fill:#ff9400;}.cls-5{fill:#f7941d;}</style></defs><path class="cls-1" d="m20.24,241.22c-15.86,0-20.24,10.29-20.24,20.8s4.44,20.8,20.24,20.8,20.3-10.35,20.3-20.8-4.44-20.8-20.3-20.8Zm0,29.78c-5.15,0-7.09-4.49-7.09-8.89s1.94-9.07,7.09-9.07,7.18,4.54,7.18,9.07-1.98,8.89-7.18,8.89Z"/><path class="cls-1" d="m64.66,274.84c0,5.62-.56,7.98-4.89,7.98-1.8,0-6.58-.28-6.58-2.47v-34.52c0-2.02,1.07-3.37,3.99-3.88,2.87-.51,6.97-.73,10.18-.73,11.08,0,18.84,3.71,18.84,14.28,0,5.68-2.08,9.67-6.69,11.86l6.18,10.4c.45.84.62,1.57.62,2.19,0,2.42-3.09,2.87-5.73,2.87s-4.44-.39-5.96-2.53l-6.13-10.85h-.67c-1.35,0-2.53-.11-3.15-.28v5.68Zm9.78-19.62c0-3.49-1.8-4.95-6.41-4.95-1.01,0-2.42.11-3.37.39v9.22c.73.23,2.31.45,3.37.45,4.95,0,6.41-1.91,6.41-5.12Z"/><path class="cls-1" d="m97.32,280.18c0-.79.22-1.86.62-3.21,3.43-12.09,9.5-26.37,11.7-30.42,2.81-5.29,3.09-5.34,7.2-5.34s4.44.06,7.25,5.34c2.19,4.05,8.27,18.33,11.69,30.42.39,1.29.62,2.36.62,3.15,0,2.14-1.52,2.7-5.68,2.7-2.81,0-5.17-.73-5.85-3.32l-.84-3.15h-14.45l-.79,3.15c-.67,2.59-3.04,3.32-5.79,3.32-4.16,0-5.68-.56-5.68-2.64Zm19.51-25.47c-1.24,3.15-2.64,6.86-4.22,11.58h8.43c-1.57-4.72-2.98-8.43-4.22-11.58Z"/><path class="cls-1" d="m182.5,249.2v30.53c0,2.14-1.69,3.09-3.88,3.09-2.59,0-4.61-.17-6.75-3.32l-11.58-14.79c-.56-.73-.67-1.97-.9-2.92v13.04c0,5.62-.56,7.98-4.89,7.98-1.8,0-6.58-.28-6.58-2.47v-36.55c0-2.36,1.8-2.59,4.05-2.59,1.97,0,4.11.67,5.9,3.21l12.31,15.52c.56.73.79,1.8.84,2.59v-18.84c0-2.08,4.78-2.47,6.58-2.47,4.33,0,4.89,2.36,4.89,7.98Z"/><path class="cls-1" d="m217.02,272.98c.96,0,2.47-.06,4.16-.62v-10.68c0-2.25,4.05-2.47,5.57-2.47,5,0,5,2.42,5,9.22v10.63c0,.51-.45.96-1.18,1.35-3.37,1.86-10.85,2.42-14.56,2.42-12.48,0-20.86-6.35-20.86-21.93,0-10.8,4.05-19.68,22.49-19.68,2.08,0,7.98.28,11.02.84,2.87.51,3.04,1.24,3.04,2.47,0,2.76-.67,7.37-2.64,7.37-.56,0-2.19-.51-3.88-.51-2.14-.23-5.17-.34-6.75-.34-7.25,0-11.02,2.19-11.02,10.91s3.37,11.02,9.62,11.02Z"/><path class="cls-1" d="m256.82,257.18h9.84c2.7,0,3.32,1.97,3.32,4.27,0,3.26-1.57,4.72-5.74,4.72h-7.42v6.97c2.08.39,5.23.39,7.76.39,1.97,0,3.88-.11,5.17-.23,1.01-.06,2.02-.17,2.64-.17,2.42,0,2.87,5.12,2.87,6.58,0,1.74-1.29,2.31-3.37,2.59-1.86.28-8.66.51-11.81.51-4.27,0-8.6-.28-11.36-.73-3.04-.51-3.37-2.64-3.37-4.05v-32.05c0-1.41.34-3.54,3.37-4.05,2.76-.45,7.08-.73,11.36-.73,3.15,0,9.95.23,11.81.51,2.08.28,3.37.84,3.37,2.59,0,1.46-.45,6.58-2.87,6.58-.62,0-1.63-.11-2.64-.17-1.29-.11-3.2-.23-5.17-.23-2.53,0-5.68,0-7.76.39v6.3Z"/><path class="cls-4" d="m222.23,143.5c-2.68,7.74-7.37,15.76-14.51,23.18-19.85,20.6-47.28,27.24-54.03,15.79-6.75-11.46-4.95-35.15,13.78-54.58,19.85-20.6,46.57-26.93,55.15-16.77,5.84,6.91,3.96,19.85-.39,32.39Z"/><path class="cls-5" d="m241.09,97.13l-7.67,1.07c-1.28-1.26-2.61-2.4-3.89-3.22,0,0-.02-.02-.03-.02-13.04-8.83-45.37,1.71-69.85,27.12-25.94,26.92-29.05,59.16-20.21,74.54,4.8,8.34,17.97,9.28,33.42,3.84-36.77,13.7-79.52,5.98-108.8-23.3-40.17-40.17-39.77-105.71.9-146.39,40.68-40.67,106.21-41.07,146.39-.9,18.63,18.63,28.53,42.73,29.74,67.26Z"/><path class="cls-2" d="m222.23,143.5c-2.68,7.74-7.37,15.76-14.51,23.18-19.85,20.6-47.28,27.24-54.03,15.79-6.75-11.46-4.95-35.15,13.78-54.58,19.85-20.6,46.57-26.93,55.15-16.77,5.84,6.91,3.96,19.85-.39,32.39Z"/><path class="cls-1" d="m222.58,143.5c-2.68,7.74-7.37,15.76-14.51,23.18-19.85,20.6-47.28,27.24-54.03,15.79-6.75-11.46-4.95-35.15,13.78-54.58,19.85-20.6,46.57-26.93,55.15-16.77,5.84,6.91,3.96,19.85-.39,32.39Z"/><path class="cls-3" d="m274.51,166.77c-1.93-4.22-6.97-5.84-11.25-3.61-4.28,2.23-6.18,7.46-4.25,11.68,1.93,4.22,6.97,5.84,11.25,3.61,4.28-2.23,6.18-7.46,4.25-11.68Z"/><path class="cls-3" d="m241.09,97.13l-7.67,1.07c-1.28-1.26-2.61-2.4-3.89-3.22,0,0-.02-.02-.03-.02-13.04-8.83-45.37,1.71-69.85,27.12-25.94,26.92-29.05,59.16-20.21,74.54,4.8,8.34,17.97,9.28,33.42,3.84,14.7-5.42,28.3-14.44,39.19-25.83,1.12,15.65,13.26,31.47,31.19,32.36,19.99.98,16.38-20.75,4.35-17.08-7.53,2.3-6.01,10.68-11.97,9.76-8.97-1.39-12.72-14.72-10.6-27.84,3.61-22.38,17.72-39.44,16.07-74.7Zm-33.02,69.55c-19.85,20.6-47.28,27.24-54.03,15.79-6.75-11.46-4.95-35.15,13.78-54.58,19.85-20.6,46.57-26.93,55.15-16.77,5.84,6.91,3.96,19.85-.39,32.39-2.68,7.74-7.37,15.76-14.51,23.18Z"/><path class="cls-3" d="m186.58,354.82c8.24-.81,19.79-6.99,19.8-16.55,0-2.89-1.37-5.24-2.83-7.73-1.41-2.41-2.88-4.91-2.87-7.87.01-8.11,5-11.73,7.97-13.9.76-.55,1.9-1.15,1.9-1.68-.21-3.6-8.08-2.99-12.14.52-3.78,3.38-4.53,6.84-4.47,9.97.03,1.77,0,3.35-.24,4.89-.45,2.85-7.19,14.58-15.27,20.29-3.83,2.7-6.98,2.4-6.8-1.04.19-3.45,2.68-8.14,5.17-12.53,2.61-4.61,5.32-9.37,5.69-14.11.1-1.69-1.14-3.26-1.49-3.38-.16.07-.5.65-.74,1.07-.14.24-.29.5-.47.78-2.38,3.69-4.8,6.73-6.93,9.4-3.94,4.96-7.06,8.87-7.33,13.77-.37,6.61,3.28,11.4,8.48,11.05,11.04-.75,20.95-22.87,20.95-22.87l.37,2.33c.33,2.07.47,3.77.47,5.5-.03,17.37-13.58,20.43-17.74,20.95-.27.03-.43.07-.51.09.14.3,2.86,1.65,9.04,1.04Z"/><path class="cls-3" d="m223.79,354.96c.66,0,.87-.25.91-.33-.01-.09-.18-.34-.32-.55-.63-.94-1.79-2.7-1.98-6.8-.53-11.47,5.5-24.9,10.81-36.75.51-1.13,1-2.24,1.49-3.34h0s2.19-5.13,2.19-5.13c3.63-.51,7.11-.79,10.35-.79,11.15,0,20.02,3,27.14,9.17.57.5.7.56.76.54s.25-.71-.13-2.23c-2.44-9.68-10.72-15.01-23.32-15.01-3.83,0-7.92.48-12.19,1.44l.46-1.54c.74-2.61,1.09-4.76,1.07-6.53-.26-5.62-3.1-6.77-3.86-6.77-.95,0-1.82,9.69-5.46,16.72-3.46,1.36-10.31,2.39-12.33,2.9-1.38.35-2.78,1.02-2.28,2.28.37.93,2.11,1.27,4.21,1.29,3.58.03,7.53-.65,7.53-.65l-1.42,2.74h.01s-1.5,2.93-2.09,4.07c-5.98,11.58-12.16,23.55-11.77,32.12.42,9.19,7.89,13.14,10.21,13.14Z"/><path class="cls-3" d="m181.19,303.57c-1.9-.51-4.28-.76-7.27-.76-2.54,0-5.31.18-7.93.36l-1.29.09.45-1.08c.35-.85.62-1.46.8-1.83.02-.04.04-.08.06-.11,2.37-6.2,3.33-10.35,3.13-13.43-.53-5.26-3.45-6.45-4.46-6.45h0c-.18.01-.39.03-.41.84-.12,5.85-3.43,13.48-6.66,20.18l-.22.45h-.03l-.96,1.9h-.52c-.53.02-1.05.03-1.57.03-4.73,0-8.48-.45-11.78-1.41-5.29-1.54-6.54-3.81-7.07-4.78-.02-.03-.03-.06-.05-.09-.24.06-.58.26-.82.7-.62,1.15-.53,2.77.22,4.33.75,1.55,2.83,4.38,8.4,6,2.51.73,5.45,1.09,8.98,1.12l1.26.03-1.52,3.03c-7.28,13.86-21.55,26.89-26.04,26.89-.65,0-1.27-.24-1.72-.66-.33-.31-.73-.88-.73-1.79,0-3.99,1.92-7.86,3.77-11.61,1.54-3.11,2.99-6.05,2.99-8.53,0-2.57-3.04-5.38-5.72-7.85-2.56-2.36-4.77-4.4-4.76-6.36v-.21s.12-.18.12-.18c1.27-1.85,5.14-7.48,5.15-10.83,0-.9-.38-1.81-1.05-2.52-.67-.71-1.53-1.1-2.43-1.1-2.6,0-8.74,6.01-8.75,11.5,0,1.75,1.9,4.73,3.18,6.19l.36.41-1.21,1.68c-2.07,2.89-4.9,6.85-8.95,11.41-4.42,4.98-10.9,10.27-14.23,10.27-.59,0-1.11-.21-1.46-.61-.34-.37-.51-.88-.51-1.52,0-1.3,1.34-2.88,3.03-4.87,2.28-2.7,5.13-6.05,5.13-9.38,0-1.16-.65-2.47-1.75-3.52-1.14-1.08-2.57-1.71-3.93-1.71-1.47,0-3.37,2.2-5.04,4.27-.21.25-21.48,24.77-26.6,24.77-.98,0-1.97-.62-1.97-1.99,0-5.16,13.69-25.95,30.37-31.94,3.35-1.21,6.07-1.57,7.86-1.8,1.98-.26,2.38-.37,2.38-.69,0-1.43-3.61-5.22-8-5.23-21.96,0-43.47,19.77-43.49,34.52-.01,9.17,6.2,12.43,11.54,12.43,5.97,0,12.61-8.05,17-13.37,3.03-3.67,4.14-4.92,5.17-5.15.92-.21.97.65,1.32,1.92.46,1.7,1.65,3.96,3.61,5.69,1.36,1.21,3.65,2.65,6.79,2.65,4.11,0,10.42-7.05,13.46-10.44,3.37-3.76,8.51-10.67,11.23-15.08l.46-.75,1.55,1.03c2.4,1.59,3.05,2.02,3.05,3.74,0,2.55-2.1,5.14-4.53,8.13-3.06,3.78-6.54,8.07-6.55,13.26,0,2.16,1.07,4.3,3.02,6.04,2.37,2.11,5.77,3.31,9.33,3.31,5.13,0,11.13-4.44,18.36-13.58h0c1.48-1.86,3.43-4.5,3.43-4.5,0,0-1.26,3.05-2.02,5.34-1.47,4.51-2.04,8.17-1.73,11.18.87,8.6,8.66,12.41,11.48,12.41.07,0,.14,0,.21,0,.57-.04.83-.3.86-.34-.02-.08-.21-.33-.37-.52-.72-.9-2.06-2.57-2.47-6.58-1.14-11.21,4.66-24.62,9.77-36.46l.48-1.11.49-.06c3.51-.43,7.22-1.01,10.81-1.58,2.46-.39,5-.79,7.5-1.14.36-.05.69-.08,1-.11.56-.06,1.34-.14,1.45-.21.06-.38-.83-1.79-2.46-2.26Z"/><path class="cls-3" d="m52.23,301.29s-1.63-8.3-5.79-11.13c-4.16-2.83-8.62-1.21-10.13,1.38-1.38,2.35-1.54,7.65,3.45,9.39,4.99,1.74,7.48-3.72,12.47.37Z"/><path class="cls-3" d="m188.87,304.83s6.09-2.34,7.69-5.89-.23-6.71-2.4-7.52c-1.97-.73-6.02-.15-6.67,3.87-.65,4.02,3.83,5.19,1.38,9.53Z"/><path class="cls-3" d="m119.76,302.04s.27.06.14.25c-.11.17-.19.36-.17.61,0,.12-.32.12-.32.12l-.16-.64.17-.23.33-.1Z"/></svg>